SplineFontDB: 3.2
FontName: NotoSansMath-Regular
FullName: Noto Sans Math Regular
FamilyName: Noto Sans Math
Weight: Book
Copyright: Copyright 2018 Google LLC. All Rights Reserved.
Version: 2.1
ItalicAngle: 0
UnderlinePosition: -253
UnderlineWidth: 101.2
Ascent: 1619
Descent: 405
InvalidEm: 0
sfntRevision: 0x00020042
LayerCount: 2
Layer: 0 0 "Back" 1
Layer: 1 0 "Fore" 0
XUID: [1021 282 2012869056 16076707]
StyleMap: 0x0040
FSType: 0
OS2Version: 4
OS2_WeightWidthSlopeOnly: 1
OS2_UseTypoMetrics: 0
CreationTime: 1470326346
ModificationTime: 1719092084
PfmFamily: 81
TTFWeight: 400
TTFWidth: 5
LineGap: 0
VLineGap: 0
Panose: 0 0 0 0 0 0 0 0 0 0
OS2TypoAscent: 2164
OS2TypoAOffset: 0
OS2TypoDescent: -856
OS2TypoDOffset: 0
OS2TypoLinegap: 0
OS2WinAscent: 2164
OS2WinAOffset: 0
OS2WinDescent: 856
OS2WinDOffset: 0
HheadAscent: 2164
HheadAOffset: 0
HheadDescent: -856
HheadDOffset: 0
OS2SubXSize: 1316
OS2SubYSize: 1214
OS2SubXOff: 0
OS2SubYOff: 152
OS2SupXSize: 1316
OS2SupYSize: 1214
OS2SupXOff: 0
OS2SupYOff: 708
OS2StrikeYSize: 101
OS2StrikeYPos: 652
OS2CapHeight: 1445
OS2XHeight: 1085
OS2Vendor: 'GOOG'
OS2CodePages: 00000001.00000000
OS2UnicodeRanges: 800000c3.020064ec.02000010.00000000
Lookup: 1 0 0 "'aalt' Access All Alternates lookup 0" { "'aalt' Access All Alternates lookup 0 subtable"  } ['aalt' ('DFLT' <'dflt' > ) ]
Lookup: 1 0 0 "'rtlm' Right to Left mirrored forms lookup 1" { "'rtlm' Right to Left mirrored forms lookup 1 subtable"  } ['rtlm' ('DFLT' <'dflt' > ) ]
Lookup: 1 0 0 "'fwid' Full Widths lookup 2" { "'fwid' Full Widths lookup 2 subtable" ("full") } ['fwid' ('DFLT' <'dflt' > ) ]
Lookup: 260 0 0 "'mark' Mark Positioning lookup 0" { "'mark' Mark Positioning lookup 0 subtable"  } ['mark' ('DFLT' <'dflt' > ) ]
Lookup: 262 16 0 "'mkmk' Mark to Mark lookup 1" { "'mkmk' Mark to Mark lookup 1 subtable"  } ['mkmk' ('DFLT' <'dflt' > ) ]
Lookup: 262 65552 0 "'mkmk' Mark to Mark lookup 2" { "'mkmk' Mark to Mark lookup 2 subtable"  } ['mkmk' ('DFLT' <'dflt' > ) ]

StartChar: .notdef
Encoding: 1114112 -1 0
Width: 1214
GlyphClass: 1
Flags: HW
LayerCount: 2
Fore
SplineSet
192 0 m 1
 192 1445 l 1
 1022 1445 l 1
 1022 0 l 1
 192 0 l 1
296 103 m 1
 921 103 l 1
 921 1342 l 1
 296 1342 l 1
 296 103 l 1
EndSplineSet
EndChar

StartChar: A
Encoding: 65 65 1
Width: 1293
GlyphClass: 2
Flags: HW
AnchorPoint: "Anchor-1" 656 0 basechar 0
AnchorPoint: "Anchor-0" 644 1445 basechar 0
LayerCount: 2
Fore
SplineSet
0 0 m 1
 565 1451 l 1
 729 1451 l 1
 1291 0 l 1
 1103 0 l 1
 929 447 l 1
 356 447 l 1
 184 0 l 1
 0 0 l 1
417 609 m 1
 874 609 l 1
 712 1046 l 2
 700 1078 658 1212 644 1263 c 1
 624 1180 597 1093 581 1046 c 2
 417 609 l 1
EndSplineSet
EndChar

StartChar: u1D504
Encoding: 120068 120068 2
Width: 1343
GlyphClass: 1
Flags: HW
LayerCount: 2
Fore
SplineSet
1101 -57 m 1
 1065 -45 l 1
 1069 -33 1073 -12 1073 -4 c 0
 1073 6 1069 14 1061 24 c 0
 1018 73 1000 140 1000 227 c 2
 1000 271 l 1
 913 206 807 146 684 83 c 0
 561 20 481 -25 447 -51 c 1
 413 -24 l 1
 431 -6 441 6 441 10 c 0
 441 38 203 241 144 241 c 0
 128 241 105 237 75 227 c 1
 61 271 l 1
 504 399 694 579 694 897 c 0
 694 1140 577 1289 387 1289 c 0
 235 1289 113 1160 113 974 c 0
 113 794 221 674 423 638 c 1
 409 595 l 1
 184 627 57 781 57 1010 c 0
 57 1275 222 1467 441 1467 c 0
 674 1467 840 1270 840 974 c 0
 840 705 684 500 358 332 c 1
 549 170 l 2
 579 144 608 130 636 130 c 0
 658 130 702 146 765 178 c 0
 828 210 905 259 998 330 c 1
 998 1164 l 2
 998 1229 992 1289 978 1348 c 1
 1014 1360 l 1
 1048 1253 l 1
 1066 1368 1174 1471 1295 1471 c 1
 1295 1433 l 1
 1204 1390 1158 1294 1158 1142 c 2
 1158 338 l 2
 1158 285 1160 251 1168 233 c 0
 1174 217 1188 208 1212 208 c 0
 1234 208 1265 225 1303 255 c 1
 1332 227 l 1
 1233 116 1156 22 1101 -57 c 1
EndSplineSet
EndChar

StartChar: uni2336
Encoding: 9014 9014 3
Width: 1530
GlyphClass: 1
Flags: HW
LayerCount: 2
Fore
SplineSet
103 53 m 1
 103 196 l 1
 694 196 l 1
 694 1233 l 1
 103 1233 l 1
 103 1376 l 1
 1427 1376 l 1
 1427 1233 l 1
 838 1233 l 1
 838 196 l 1
 1427 196 l 1
 1427 53 l 1
 103 53 l 1
EndSplineSet
EndChar

StartChar: uni237A
Encoding: 9082 9082 4
Width: 1244
GlyphClass: 1
Flags: HW
LayerCount: 2
Fore
SplineSet
557 -20 m 0
 278 -20 111 186 111 538 c 0
 111 898 280 1105 573 1105 c 0
 733 1105 834 1050 905 939 c 1
 917 939 l 1
 933 1000 956 1049 982 1085 c 1
 1121 1085 l 1
 1091 994 1071 796 1071 660 c 2
 1071 239 l 2
 1071 156 1107 125 1154 125 c 0
 1174 125 1194 128 1214 136 c 1
 1214 6 l 1
 1194 -6 1146 -20 1101 -20 c 0
 986 -20 931 39 909 146 c 1
 895 146 l 1
 816 31 711 -20 557 -20 c 0
587 128 m 0
 802 128 895 243 895 526 c 2
 895 534 l 2
 895 840 802 955 585 955 c 0
 393 955 296 815 296 536 c 0
 296 263 385 128 587 128 c 0
EndSplineSet
EndChar

StartChar: uni2376
Encoding: 9078 9078 5
Width: 1244
GlyphClass: 1
Flags: HW
LayerCount: 2
Fore
SplineSet
557 -20 m 0
 278 -20 111 186 111 538 c 0
 111 898 280 1105 573 1105 c 0
 733 1105 834 1050 905 939 c 1
 917 939 l 1
 933 1000 956 1049 982 1085 c 1
 1121 1085 l 1
 1091 994 1071 796 1071 660 c 2
 1071 239 l 2
 1071 156 1107 125 1154 125 c 0
 1174 125 1194 128 1214 136 c 1
 1214 6 l 1
 1194 -6 1146 -20 1101 -20 c 0
 986 -20 931 39 909 146 c 1
 895 146 l 1
 816 31 711 -20 557 -20 c 0
587 128 m 0
 802 128 895 243 895 526 c 2
 895 534 l 2
 895 840 802 955 585 955 c 0
 393 955 296 815 296 536 c 0
 296 263 385 128 587 128 c 0
103 -302 m 1
 103 -158 l 1
 1212 -158 l 1
 1212 -302 l 1
 103 -302 l 1
EndSplineSet
EndChar

StartChar: uni2340
Encoding: 9024 9024 6
Width: 1090
GlyphClass: 1
Flags: HW
LayerCount: 2
Fore
SplineSet
103 542 m 1
 103 678 l 1
 443 678 l 1
 148 1443 l 1
 300 1443 l 1
 595 678 l 1
 988 678 l 1
 988 542 l 1
 648 542 l 1
 943 -223 l 1
 791 -223 l 1
 496 542 l 1
 103 542 l 1
EndSplineSet
EndChar

StartChar: uni2349
Encoding: 9033 9033 7
Width: 1360
GlyphClass: 1
Flags: HW
LayerCount: 2
Fore
SplineSet
680 146 m 0
 362 146 103 405 103 723 c 0
 103 927 210 1105 370 1208 c 1
 204 1563 l 1
 348 1563 l 1
 486 1265 l 1
 547 1287 613 1299 680 1299 c 0
 998 1299 1257 1041 1257 723 c 0
 1257 513 1144 326 974 227 c 1
 1156 -166 l 1
 1012 -166 l 1
 854 172 l 1
 799 156 741 146 680 146 c 0
680 1156 m 0
 633 1156 589 1147 549 1135 c 1
 911 356 l 1
 1032 435 1113 571 1113 723 c 0
 1113 962 919 1156 680 1156 c 0
680 289 m 0
 718 289 757 296 791 304 c 1
 431 1077 l 1
 320 998 247 869 247 723 c 0
 247 484 441 289 680 289 c 0
EndSplineSet
EndChar

StartChar: uni2365
Encoding: 9061 9061 8
Width: 1360
GlyphClass: 1
Flags: HW
LayerCount: 2
Fore
SplineSet
468 1494 m 0
 411 1494 366 1538 366 1595 c 0
 366 1654 411 1696 468 1696 c 0
 525 1696 569 1654 569 1595 c 0
 569 1536 523 1494 468 1494 c 0
891 1494 m 0
 834 1494 789 1538 789 1595 c 0
 789 1654 834 1696 891 1696 c 0
 948 1696 992 1654 992 1595 c 0
 992 1536 946 1494 891 1494 c 0
680 146 m 0
 362 146 103 405 103 723 c 0
 103 1041 362 1299 680 1299 c 0
 998 1299 1257 1041 1257 723 c 0
 1257 405 998 146 680 146 c 0
680 289 m 0
 919 289 1113 486 1113 723 c 0
 1113 962 919 1156 680 1156 c 0
 441 1156 247 962 247 723 c 0
 247 484 441 289 680 289 c 0
EndSplineSet
EndChar

StartChar: uni233E
Encoding: 9022 9022 9
Width: 1562
GlyphClass: 1
Flags: HW
LayerCount: 2
Fore
SplineSet
781 45 m 0
 407 45 103 353 103 723 c 0
 103 1093 407 1401 781 1401 c 0
 1151 1401 1459 1104 1459 723 c 0
 1459 353 1151 45 781 45 c 0
781 188 m 0
 1072 188 1316 432 1316 723 c 0
 1316 1023 1072 1257 781 1257 c 0
 485 1257 247 1014 247 723 c 0
 247 432 485 188 781 188 c 0
781 383 m 0
 593 383 441 537 441 723 c 0
 441 909 593 1063 781 1063 c 0
 967 1063 1121 913 1121 723 c 0
 1121 537 967 383 781 383 c 0
781 510 m 0
 896 510 994 604 994 723 c 0
 994 842 896 935 781 935 c 0
 664 935 569 840 569 723 c 0
 569 606 664 510 781 510 c 0
EndSplineSet
EndChar

StartChar: uni235F
Encoding: 9055 9055 10
Width: 1562
GlyphClass: 1
Flags: HW
LayerCount: 2
Fore
SplineSet
781 12 m 0
 409 12 103 316 103 690 c 0
 103 1062 409 1368 781 1368 c 0
 1155 1368 1459 1064 1459 690 c 0
 1459 316 1157 12 781 12 c 0
781 156 m 0
 1079 156 1316 392 1316 690 c 0
 1316 988 1081 1225 781 1225 c 0
 483 1225 247 983 247 690 c 0
 247 392 485 156 781 156 c 0
599 296 m 1
 468 391 l 1
 660 646 l 1
 354 741 l 1
 405 895 l 1
 706 789 l 1
 700 1109 l 1
 862 1109 l 1
 856 789 l 1
 1158 895 l 1
 1208 741 l 1
 903 646 l 1
 1095 391 l 1
 963 296 l 1
 781 559 l 1
 599 296 l 1
EndSplineSet
EndChar

StartChar: uni233D
Encoding: 9021 9021 11
Width: 1360
GlyphClass: 1
Flags: HW
LayerCount: 2
Fore
SplineSet
607 -166 m 1
 607 150 l 1
 324 186 103 430 103 723 c 0
 103 1016 324 1259 607 1295 c 1
 607 1563 l 1
 751 1563 l 1
 751 1295 l 1
 1036 1261 1257 1016 1257 723 c 0
 1257 430 1036 184 751 150 c 1
 751 -166 l 1
 607 -166 l 1
1113 723 m 0
 1113 938 955 1116 751 1150 c 1
 751 296 l 1
 955 330 1113 510 1113 723 c 0
247 723 m 0
 247 508 403 330 607 296 c 1
 607 1150 l 1
 403 1116 247 938 247 723 c 0
EndSplineSet
EndChar

StartChar: uni235C
Encoding: 9052 9052 12
Width: 1360
GlyphClass: 1
Flags: HW
LayerCount: 2
Fore
SplineSet
680 146 m 0
 362 146 103 405 103 723 c 0
 103 1041 362 1299 680 1299 c 0
 998 1299 1257 1041 1257 723 c 0
 1257 405 998 146 680 146 c 0
680 289 m 0
 919 289 1113 486 1113 723 c 0
 1113 962 919 1156 680 1156 c 0
 441 1156 247 962 247 723 c 0
 247 484 441 289 680 289 c 0
103 -302 m 1
 103 -158 l 1
 1257 -158 l 1
 1257 -302 l 1
 103 -302 l 1
EndSplineSet
EndChar

StartChar: uni236A
Encoding: 9066 9066 13
Width: 696
GlyphClass: 1
Flags: HW
LayerCount: 2
Fore
SplineSet
103 725 m 1
 103 878 l 1
 593 878 l 1
 593 725 l 1
 103 725 l 1
158 0 m 1
 201 164 235 330 259 496 c 1
 449 496 l 1
 463 474 l 1
 431 351 374 192 289 0 c 1
 158 0 l 1
EndSplineSet
EndChar

StartChar: uni2362
Encoding: 9058 9058 14
Width: 1214
GlyphClass: 1
Flags: HW
LayerCount: 2
Fore
SplineSet
397 1494 m 0
 340 1494 296 1538 296 1595 c 0
 296 1654 340 1696 397 1696 c 0
 454 1696 498 1654 498 1595 c 0
 498 1536 452 1494 397 1494 c 0
820 1494 m 0
 763 1494 719 1538 719 1595 c 0
 719 1654 763 1696 820 1696 c 0
 877 1696 921 1654 921 1595 c 0
 921 1536 875 1494 820 1494 c 0
522 53 m 1
 103 1275 l 1
 103 1376 l 1
 1111 1376 l 1
 1111 1275 l 1
 692 53 l 1
 522 53 l 1
607 200 m 1
 625 283 657 391 700 516 c 2
 941 1233 l 1
 273 1233 l 1
 514 516 l 2
 557 391 589 283 607 200 c 1
EndSplineSet
EndChar

StartChar: uni2352
Encoding: 9042 9042 15
Width: 1072
GlyphClass: 1
Flags: HW
LayerCount: 2
Fore
SplineSet
463 -166 m 1
 463 136 l 1
 103 1180 l 1
 103 1267 l 1
 463 1267 l 1
 463 1563 l 1
 607 1563 l 1
 607 1267 l 1
 969 1267 l 1
 969 1180 l 1
 607 130 l 1
 607 -166 l 1
 463 -166 l 1
263 1131 m 1
 463 512 l 1
 463 1131 l 1
 263 1131 l 1
810 1131 m 1
 607 1131 l 1
 607 506 l 1
 810 1131 l 1
EndSplineSet
EndChar

StartChar: uni234B
Encoding: 9035 9035 16
Width: 1072
GlyphClass: 1
Flags: HW
LayerCount: 2
Fore
SplineSet
103 130 m 1
 103 217 l 1
 463 1261 l 1
 463 1563 l 1
 607 1563 l 1
 607 1267 l 1
 969 217 l 1
 969 130 l 1
 607 130 l 1
 607 -166 l 1
 463 -166 l 1
 463 130 l 1
 103 130 l 1
810 265 m 1
 607 891 l 1
 607 265 l 1
 810 265 l 1
263 265 m 1
 463 265 l 1
 463 884 l 1
 263 265 l 1
EndSplineSet
EndChar

StartChar: uni2359
Encoding: 9049 9049 17
Width: 1072
GlyphClass: 1
Flags: HW
LayerCount: 2
Fore
SplineSet
103 130 m 1
 103 217 l 1
 466 1267 l 1
 607 1267 l 1
 969 217 l 1
 969 130 l 1
 103 130 l 1
263 265 m 1
 810 265 l 1
 536 1079 l 1
 263 265 l 1
103 -302 m 1
 103 -158 l 1
 969 -158 l 1
 969 -302 l 1
 103 -302 l 1
EndSplineSet
EndChar

StartChar: uni236B
Encoding: 9067 9067 18
Width: 1530
GlyphClass: 1
Flags: HW
LayerCount: 2
Fore
SplineSet
103 595 m 1
 103 747 l 1
 188 818 280 856 403 864 c 1
 261 1275 l 1
 261 1376 l 1
 1269 1376 l 1
 1269 1275 l 1
 1085 739 l 1
 1091 739 l 2
 1221 739 1308 771 1427 866 c 1
 1427 716 l 1
 1330 633 1225 595 1069 595 c 0
 1059 595 1046 595 1036 595 c 1
 850 53 l 1
 680 53 l 1
 449 725 l 1
 439 725 l 2
 309 725 224 694 103 595 c 1
787 802 m 0
 836 784 884 765 939 755 c 1
 1099 1233 l 1
 431 1233 l 1
 557 862 l 1
 648 852 716 830 787 802 c 0
765 200 m 1
 783 283 815 391 858 516 c 2
 891 613 l 1
 836 625 790 644 743 662 c 0
 698 680 656 694 607 706 c 1
 672 516 l 2
 715 391 747 283 765 200 c 1
EndSplineSet
EndChar

StartChar: uni235A
Encoding: 9050 9050 19
Width: 1744
GlyphClass: 1
Flags: HW
LayerCount: 2
Fore
SplineSet
872 0 m 1
 103 769 l 1
 872 1538 l 1
 1641 769 l 1
 872 0 l 1
872 206 m 1
 1435 769 l 1
 872 1332 l 1
 310 769 l 1
 872 206 l 1
103 -302 m 1
 103 -158 l 1
 1641 -158 l 1
 1641 -302 l 1
 103 -302 l 1
EndSplineSet
EndChar

StartChar: uni2371
Encoding: 9073 9073 20
Width: 1530
GlyphClass: 1
Flags: HW
LayerCount: 2
Fore
SplineSet
103 595 m 1
 103 747 l 1
 170 804 243 840 330 856 c 1
 103 1212 l 1
 263 1212 l 1
 486 866 l 1
 614 862 700 836 787 802 c 0
 846 780 902 759 969 749 c 1
 1267 1212 l 1
 1427 1212 l 1
 1125 739 l 1
 1236 745 1318 779 1427 866 c 1
 1427 716 l 1
 1330 633 1225 595 1069 595 c 0
 1057 595 1044 595 1034 595 c 1
 814 251 l 1
 716 251 l 1
 415 725 l 1
 298 721 216 688 103 595 c 1
743 662 m 0
 690 682 642 700 585 710 c 1
 765 429 l 1
 884 615 l 1
 833 627 788 644 743 662 c 0
EndSplineSet
EndChar

StartChar: uni2366
Encoding: 9062 9062 21
Width: 1380
GlyphClass: 1
Flags: HW
LayerCount: 2
Fore
SplineSet
619 -166 m 1
 619 123 l 1
 277 151 103 385 103 814 c 2
 103 1267 l 1
 247 1267 l 1
 247 814 l 2
 247 478 368 295 619 269 c 1
 619 1563 l 1
 763 1563 l 1
 763 269 l 1
 1014 297 1133 478 1133 814 c 2
 1133 1267 l 1
 1277 1267 l 1
 1277 814 l 2
 1277 387 1103 151 763 123 c 1
 763 -166 l 1
 619 -166 l 1
EndSplineSet
EndChar

StartChar: uni234E
Encoding: 9038 9038 22
Width: 1530
GlyphClass: 1
Flags: HW
LayerCount: 2
Fore
SplineSet
103 53 m 1
 103 196 l 1
 694 196 l 1
 694 391 l 1
 540 423 425 561 425 723 c 0
 425 885 540 1023 694 1055 c 1
 694 1376 l 1
 838 1376 l 1
 838 1055 l 1
 990 1023 1105 887 1105 723 c 0
 1105 561 990 425 838 391 c 1
 838 196 l 1
 1427 196 l 1
 1427 53 l 1
 103 53 l 1
553 723 m 0
 553 630 611 550 694 522 c 1
 694 923 l 1
 611 895 553 816 553 723 c 0
978 723 m 0
 978 816 919 893 838 923 c 1
 838 522 l 1
 919 552 978 630 978 723 c 0
EndSplineSet
EndChar

StartChar: uni234A
Encoding: 9034 9034 23
Width: 1530
GlyphClass: 1
Flags: HW
LayerCount: 2
Fore
SplineSet
103 53 m 1
 103 196 l 1
 694 196 l 1
 694 1376 l 1
 838 1376 l 1
 838 196 l 1
 1427 196 l 1
 1427 53 l 1
 103 53 l 1
103 -249 m 1
 103 -105 l 1
 1425 -105 l 1
 1425 -249 l 1
 103 -249 l 1
EndSplineSet
EndChar

StartChar: uni2356
Encoding: 9046 9046 24
Width: 1414
GlyphClass: 1
Flags: HW
LayerCount: 2
Fore
SplineSet
708 0 m 1
 421 316 l 1
 636 281 l 1
 636 611 l 1
 103 611 l 1
 103 755 l 1
 636 755 l 1
 636 1445 l 1
 779 1445 l 1
 779 755 l 1
 1312 755 l 1
 1312 611 l 1
 779 611 l 1
 779 281 l 1
 996 316 l 1
 708 0 l 1
EndSplineSet
EndChar

StartChar: uni2377
Encoding: 9079 9079 25
Width: 1001
GlyphClass: 1
Flags: HW
LayerCount: 2
Fore
SplineSet
627 -20 m 0
 297 -20 111 176 111 536 c 0
 111 904 300 1105 634 1105 c 0
 745 1105 854 1080 933 1046 c 1
 880 901 l 1
 791 935 706 951 629 951 c 0
 421 951 318 848 296 631 c 1
 828 631 l 1
 828 486 l 1
 293 486 l 1
 305 245 410 132 623 132 c 0
 746 132 840 162 917 192 c 1
 917 38 l 1
 838 0 740 -20 627 -20 c 0
83 -302 m 1
 83 -158 l 1
 976 -158 l 1
 976 -302 l 1
 83 -302 l 1
EndSplineSet
EndChar

StartChar: uni2369
Encoding: 9065 9065 26
Width: 1157
GlyphClass: 1
Flags: HW
LayerCount: 2
Fore
SplineSet
366 1186 m 0
 309 1186 265 1228 265 1287 c 0
 265 1344 309 1388 366 1388 c 0
 425 1388 468 1344 468 1287 c 0
 468 1228 425 1186 366 1186 c 0
791 1186 m 0
 732 1186 690 1228 690 1287 c 0
 690 1344 732 1388 791 1388 c 0
 848 1388 893 1344 893 1287 c 0
 893 1228 848 1186 791 1186 c 0
103 121 m 1
 103 279 l 1
 844 619 l 1
 103 959 l 1
 103 1117 l 1
 1055 670 l 1
 1055 569 l 1
 103 121 l 1
EndSplineSet
EndChar

StartChar: uni2373
Encoding: 9075 9075 27
Width: 700
GlyphClass: 1
Flags: HW
LayerCount: 2
Fore
SplineSet
474 -20 m 0
 259 -20 166 87 166 318 c 2
 166 1085 l 1
 342 1085 l 1
 342 320 l 2
 342 188 389 125 498 125 c 0
 557 125 630 138 664 148 c 1
 664 12 l 1
 630 -4 545 -20 474 -20 c 0
EndSplineSet
EndChar

StartChar: uni2378
Encoding: 9080 9080 28
Width: 700
GlyphClass: 1
Flags: HW
LayerCount: 2
Fore
SplineSet
474 -20 m 0
 259 -20 166 87 166 318 c 2
 166 1085 l 1
 342 1085 l 1
 342 320 l 2
 342 188 389 125 498 125 c 0
 557 125 630 138 664 148 c 1
 664 12 l 1
 630 -4 545 -20 474 -20 c 0
105 -302 m 1
 105 -158 l 1
 666 -158 l 1
 666 -302 l 1
 105 -302 l 1
EndSplineSet
EndChar

StartChar: uni2364
Encoding: 9060 9060 29
Width: 886
GlyphClass: 1
Flags: HW
LayerCount: 2
Fore
SplineSet
231 1186 m 0
 174 1186 130 1228 130 1287 c 0
 130 1344 174 1388 231 1388 c 0
 290 1388 332 1344 332 1287 c 0
 332 1228 290 1186 231 1186 c 0
656 1186 m 0
 597 1186 555 1228 555 1287 c 0
 555 1344 597 1388 656 1388 c 0
 713 1388 757 1344 757 1287 c 0
 757 1228 713 1186 656 1186 c 0
443 383 m 0
 255 383 103 537 103 723 c 0
 103 909 255 1063 443 1063 c 0
 629 1063 783 913 783 723 c 0
 783 537 629 383 443 383 c 0
443 510 m 0
 558 510 656 604 656 723 c 0
 656 842 558 935 443 935 c 0
 326 935 231 840 231 723 c 0
 231 606 326 510 443 510 c 0
EndSplineSet
EndChar

StartChar: uni235B
Encoding: 9051 9051 30
Width: 890
GlyphClass: 1
Flags: HW
LayerCount: 2
Fore
SplineSet
445 383 m 0
 257 383 105 537 105 723 c 0
 105 909 257 1063 445 1063 c 0
 631 1063 785 913 785 723 c 0
 785 537 631 383 445 383 c 0
445 510 m 0
 560 510 658 604 658 723 c 0
 658 842 560 935 445 935 c 0
 328 935 233 840 233 723 c 0
 233 606 328 510 445 510 c 0
103 -302 m 1
 103 -158 l 1
 787 -158 l 1
 787 -302 l 1
 103 -302 l 1
EndSplineSet
EndChar

StartChar: uni2367
Encoding: 9063 9063 31
Width: 1352
GlyphClass: 1
Flags: HW
LayerCount: 2
Fore
SplineSet
716 -166 m 1
 716 113 l 1
 311 135 103 332 103 698 c 0
 103 1064 311 1261 716 1283 c 1
 716 1563 l 1
 860 1563 l 1
 860 1285 l 1
 1249 1285 l 1
 1249 1142 l 1
 860 1142 l 1
 860 255 l 1
 1249 255 l 1
 1249 111 l 1
 860 111 l 1
 860 -166 l 1
 716 -166 l 1
247 698 m 0
 247 421 402 277 716 257 c 1
 716 1140 l 1
 402 1120 247 975 247 698 c 0
EndSplineSet
EndChar

StartChar: uni2345
Encoding: 9029 9029 32
Width: 1424
GlyphClass: 1
Flags: HW
LayerCount: 2
Fore
SplineSet
690 0 m 1
 690 656 l 1
 385 656 l 1
 419 439 l 1
 103 723 l 1
 419 1006 l 1
 385 791 l 1
 690 791 l 1
 690 1445 l 1
 834 1445 l 1
 834 791 l 1
 1322 791 l 1
 1322 656 l 1
 834 656 l 1
 834 0 l 1
 690 0 l 1
EndSplineSet
EndChar

StartChar: uni2375
Encoding: 9077 9077 33
Width: 1582
GlyphClass: 1
Flags: HW
LayerCount: 2
Fore
SplineSet
500 -20 m 0
 259 -20 113 188 113 526 c 0
 113 739 152 901 233 1085 c 1
 415 1085 l 1
 328 889 291 732 291 524 c 0
 291 273 372 128 512 128 c 0
 635 128 706 225 706 391 c 2
 706 696 l 1
 876 696 l 1
 876 391 l 2
 876 221 946 128 1069 128 c 0
 1207 128 1291 261 1291 524 c 0
 1291 730 1255 891 1168 1085 c 1
 1350 1085 l 1
 1437 883 1469 728 1469 526 c 0
 1469 182 1322 -20 1083 -20 c 0
 937 -20 842 41 795 162 c 1
 785 162 l 1
 742 41 648 -20 500 -20 c 0
EndSplineSet
EndChar

StartChar: uni2379
Encoding: 9081 9081 34
Width: 1582
GlyphClass: 1
Flags: HW
LayerCount: 2
Fore
SplineSet
500 -20 m 0
 259 -20 113 188 113 526 c 0
 113 739 152 901 233 1085 c 1
 415 1085 l 1
 328 889 291 732 291 524 c 0
 291 273 372 128 512 128 c 0
 635 128 706 225 706 391 c 2
 706 696 l 1
 876 696 l 1
 876 391 l 2
 876 221 946 128 1069 128 c 0
 1207 128 1291 261 1291 524 c 0
 1291 730 1255 891 1168 1085 c 1
 1350 1085 l 1
 1437 883 1469 728 1469 526 c 0
 1469 182 1322 -20 1083 -20 c 0
 937 -20 842 41 795 162 c 1
 785 162 l 1
 742 41 648 -20 500 -20 c 0
83 -302 m 1
 83 -158 l 1
 1500 -158 l 1
 1500 -302 l 1
 83 -302 l 1
EndSplineSet
EndChar

StartChar: uni2395
Encoding: 9109 9109 35
Width: 1473
GlyphClass: 1
Flags: HW
LayerCount: 2
Fore
SplineSet
160 -206 m 1
 160 1652 l 1
 1314 1652 l 1
 1314 -206 l 1
 160 -206 l 1
304 -63 m 1
 1170 -63 l 1
 1170 1508 l 1
 304 1508 l 1
 304 -63 l 1
EndSplineSet
EndChar

StartChar: uni2342
Encoding: 9026 9026 36
Width: 1473
GlyphClass: 1
Flags: HW
LayerCount: 2
Fore
SplineSet
160 -206 m 1
 160 1652 l 1
 1314 1652 l 1
 1314 -206 l 1
 160 -206 l 1
1170 1508 m 1
 370 1508 l 1
 1170 113 l 1
 1170 1508 l 1
304 -63 m 1
 1103 -63 l 1
 304 1332 l 1
 304 -63 l 1
EndSplineSet
EndChar

StartChar: uni233C
Encoding: 9020 9020 37
Width: 1473
GlyphClass: 1
Flags: HW
LayerCount: 2
Fore
SplineSet
160 -206 m 1
 160 1652 l 1
 1314 1652 l 1
 1314 -206 l 1
 160 -206 l 1
737 1299 m 0
 909 1299 1065 1222 1170 1103 c 1
 1170 1508 l 1
 304 1508 l 1
 304 1103 l 1
 409 1222 565 1299 737 1299 c 0
737 289 m 0
 976 289 1170 486 1170 723 c 0
 1170 962 976 1156 737 1156 c 0
 498 1156 304 962 304 723 c 0
 304 484 498 289 737 289 c 0
304 -63 m 1
 1170 -63 l 1
 1170 342 l 1
 1065 223 909 146 737 146 c 0
 565 146 409 223 304 342 c 1
 304 -63 l 1
EndSplineSet
EndChar

StartChar: uni2360
Encoding: 9056 9056 38
Width: 1473
GlyphClass: 1
Flags: HW
LayerCount: 2
Fore
SplineSet
160 -206 m 1
 160 1652 l 1
 1314 1652 l 1
 1314 -206 l 1
 160 -206 l 1
304 -63 m 1
 1170 -63 l 1
 1170 1508 l 1
 304 1508 l 1
 304 -63 l 1
737 909 m 0
 670 909 611 963 611 1034 c 0
 611 1103 668 1160 737 1160 c 0
 804 1160 862 1103 862 1034 c 0
 862 963 804 909 737 909 c 0
737 285 m 0
 668 285 611 342 611 411 c 0
 611 478 668 536 737 536 c 0
 804 536 862 478 862 411 c 0
 862 342 804 285 737 285 c 0
EndSplineSet
EndChar

StartChar: uni2354
Encoding: 9044 9044 39
Width: 1473
GlyphClass: 1
Flags: HW
LayerCount: 2
Fore
SplineSet
160 -206 m 1
 160 1652 l 1
 1314 1652 l 1
 1314 -206 l 1
 160 -206 l 1
304 1508 m 1
 304 1267 l 1
 1170 1267 l 1
 1170 1508 l 1
 304 1508 l 1
737 318 m 1
 1010 1131 l 1
 463 1131 l 1
 737 318 l 1
304 -63 m 1
 1170 -63 l 1
 1170 1180 l 1
 808 130 l 1
 666 130 l 1
 304 1180 l 1
 304 -63 l 1
EndSplineSet
EndChar

StartChar: uni234D
Encoding: 9037 9037 40
Width: 1473
GlyphClass: 1
Flags: HW
LayerCount: 2
Fore
SplineSet
160 -206 m 1
 160 1652 l 1
 1314 1652 l 1
 1314 -206 l 1
 160 -206 l 1
1170 1508 m 1
 304 1508 l 1
 304 217 l 1
 666 1267 l 1
 808 1267 l 1
 1170 217 l 1
 1170 1508 l 1
463 265 m 1
 1010 265 l 1
 737 1079 l 1
 463 265 l 1
304 -63 m 1
 1170 -63 l 1
 1170 130 l 1
 304 130 l 1
 304 -63 l 1
EndSplineSet
EndChar

StartChar: uni233A
Encoding: 9018 9018 41
Width: 1473
GlyphClass: 1
Flags: HW
LayerCount: 2
Fore
SplineSet
160 -206 m 1
 160 1652 l 1
 1314 1652 l 1
 1314 -206 l 1
 160 -206 l 1
304 -63 m 1
 1170 -63 l 1
 1170 1508 l 1
 304 1508 l 1
 304 -63 l 1
737 296 m 1
 310 723 l 1
 737 1150 l 1
 1164 723 l 1
 737 296 l 1
737 453 m 1
 1006 723 l 1
 737 992 l 1
 468 723 l 1
 737 453 l 1
EndSplineSet
EndChar

StartChar: uni2339
Encoding: 9017 9017 42
Width: 1473
GlyphClass: 1
Flags: HW
LayerCount: 2
Fore
SplineSet
160 -206 m 1
 160 1652 l 1
 1314 1652 l 1
 1314 -206 l 1
 160 -206 l 1
304 -63 m 1
 1170 -63 l 1
 1170 1508 l 1
 304 1508 l 1
 304 -63 l 1
737 921 m 0
 666 921 623 969 623 1044 c 0
 623 1125 662 1166 737 1166 c 0
 808 1166 848 1125 848 1044 c 0
 848 969 808 921 737 921 c 0
338 652 m 1
 338 795 l 1
 1135 795 l 1
 1135 652 l 1
 338 652 l 1
737 281 m 0
 666 281 623 330 623 405 c 0
 623 486 662 526 737 526 c 0
 810 526 848 486 848 405 c 0
 848 330 808 281 737 281 c 0
EndSplineSet
EndChar

StartChar: uni2357
Encoding: 9047 9047 43
Width: 1473
GlyphClass: 1
Flags: HW
LayerCount: 2
Fore
SplineSet
160 -206 m 1
 160 1652 l 1
 1314 1652 l 1
 1314 -206 l 1
 160 -206 l 1
304 -63 m 1
 1170 -63 l 1
 1170 1508 l 1
 810 1508 l 1
 810 251 l 1
 1063 291 l 1
 739 -61 l 1
 415 291 l 1
 666 251 l 1
 666 1508 l 1
 304 1508 l 1
 304 -63 l 1
EndSplineSet
EndChar

StartChar: uni234C
Encoding: 9036 9036 44
Width: 1473
GlyphClass: 1
Flags: HW
LayerCount: 2
Fore
SplineSet
160 -206 m 1
 160 1652 l 1
 1314 1652 l 1
 1314 -206 l 1
 160 -206 l 1
304 1508 m 1
 304 1093 l 1
 737 419 l 1
 1170 1093 l 1
 1170 1508 l 1
 304 1508 l 1
304 -63 m 1
 1170 -63 l 1
 1170 846 l 1
 785 241 l 1
 688 241 l 1
 304 846 l 1
 304 -63 l 1
EndSplineSet
EndChar

StartChar: uni2338
Encoding: 9016 9016 45
Width: 1473
GlyphClass: 1
Flags: HW
LayerCount: 2
Fore
SplineSet
160 -206 m 1
 160 1652 l 1
 1314 1652 l 1
 1314 -206 l 1
 160 -206 l 1
304 -63 m 1
 1170 -63 l 1
 1170 1508 l 1
 304 1508 l 1
 304 -63 l 1
338 854 m 1
 338 998 l 1
 1135 998 l 1
 1135 854 l 1
 338 854 l 1
338 447 m 1
 338 591 l 1
 1135 591 l 1
 1135 447 l 1
 338 447 l 1
EndSplineSet
EndChar

StartChar: uni2344
Encoding: 9028 9028 46
Width: 1473
GlyphClass: 1
Flags: HW
LayerCount: 2
Fore
SplineSet
160 -206 m 1
 160 1652 l 1
 1314 1652 l 1
 1314 -206 l 1
 160 -206 l 1
304 1508 m 1
 304 1117 l 1
 1170 771 l 1
 1170 1508 l 1
 304 1508 l 1
931 723 m 1
 304 961 l 1
 304 484 l 1
 931 723 l 1
304 -63 m 1
 1170 -63 l 1
 1170 674 l 1
 304 328 l 1
 304 -63 l 1
EndSplineSet
EndChar

StartChar: uni233B
Encoding: 9019 9019 47
Width: 1473
GlyphClass: 1
Flags: HW
LayerCount: 2
Fore
SplineSet
160 -206 m 1
 160 1652 l 1
 1314 1652 l 1
 1314 -206 l 1
 160 -206 l 1
304 -63 m 1
 1170 -63 l 1
 1170 1508 l 1
 304 1508 l 1
 304 -63 l 1
737 383 m 0
 549 383 397 537 397 723 c 0
 397 909 549 1063 737 1063 c 0
 923 1063 1077 913 1077 723 c 0
 1077 537 923 383 737 383 c 0
737 510 m 0
 852 510 949 604 949 723 c 0
 949 842 852 935 737 935 c 0
 620 935 524 840 524 723 c 0
 524 606 620 510 737 510 c 0
EndSplineSet
EndChar

StartChar: uni2347
Encoding: 9031 9031 48
Width: 1473
GlyphClass: 1
Flags: HW
LayerCount: 2
Fore
SplineSet
160 -206 m 1
 160 1652 l 1
 1314 1652 l 1
 1314 -206 l 1
 160 -206 l 1
304 -63 m 1
 1170 -63 l 1
 1170 652 l 1
 617 652 l 1
 658 399 l 1
 306 723 l 1
 658 1046 l 1
 617 795 l 1
 1170 795 l 1
 1170 1508 l 1
 304 1508 l 1
 304 -63 l 1
EndSplineSet
EndChar

StartChar: uni2343
Encoding: 9027 9027 49
Width: 1473
GlyphClass: 1
Flags: HW
LayerCount: 2
Fore
SplineSet
160 -206 m 1
 160 1652 l 1
 1314 1652 l 1
 1314 -206 l 1
 160 -206 l 1
304 1508 m 1
 304 771 l 1
 1170 1117 l 1
 1170 1508 l 1
 304 1508 l 1
542 723 m 1
 1170 484 l 1
 1170 961 l 1
 542 723 l 1
304 -63 m 1
 1170 -63 l 1
 1170 328 l 1
 304 674 l 1
 304 -63 l 1
EndSplineSet
EndChar

StartChar: uni236F
Encoding: 9071 9071 50
Width: 1473
GlyphClass: 1
Flags: HW
LayerCount: 2
Fore
SplineSet
160 -206 m 1
 160 1652 l 1
 1314 1652 l 1
 1314 -206 l 1
 160 -206 l 1
304 -63 m 1
 1170 -63 l 1
 1170 1508 l 1
 304 1508 l 1
 304 -63 l 1
360 449 m 1
 360 593 l 1
 603 593 l 1
 702 852 l 1
 360 852 l 1
 360 996 l 1
 757 996 l 1
 854 1249 l 1
 978 1196 l 1
 901 996 l 1
 1113 996 l 1
 1113 852 l 1
 846 852 l 1
 747 593 l 1
 1113 593 l 1
 1113 449 l 1
 690 449 l 1
 599 210 l 1
 476 263 l 1
 546 449 l 1
 360 449 l 1
EndSplineSet
EndChar

StartChar: uni2370
Encoding: 9072 9072 51
Width: 1473
GlyphClass: 1
Flags: HW
LayerCount: 2
Fore
SplineSet
160 -206 m 1
 160 1652 l 1
 1314 1652 l 1
 1314 -206 l 1
 160 -206 l 1
304 -63 m 1
 1170 -63 l 1
 1170 1508 l 1
 304 1508 l 1
 304 -63 l 1
623 500 m 1
 623 538 l 2
 623 692 713 761 808 834 c 0
 859 872 880 923 880 982 c 0
 880 1059 817 1109 710 1109 c 0
 619 1109 551 1080 490 1052 c 1
 445 1160 l 1
 530 1207 622 1229 721 1229 c 0
 899 1229 1016 1132 1016 986 c 0
 1016 891 985 828 880 741 c 0
 773 652 741 615 741 524 c 2
 741 500 l 1
 623 500 l 1
694 200 m 0
 643 200 607 226 607 293 c 0
 607 356 635 389 694 389 c 0
 749 389 777 356 777 293 c 0
 777 226 741 200 694 200 c 0
EndSplineSet
EndChar

StartChar: uni2348
Encoding: 9032 9032 52
Width: 1473
GlyphClass: 1
Flags: HW
LayerCount: 2
Fore
SplineSet
160 -206 m 1
 160 1652 l 1
 1314 1652 l 1
 1314 -206 l 1
 160 -206 l 1
304 -63 m 1
 1170 -63 l 1
 1170 1508 l 1
 304 1508 l 1
 304 795 l 1
 856 795 l 1
 816 1046 l 1
 1168 723 l 1
 816 399 l 1
 856 652 l 1
 304 652 l 1
 304 -63 l 1
EndSplineSet
EndChar

StartChar: uni2341
Encoding: 9025 9025 53
Width: 1473
GlyphClass: 1
Flags: HW
LayerCount: 2
Fore
SplineSet
160 -206 m 1
 160 1652 l 1
 1314 1652 l 1
 1314 -206 l 1
 160 -206 l 1
304 1508 m 1
 304 113 l 1
 1103 1508 l 1
 304 1508 l 1
1170 -63 m 1
 1170 1332 l 1
 370 -63 l 1
 1170 -63 l 1
EndSplineSet
EndChar

StartChar: uni2350
Encoding: 9040 9040 54
Width: 1473
GlyphClass: 1
Flags: HW
LayerCount: 2
Fore
SplineSet
160 -206 m 1
 160 1652 l 1
 1314 1652 l 1
 1314 -206 l 1
 160 -206 l 1
304 -63 m 1
 666 -63 l 1
 666 1194 l 1
 415 1154 l 1
 739 1506 l 1
 1063 1154 l 1
 810 1194 l 1
 810 -63 l 1
 1170 -63 l 1
 1170 1508 l 1
 304 1508 l 1
 304 -63 l 1
EndSplineSet
EndChar

StartChar: uni2353
Encoding: 9043 9043 55
Width: 1473
GlyphClass: 1
Flags: HW
LayerCount: 2
Fore
SplineSet
160 -206 m 1
 160 1652 l 1
 1314 1652 l 1
 1314 -206 l 1
 160 -206 l 1
785 1204 m 1
 1170 599 l 1
 1170 1508 l 1
 304 1508 l 1
 304 599 l 1
 688 1204 l 1
 785 1204 l 1
304 -63 m 1
 1170 -63 l 1
 1170 352 l 1
 737 1026 l 1
 304 352 l 1
 304 -63 l 1
EndSplineSet
EndChar

StartChar: uni235E
Encoding: 9054 9054 56
Width: 1473
GlyphClass: 1
Flags: HW
LayerCount: 2
Fore
SplineSet
160 -206 m 1
 160 1652 l 1
 1314 1652 l 1
 1314 -206 l 1
 160 -206 l 1
304 -63 m 1
 1170 -63 l 1
 1170 1508 l 1
 304 1508 l 1
 304 -63 l 1
682 905 m 1
 642 1427 l 1
 834 1427 l 1
 793 905 l 1
 682 905 l 1
EndSplineSet
EndChar

StartChar: uni2358
Encoding: 9048 9048 57
Width: 890
GlyphClass: 1
Flags: HW
LayerCount: 2
Fore
SplineSet
391 923 m 1
 350 1445 l 1
 542 1445 l 1
 502 923 l 1
 391 923 l 1
103 -302 m 1
 103 -158 l 1
 787 -158 l 1
 787 -302 l 1
 103 -302 l 1
EndSplineSet
EndChar

StartChar: uni2374
Encoding: 9076 9076 58
Width: 1224
GlyphClass: 1
Flags: HW
LayerCount: 2
Fore
SplineSet
160 -486 m 1
 160 557 l 2
 160 905 332 1105 644 1105 c 0
 931 1105 1113 890 1113 542 c 0
 1113 184 938 -20 634 -20 c 0
 519 -20 421 10 340 71 c 1
 330 71 l 1
 338 26 340 -62 340 -198 c 2
 340 -486 l 1
 160 -486 l 1
631 128 m 0
 839 128 931 263 931 542 c 0
 931 819 842 955 636 955 c 0
 434 955 340 822 340 555 c 2
 340 227 l 1
 417 160 514 128 631 128 c 0
EndSplineSet
EndChar

StartChar: uni2346
Encoding: 9030 9030 59
Width: 1424
GlyphClass: 1
Flags: HW
LayerCount: 2
Fore
SplineSet
591 0 m 1
 591 656 l 1
 103 656 l 1
 103 791 l 1
 591 791 l 1
 591 1445 l 1
 735 1445 l 1
 735 791 l 1
 1040 791 l 1
 1006 1006 l 1
 1322 723 l 1
 1006 439 l 1
 1040 656 l 1
 735 656 l 1
 735 0 l 1
 591 0 l 1
EndSplineSet
EndChar

StartChar: uni236E
Encoding: 9070 9070 60
Width: 890
GlyphClass: 1
Flags: HW
LayerCount: 2
Fore
SplineSet
494 763 m 0
 421 763 364 806 364 903 c 0
 364 998 419 1042 494 1042 c 0
 565 1042 621 998 621 903 c 0
 621 806 565 763 494 763 c 0
310 0 m 1
 340 128 369 269 391 429 c 1
 581 429 l 1
 595 407 l 1
 567 302 538 210 443 0 c 1
 310 0 l 1
103 -302 m 1
 103 -158 l 1
 787 -158 l 1
 787 -302 l 1
 103 -302 l 1
EndSplineSet
EndChar

StartChar: uni233F
Encoding: 9023 9023 61
Width: 1090
GlyphClass: 1
Flags: HW
LayerCount: 2
Fore
SplineSet
148 -223 m 1
 443 542 l 1
 103 542 l 1
 103 678 l 1
 496 678 l 1
 791 1443 l 1
 943 1443 l 1
 648 678 l 1
 988 678 l 1
 988 542 l 1
 595 542 l 1
 300 -223 l 1
 148 -223 l 1
EndSplineSet
EndChar

StartChar: uni2337
Encoding: 9015 9015 62
Width: 1020
GlyphClass: 1
Flags: HW
LayerCount: 2
Fore
SplineSet
160 -206 m 1
 160 1652 l 1
 860 1652 l 1
 860 -206 l 1
 160 -206 l 1
304 -63 m 1
 716 -63 l 1
 716 1508 l 1
 304 1508 l 1
 304 -63 l 1
EndSplineSet
EndChar

StartChar: uni2363
Encoding: 9059 9059 63
Width: 1060
GlyphClass: 1
Flags: HW
LayerCount: 2
Fore
SplineSet
318 1186 m 0
 261 1186 217 1228 217 1287 c 0
 217 1344 261 1388 318 1388 c 0
 377 1388 419 1344 419 1287 c 0
 419 1228 377 1186 318 1186 c 0
743 1186 m 0
 684 1186 642 1228 642 1287 c 0
 642 1344 684 1388 743 1388 c 0
 800 1388 844 1344 844 1287 c 0
 844 1228 800 1186 743 1186 c 0
348 306 m 1
 217 401 l 1
 409 656 l 1
 103 751 l 1
 154 905 l 1
 455 799 l 1
 449 1119 l 1
 611 1119 l 1
 605 799 l 1
 907 905 l 1
 957 751 l 1
 652 656 l 1
 844 401 l 1
 712 306 l 1
 530 569 l 1
 348 306 l 1
EndSplineSet
EndChar

StartChar: uni236D
Encoding: 9069 9069 64
Width: 1530
GlyphClass: 1
Flags: HW
LayerCount: 2
Fore
SplineSet
103 595 m 1
 103 747 l 1
 200 830 307 866 461 866 c 0
 556 866 629 854 694 834 c 1
 694 1563 l 1
 838 1563 l 1
 838 783 l 1
 911 757 988 739 1091 739 c 0
 1221 739 1308 771 1427 866 c 1
 1427 716 l 1
 1330 633 1225 595 1069 595 c 0
 976 595 903 609 838 627 c 1
 838 -166 l 1
 694 -166 l 1
 694 680 l 1
 619 706 544 725 439 725 c 0
 309 725 224 694 103 595 c 1
EndSplineSet
EndChar

StartChar: uni2368
Encoding: 9064 9064 65
Width: 1530
GlyphClass: 1
Flags: HW
LayerCount: 2
Fore
SplineSet
553 1186 m 0
 496 1186 451 1228 451 1287 c 0
 451 1344 496 1388 553 1388 c 0
 612 1388 654 1344 654 1287 c 0
 654 1228 612 1186 553 1186 c 0
978 1186 m 0
 919 1186 876 1228 876 1287 c 0
 876 1344 919 1388 978 1388 c 0
 1035 1388 1079 1344 1079 1287 c 0
 1079 1228 1035 1186 978 1186 c 0
103 595 m 1
 103 747 l 1
 200 830 307 866 461 866 c 0
 603 866 694 838 787 802 c 0
 876 768 963 739 1091 739 c 0
 1221 739 1308 771 1427 866 c 1
 1427 716 l 1
 1330 633 1225 595 1069 595 c 0
 927 595 834 626 743 662 c 0
 652 698 567 725 439 725 c 0
 309 725 224 694 103 595 c 1
EndSplineSet
EndChar

StartChar: uni2372
Encoding: 9074 9074 66
Width: 1530
GlyphClass: 1
Flags: HW
LayerCount: 2
Fore
SplineSet
103 251 m 1
 405 725 l 1
 294 719 214 686 103 595 c 1
 103 747 l 1
 200 830 307 866 461 866 c 0
 473 866 484 866 496 866 c 1
 716 1212 l 1
 814 1212 l 1
 1115 739 l 1
 1232 743 1316 777 1427 866 c 1
 1427 716 l 1
 1360 659 1289 623 1200 607 c 1
 1427 251 l 1
 1267 251 l 1
 1046 595 l 1
 916 599 830 628 743 662 c 0
 684 686 628 704 561 714 c 1
 263 251 l 1
 103 251 l 1
787 802 m 0
 838 782 888 765 945 753 c 1
 765 1034 l 1
 646 846 l 1
 697 836 740 820 787 802 c 0
EndSplineSet
EndChar

StartChar: uni235D
Encoding: 9053 9053 67
Width: 1408
GlyphClass: 1
Flags: HW
LayerCount: 2
Fore
SplineSet
103 0 m 1
 103 878 l 2
 103 1261 313 1467 704 1467 c 0
 1095 1467 1305 1261 1305 878 c 2
 1305 0 l 1
 1162 0 l 1
 1162 878 l 2
 1162 1171 1006 1322 704 1322 c 0
 400 1322 247 1171 247 878 c 2
 247 0 l 1
 103 0 l 1
704 538 m 0
 524 538 378 686 378 864 c 0
 378 1044 524 1190 704 1190 c 0
 880 1190 1030 1044 1030 864 c 0
 1030 686 884 538 704 538 c 0
704 662 m 0
 817 662 907 757 907 864 c 0
 907 971 817 1067 704 1067 c 0
 593 1067 502 975 502 864 c 0
 502 753 591 662 704 662 c 0
EndSplineSet
EndChar

StartChar: uni2361
Encoding: 9057 9057 68
Width: 1530
GlyphClass: 1
Flags: HW
LayerCount: 2
Fore
SplineSet
553 1494 m 0
 496 1494 451 1538 451 1595 c 0
 451 1654 496 1696 553 1696 c 0
 610 1696 654 1654 654 1595 c 0
 654 1536 608 1494 553 1494 c 0
976 1494 m 0
 919 1494 874 1538 874 1595 c 0
 874 1654 919 1696 976 1696 c 0
 1033 1696 1077 1654 1077 1595 c 0
 1077 1536 1031 1494 976 1494 c 0
694 53 m 1
 694 1233 l 1
 103 1233 l 1
 103 1376 l 1
 1427 1376 l 1
 1427 1233 l 1
 838 1233 l 1
 838 53 l 1
 694 53 l 1
EndSplineSet
EndChar

StartChar: uni2355
Encoding: 9045 9045 69
Width: 1530
GlyphClass: 1
Flags: HW
LayerCount: 2
Fore
SplineSet
694 53 m 1
 694 391 l 1
 540 423 425 561 425 723 c 0
 425 885 540 1023 694 1055 c 1
 694 1233 l 1
 103 1233 l 1
 103 1376 l 1
 1427 1376 l 1
 1427 1233 l 1
 838 1233 l 1
 838 1055 l 1
 990 1023 1105 887 1105 723 c 0
 1105 561 990 425 838 391 c 1
 838 53 l 1
 694 53 l 1
553 723 m 0
 553 630 611 550 694 522 c 1
 694 923 l 1
 611 895 553 816 553 723 c 0
978 723 m 0
 978 816 919 893 838 923 c 1
 838 522 l 1
 919 552 978 630 978 723 c 0
EndSplineSet
EndChar

StartChar: uni2351
Encoding: 9041 9041 70
Width: 1530
GlyphClass: 1
Flags: HW
LayerCount: 2
Fore
SplineSet
103 1534 m 1
 103 1678 l 1
 1425 1678 l 1
 1425 1534 l 1
 103 1534 l 1
694 53 m 1
 694 1233 l 1
 103 1233 l 1
 103 1376 l 1
 1427 1376 l 1
 1427 1233 l 1
 838 1233 l 1
 838 53 l 1
 694 53 l 1
EndSplineSet
EndChar

StartChar: uni234F
Encoding: 9039 9039 71
Width: 1414
GlyphClass: 1
Flags: HW
LayerCount: 2
Fore
SplineSet
636 0 m 1
 636 690 l 1
 103 690 l 1
 103 834 l 1
 636 834 l 1
 636 1164 l 1
 421 1129 l 1
 708 1445 l 1
 996 1129 l 1
 779 1164 l 1
 779 834 l 1
 1312 834 l 1
 1312 690 l 1
 779 690 l 1
 779 0 l 1
 636 0 l 1
EndSplineSet
EndChar

StartChar: uni236C
Encoding: 9068 9068 72
Width: 1530
GlyphClass: 1
Flags: HW
LayerCount: 2
Fore
SplineSet
103 595 m 1
 103 747 l 1
 160 796 220 828 291 846 c 1
 317 1255 478 1469 765 1469 c 0
 1071 1469 1235 1225 1243 759 c 1
 1304 779 1360 813 1427 866 c 1
 1427 716 l 1
 1370 667 1312 635 1241 615 c 1
 1217 198 1054 -20 765 -20 c 0
 455 -20 291 228 287 704 c 1
 228 684 172 650 103 595 c 1
787 802 m 0
 870 770 952 743 1065 739 c 1
 1063 1144 971 1318 765 1318 c 0
 583 1318 490 1180 470 866 c 1
 608 864 696 838 787 802 c 0
765 132 m 0
 951 132 1043 273 1061 595 c 1
 923 597 832 626 743 662 c 0
 658 696 579 721 466 725 c 1
 466 310 557 132 765 132 c 0
EndSplineSet
EndChar

StartChar: u1D400
Encoding: 119808 119808 73
Width: 1315
GlyphClass: 1
Flags: HW
LayerCount: 2
Fore
SplineSet
-26 0 m 1
 -26 55 l 1
 53 55 95 95 148 225 c 2
 621 1405 l 1
 676 1403 l 1
 1158 261 l 2
 1219 115 1251 55 1336 55 c 1
 1336 0 l 1
 690 0 l 1
 690 55 l 1
 799 55 854 83 854 138 c 0
 854 156 844 190 822 245 c 2
 761 399 l 1
 312 399 l 1
 237 213 l 2
 229 193 225 158 225 146 c 0
 225 85 273 55 372 55 c 2
 385 55 l 1
 385 0 l 1
 -26 0 l 1
342 484 m 1
 729 484 l 1
 532 961 l 1
 342 484 l 1
EndSplineSet
EndChar

StartChar: u1D468
Encoding: 119912 119912 74
Width: 1265
GlyphClass: 1
Flags: HW
LayerCount: 2
Fore
SplineSet
-204 0 m 1
 -204 51 l 1
 -141 51 -89 83 -38 144 c 2
 974 1390 l 1
 1030 1390 l 1
 984 267 l 1
 984 239 l 2
 984 118 1047 55 1170 51 c 1
 1170 0 l 1
 536 0 l 1
 536 51 l 1
 680 61 712 146 714 261 c 2
 719 423 l 1
 291 423 l 1
 148 243 l 2
 103 186 83 143 83 121 c 0
 83 83 128 59 215 51 c 1
 215 0 l 1
 -204 0 l 1
358 506 m 1
 723 506 l 1
 745 988 l 1
 358 506 l 1
EndSplineSet
EndChar

StartChar: u1D4D0
Encoding: 120016 120016 75
Width: 1489
GlyphClass: 1
Flags: HW
LayerCount: 2
Fore
SplineSet
154 -45 m 0
 2 -45 -85 38 -85 168 c 0
 -85 281 -2 368 115 368 c 0
 202 368 257 324 257 261 c 0
 257 214 216 172 178 162 c 0
 152 156 111 144 89 134 c 0
 65 122 51 109 51 83 c 0
 51 45 93 6 160 6 c 0
 277 6 425 99 605 283 c 1
 538 358 506 433 506 514 c 0
 506 633 595 723 723 723 c 0
 796 723 862 697 921 642 c 1
 1097 834 1263 992 1421 1115 c 0
 1577 1238 1690 1299 1757 1299 c 0
 1781 1299 1793 1293 1793 1279 c 2
 1722 1150 l 2
 1562 859 1393 516 1229 119 c 1
 1304 137 1386 194 1475 283 c 2
 1567 376 l 2
 1680 491 1756 549 1799 549 c 0
 1815 549 1832 546 1844 540 c 1
 1791 508 1723 457 1652 378 c 0
 1581 301 1512 229 1439 170 c 0
 1366 111 1291 69 1200 59 c 1
 1184 22 l 1
 868 -18 l 1
 911 87 l 1
 816 119 731 168 654 233 c 1
 470 47 328 -45 154 -45 c 0
1055 334 m 1
 1211 591 1398 874 1619 1184 c 1
 1471 1097 1257 899 972 587 c 1
 1027 498 1055 415 1055 338 c 2
 1055 334 l 1
656 346 m 1
 870 583 l 1
 844 605 821 617 799 617 c 0
 718 617 640 520 640 429 c 0
 640 399 646 370 656 346 c 1
931 144 m 1
 951 209 961 271 961 332 c 0
 961 411 947 475 917 526 c 1
 702 287 l 1
 783 214 860 166 931 144 c 1
EndSplineSet
EndChar

StartChar: u1D538
Encoding: 120120 120120 76
Width: 1404
GlyphClass: 1
Flags: HW
LayerCount: 2
Fore
SplineSet
0 0 m 1
 546 1445 l 1
 887 1445 l 1
 1405 2 l 1
 1291 2 l 1
 1125 457 l 1
 546 457 l 1
 374 0 l 1
 0 0 l 1
156 107 m 1
 300 107 l 1
 765 1338 l 1
 621 1338 l 1
 156 107 l 1
587 565 m 1
 1087 565 l 1
 842 1243 l 1
 587 565 l 1
EndSplineSet
EndChar

StartChar: u1D434
Encoding: 119860 119860 77
Width: 1396
GlyphClass: 1
Flags: HW
LayerCount: 2
Fore
SplineSet
-255 0 m 1
 -247 38 l 1
 -158 38 -75 81 0 168 c 0
 75 253 431 672 1073 1431 c 1
 1113 1431 l 1
 1063 174 l 2
 1059 77 1111 42 1239 38 c 1
 1233 0 l 1
 666 0 l 1
 674 38 l 1
 690 38 l 2
 820 38 854 81 860 235 c 2
 868 476 l 1
 401 476 l 2
 381 476 362 467 348 451 c 2
 196 271 l 2
 129 190 95 137 95 107 c 0
 95 52 138 38 237 38 c 1
 227 0 l 1
 -255 0 l 1
431 551 m 1
 872 551 l 1
 897 1105 l 1
 431 551 l 1
EndSplineSet
EndChar

StartChar: Alpha
Encoding: 913 913 78
Width: 1293
GlyphClass: 2
Flags: HW
AnchorPoint: "Anchor-1" 656 0 basechar 0
AnchorPoint: "Anchor-0" 644 1445 basechar 0
LayerCount: 2
Fore
SplineSet
0 0 m 1
 565 1451 l 1
 729 1451 l 1
 1291 0 l 1
 1103 0 l 1
 929 447 l 1
 356 447 l 1
 184 0 l 1
 0 0 l 1
417 609 m 1
 874 609 l 1
 712 1046 l 2
 700 1078 658 1212 644 1263 c 1
 624 1180 597 1093 581 1046 c 2
 417 609 l 1
EndSplineSet
EndChar

StartChar: uni20E7
Encoding: 8423 8423 79
Width: 0
GlyphClass: 4
Flags: HW
LayerCount: 2
Fore
SplineSet
636 -176 m 1
 636 1176 l 1
 -716 1176 l 1
 -716 1303 l 1
 763 1303 l 1
 763 -176 l 1
 636 -176 l 1
EndSplineSet
EndChar

StartChar: u1D49C
Encoding: 119964 119964 80
Width: 1449
GlyphClass: 1
Flags: HW
LayerCount: 2
Fore
SplineSet
109 -45 m 0
 -29 -45 -105 35 -105 160 c 0
 -105 271 -34 354 69 354 c 0
 140 354 184 312 184 255 c 0
 184 184 125 156 40 140 c 0
 -3 132 -24 109 -24 75 c 0
 -24 28 28 -14 115 -14 c 0
 247 -14 405 85 593 279 c 1
 526 358 494 435 494 512 c 0
 494 625 573 714 686 714 c 0
 759 714 826 680 889 613 c 1
 1069 815 1241 979 1401 1107 c 0
 1563 1235 1674 1299 1737 1299 c 0
 1741 1299 1745 1297 1745 1289 c 0
 1745 1285 1741 1275 1733 1261 c 0
 1725 1245 1714 1224 1700 1198 c 0
 1526 898 1348 532 1166 97 c 1
 1247 101 1326 146 1407 229 c 0
 1488 312 1560 384 1633 449 c 0
 1704 512 1753 544 1777 544 c 2
 1797 540 l 1
 1738 510 1676 460 1613 389 c 0
 1485 245 1338 79 1148 57 c 1
 1131 20 l 1
 866 -14 l 1
 907 83 l 1
 806 115 710 172 617 253 c 1
 427 59 277 -45 109 -45 c 0
988 223 m 1
 1182 551 1405 891 1658 1241 c 1
 1452 1152 1223 923 913 585 c 1
 970 496 996 413 996 334 c 0
 996 298 992 259 988 223 c 1
617 312 m 1
 702 399 783 490 864 583 c 1
 834 613 801 627 765 627 c 0
 670 627 573 528 573 425 c 0
 573 380 589 342 617 312 c 1
921 117 m 1
 945 192 957 261 957 328 c 0
 957 419 936 494 889 557 c 1
 640 281 l 1
 739 192 832 137 921 117 c 1
EndSplineSet
EndChar

StartChar: B
Encoding: 66 66 81
Width: 1315
GlyphClass: 2
Flags: HW
AnchorPoint: "Anchor-1" 638 0 basechar 0
AnchorPoint: "Anchor-0" 652 1445 basechar 0
LayerCount: 2
Fore
SplineSet
196 0 m 1
 196 1445 l 1
 609 1445 l 2
 969 1445 1158 1350 1158 1087 c 0
 1158 917 1060 799 882 767 c 1
 882 757 l 1
 1064 727 1206 636 1206 411 c 0
 1206 148 1014 0 704 0 c 2
 196 0 l 1
378 830 m 1
 646 830 l 2
 893 830 969 911 969 1067 c 0
 969 1225 862 1289 617 1289 c 2
 378 1289 l 1
 378 830 l 1
378 154 m 1
 670 154 l 2
 925 154 1012 263 1012 425 c 0
 1012 577 923 678 656 678 c 2
 378 678 l 1
 378 154 l 1
EndSplineSet
EndChar

StartChar: u1D505
Encoding: 120069 120069 82
Width: 1667
GlyphClass: 1
Flags: HW
LayerCount: 2
Fore
SplineSet
818 -47 m 0
 784 -47 748 -36 716 -12 c 0
 651 35 352 247 249 247 c 0
 184 247 134 205 134 148 c 0
 134 134 140 111 150 83 c 1
 113 61 l 1
 97 89 89 120 89 148 c 0
 89 257 180 340 318 360 c 0
 456 380 625 459 694 591 c 0
 728 656 747 737 747 834 c 0
 747 1140 606 1314 393 1314 c 0
 247 1314 123 1194 123 1030 c 0
 123 844 269 688 453 676 c 1
 439 629 l 1
 220 655 75 825 75 1044 c 0
 75 1289 242 1467 463 1467 c 0
 619 1467 743 1393 834 1239 c 1
 905 1277 977 1314 1050 1350 c 0
 1121 1386 1192 1426 1263 1471 c 1
 1291 1439 l 1
 1273 1425 1263 1411 1263 1397 c 0
 1263 1365 1340 1229 1397 1160 c 0
 1425 1124 1447 1107 1459 1107 c 0
 1471 1107 1486 1111 1504 1121 c 1
 1524 1087 l 1
 1208 895 l 1
 1445 846 1583 688 1583 478 c 0
 1583 282 1471 111 1210 22 c 0
 1078 -23 950 -47 818 -47 c 0
915 785 m 1
 1170 921 1295 996 1295 1010 c 0
 1295 1038 1109 1301 1083 1301 c 0
 1055 1301 977 1265 854 1194 c 1
 899 1089 921 986 921 887 c 2
 915 785 l 1
1073 47 m 0
 1273 47 1427 195 1427 395 c 0
 1427 612 1255 761 1020 761 c 0
 982 761 945 755 907 741 c 1
 883 599 834 527 745 470 c 0
 698 442 599 401 445 350 c 1
 516 322 589 282 660 231 c 0
 804 128 933 47 1073 47 c 0
EndSplineSet
EndChar

StartChar: u1D56D
Encoding: 120173 120173 83
Width: 1730
GlyphClass: 1
Flags: HW
LayerCount: 2
Fore
SplineSet
824 -45 m 0
 765 -45 711 -30 658 -2 c 2
 352 160 l 2
 320 176 293 186 271 186 c 0
 224 186 200 164 200 119 c 0
 200 99 209 72 225 40 c 1
 152 6 l 1
 101 77 75 141 75 202 c 0
 75 309 174 391 314 411 c 0
 454 431 613 504 696 644 c 0
 736 713 757 802 757 903 c 0
 757 1111 625 1277 441 1277 c 0
 295 1277 170 1168 170 1016 c 0
 170 842 283 736 512 698 c 1
 496 617 l 1
 227 653 81 814 81 1057 c 0
 81 1318 253 1510 504 1510 c 0
 658 1510 802 1431 893 1293 c 1
 962 1327 1034 1365 1113 1403 c 0
 1192 1441 1265 1477 1330 1520 c 1
 1370 1449 l 1
 1350 1433 1342 1421 1342 1407 c 0
 1342 1401 1348 1382 1360 1352 c 0
 1384 1291 1466 1178 1496 1158 c 0
 1512 1146 1524 1142 1532 1142 c 0
 1540 1142 1555 1146 1577 1158 c 1
 1621 1089 l 1
 1346 925 l 1
 1528 866 1646 708 1646 516 c 0
 1646 299 1487 133 1202 32 c 0
 1058 -19 931 -45 824 -45 c 0
978 834 m 1
 1108 901 1173 937 1220 963 c 0
 1265 989 1291 1006 1291 1014 c 0
 1291 1063 1139 1301 1101 1301 c 0
 1087 1301 1030 1273 935 1218 c 1
 971 1137 990 1052 990 963 c 0
 990 916 986 874 978 834 c 1
1137 123 m 0
 1265 123 1362 255 1362 419 c 0
 1362 613 1222 751 1050 751 c 0
 1007 751 973 743 947 729 c 1
 913 614 868 555 797 508 c 0
 759 484 672 446 528 391 c 1
 587 373 682 326 816 245 c 0
 950 164 1056 123 1137 123 c 0
EndSplineSet
EndChar

StartChar: u1D401
Encoding: 119809 119809 84
Width: 1333
GlyphClass: 1
Flags: HW
LayerCount: 2
Fore
SplineSet
49 0 m 1
 49 53 l 1
 187 57 225 101 225 247 c 2
 225 1111 l 2
 225 1283 185 1322 47 1322 c 1
 47 1372 l 1
 664 1372 l 2
 1016 1372 1194 1267 1194 1057 c 0
 1194 891 1085 788 864 745 c 1
 1129 694 1261 579 1261 397 c 0
 1261 146 1062 0 716 0 c 2
 49 0 l 1
549 759 m 1
 567 759 l 2
 784 759 858 830 858 1040 c 0
 858 1222 802 1308 652 1308 c 0
 559 1308 549 1277 549 1178 c 2
 549 759 l 1
668 73 m 0
 844 73 907 168 907 387 c 0
 907 612 820 696 595 696 c 2
 549 696 l 1
 549 196 l 2
 549 103 577 73 668 73 c 0
EndSplineSet
EndChar

StartChar: u1D469
Encoding: 119913 119913 85
Width: 1297
GlyphClass: 1
Flags: HW
LayerCount: 2
Fore
SplineSet
-101 0 m 1
 -101 47 l 1
 24 47 68 79 117 257 c 2
 346 1111 l 2
 356 1147 362 1182 362 1216 c 0
 362 1281 320 1302 221 1310 c 1
 221 1358 l 1
 668 1358 l 2
 878 1358 1026 1334 1115 1287 c 0
 1202 1240 1247 1166 1247 1063 c 0
 1247 889 1121 778 870 723 c 1
 1050 666 1140 565 1140 421 c 0
 1140 200 988 0 516 0 c 2
 -101 0 l 1
605 747 m 0
 832 749 949 884 949 1097 c 0
 949 1227 886 1291 761 1291 c 0
 710 1291 682 1269 670 1222 c 2
 546 751 l 1
 576 747 585 747 605 747 c 0
500 67 m 0
 698 67 832 220 832 449 c 0
 832 605 743 684 565 684 c 2
 530 684 l 1
 405 225 l 2
 395 191 389 160 389 134 c 0
 389 89 425 67 500 67 c 0
EndSplineSet
EndChar

StartChar: u1D4D1
Encoding: 120017 120017 86
Width: 1740
GlyphClass: 1
Flags: HW
LayerCount: 2
Fore
SplineSet
1239 -14 m 0
 1140 -14 1077 36 1077 123 c 0
 1077 228 1228 352 1281 352 c 0
 1295 352 1301 346 1301 334 c 0
 1301 328 1285 313 1253 291 c 0
 1186 246 1140 182 1140 125 c 0
 1140 74 1156 51 1190 51 c 0
 1287 51 1465 304 1465 492 c 0
 1465 524 1461 551 1451 573 c 0
 1441 593 1433 603 1425 603 c 2
 1336 595 l 2
 1312 593 1293 616 1293 636 c 0
 1293 656 1316 674 1340 672 c 2
 1427 662 l 1
 1518 662 1643 820 1643 980 c 0
 1643 1059 1622 1116 1577 1146 c 1
 1452 1093 1382 982 1267 674 c 0
 1152 366 991 164 793 73 c 0
 694 26 582 4 457 4 c 0
 240 4 111 101 111 239 c 0
 111 346 199 427 312 427 c 0
 399 427 455 381 455 318 c 0
 455 255 405 219 358 213 c 0
 336 211 314 208 296 204 c 0
 274 200 257 186 257 160 c 0
 257 105 330 57 443 57 c 0
 550 57 650 115 739 253 c 0
 784 322 842 423 915 557 c 0
 1061 822 1180 962 1318 1069 c 0
 1387 1122 1453 1160 1520 1182 c 1
 1455 1206 1366 1218 1255 1218 c 0
 1002 1218 715 1107 549 957 c 0
 464 880 423 808 423 735 c 0
 423 656 466 617 551 617 c 0
 697 617 948 842 976 1014 c 0
 980 1042 986 1057 992 1057 c 0
 1012 1057 1024 1026 1024 965 c 0
 1024 724 822 532 587 532 c 0
 441 532 362 622 362 741 c 0
 362 895 552 1083 852 1188 c 0
 1002 1241 1145 1267 1281 1267 c 0
 1413 1267 1522 1246 1613 1208 c 1
 1676 1224 1719 1233 1743 1233 c 0
 1765 1233 1775 1226 1775 1214 c 0
 1775 1204 1763 1198 1741 1192 c 2
 1680 1174 l 1
 1783 1134 1872 1050 1872 939 c 0
 1872 820 1745 702 1500 631 c 1
 1636 582 1702 500 1702 381 c 0
 1702 191 1472 -14 1239 -14 c 0
EndSplineSet
EndChar

StartChar: u1D539
Encoding: 120121 120121 87
Width: 1360
GlyphClass: 1
Flags: HW
LayerCount: 2
Fore
SplineSet
156 0 m 1
 156 1445 l 1
 810 1445 l 2
 1118 1445 1249 1328 1249 1071 c 0
 1249 893 1176 787 1026 757 c 1
 1176 710 1249 593 1249 411 c 0
 1249 138 1103 0 810 0 c 2
 156 0 l 1
263 107 m 1
 399 107 l 1
 399 1338 l 1
 263 1338 l 1
 263 107 l 1
506 808 m 1
 844 808 l 1
 844 1338 l 1
 506 1338 l 1
 506 808 l 1
951 812 m 1
 1058 832 1142 909 1142 1071 c 0
 1142 1215 1095 1308 951 1332 c 1
 951 812 l 1
506 107 m 1
 844 107 l 1
 844 704 l 1
 506 704 l 1
 506 107 l 1
951 117 m 1
 1083 141 1142 257 1142 409 c 0
 1142 575 1079 672 951 700 c 1
 951 117 l 1
EndSplineSet
EndChar

StartChar: Beta
Encoding: 914 914 88
Width: 1315
GlyphClass: 2
Flags: HW
AnchorPoint: "Anchor-1" 658 0 basechar 0
AnchorPoint: "Anchor-0" 658 1445 basechar 0
LayerCount: 2
Fore
SplineSet
196 0 m 1
 196 1445 l 1
 609 1445 l 2
 969 1445 1158 1350 1158 1087 c 0
 1158 917 1060 799 882 767 c 1
 882 757 l 1
 1064 727 1206 636 1206 411 c 0
 1206 148 1014 0 704 0 c 2
 196 0 l 1
378 830 m 1
 646 830 l 2
 893 830 969 911 969 1067 c 0
 969 1225 862 1289 617 1289 c 2
 378 1289 l 1
 378 830 l 1
378 154 m 1
 670 154 l 2
 925 154 1012 263 1012 425 c 0
 1012 577 923 678 656 678 c 2
 378 678 l 1
 378 154 l 1
EndSplineSet
EndChar

StartChar: u1D435
Encoding: 119861 119861 89
Width: 1321
GlyphClass: 1
Flags: HW
LayerCount: 2
Fore
SplineSet
-101 0 m 1
 -91 40 l 1
 -81 40 l 2
 44 40 92 85 128 219 c 2
 378 1160 l 2
 390 1203 397 1239 397 1265 c 0
 397 1332 352 1354 245 1360 c 1
 255 1401 l 1
 771 1401 l 2
 1081 1401 1237 1299 1237 1099 c 0
 1237 935 1124 822 895 757 c 1
 1055 702 1133 595 1133 437 c 0
 1133 170 886 0 516 0 c 2
 -101 0 l 1
581 779 m 0
 874 779 1024 901 1024 1111 c 0
 1024 1259 937 1332 767 1332 c 0
 637 1332 631 1316 605 1237 c 0
 591 1197 553 1055 492 812 c 0
 492 798 500 789 512 785 c 0
 524 781 549 779 581 779 c 0
461 63 m 0
 750 63 907 210 907 457 c 0
 907 635 802 714 585 714 c 0
 502 714 463 715 451 670 c 2
 330 219 l 2
 324 193 316 154 316 134 c 0
 316 75 358 63 461 63 c 0
EndSplineSet
EndChar

StartChar: uni212C
Encoding: 8492 8492 90
Width: 1696
GlyphClass: 1
Flags: HW
LayerCount: 2
Fore
SplineSet
310 -18 m 0
 37 -18 4 168 4 277 c 0
 4 384 81 470 172 470 c 0
 269 470 300 400 300 360 c 0
 300 273 249 241 190 233 c 0
 131 225 79 237 79 174 c 0
 79 152 95 18 291 18 c 0
 542 18 670 288 834 642 c 0
 917 822 1012 994 1127 1142 c 0
 1163 1189 1230 1263 1281 1310 c 0
 1315 1342 1358 1375 1407 1401 c 1
 1350 1421 1277 1429 1184 1429 c 0
 937 1429 704 1342 591 1275 c 0
 512 1228 259 1077 259 850 c 0
 259 739 314 686 387 686 c 0
 573 686 822 951 822 1293 c 1
 852 1293 l 1
 864 1248 878 1180 878 1105 c 0
 878 905 704 640 443 640 c 0
 303 640 221 710 221 850 c 0
 221 1083 470 1246 571 1305 c 0
 723 1394 939 1465 1184 1465 c 0
 1291 1465 1382 1449 1457 1425 c 1
 1491 1441 1527 1453 1563 1461 c 1
 1579 1427 l 1
 1557 1421 1536 1413 1516 1405 c 1
 1641 1350 1690 1259 1690 1150 c 0
 1690 960 1494 840 1334 767 c 1
 1389 749 1558 672 1558 449 c 0
 1558 241 1287 -18 1079 -18 c 0
 960 -18 931 73 931 138 c 0
 931 178 944 301 1144 437 c 1
 1168 403 l 1
 1087 352 976 243 976 136 c 0
 976 59 1023 28 1057 28 c 0
 1128 28 1202 107 1275 251 c 0
 1324 348 1358 449 1358 599 c 0
 1358 720 1311 741 1291 749 c 1
 1255 731 1202 723 1186 723 c 0
 1164 723 1129 727 1129 751 c 0
 1129 791 1190 795 1212 795 c 0
 1255 795 1287 787 1301 783 c 1
 1382 817 1512 990 1512 1194 c 0
 1512 1251 1508 1327 1453 1376 c 1
 1358 1325 1294 1255 1243 1168 c 0
 1192 1081 1155 979 1123 866 c 0
 1099 781 1072 692 1040 597 c 0
 1026 552 1004 492 984 447 c 0
 863 188 652 -18 310 -18 c 0
EndSplineSet
EndChar

StartChar: C
Encoding: 67 67 91
Width: 1279
GlyphClass: 2
Flags: HW
AnchorPoint: "Anchor-1" 753 0 basechar 0
AnchorPoint: "Anchor-0" 769 1445 basechar 0
LayerCount: 2
Fore
SplineSet
787 -20 m 0
 344 -20 123 270 123 725 c 0
 123 1162 371 1465 818 1465 c 0
 966 1465 1107 1435 1216 1380 c 1
 1144 1227 l 1
 1055 1267 946 1305 816 1305 c 0
 506 1305 316 1085 316 723 c 0
 316 365 482 140 814 140 c 0
 939 140 1051 164 1160 196 c 1
 1160 38 l 1
 1053 -2 947 -20 787 -20 c 0
EndSplineSet
EndChar

StartChar: uni212D
Encoding: 8493 8493 92
Width: 1283
GlyphClass: 1
Flags: HW
LayerCount: 2
Fore
SplineSet
797 -49 m 0
 366 -49 93 273 93 793 c 0
 93 1204 255 1469 514 1469 c 0
 609 1469 701 1413 727 1326 c 1
 757 1362 786 1395 804 1413 c 0
 842 1456 858 1469 872 1469 c 0
 890 1469 1004 1417 1020 1409 c 0
 1065 1387 1097 1370 1133 1362 c 0
 1157 1356 1184 1367 1212 1397 c 1
 1245 1372 l 1
 1202 1321 1168 1271 1142 1239 c 0
 1116 1207 1105 1200 1089 1200 c 0
 1071 1200 1016 1233 939 1271 c 0
 876 1303 846 1314 824 1314 c 0
 796 1314 761 1288 716 1237 c 0
 659 1172 627 1121 627 1095 c 0
 627 1061 641 1028 777 787 c 0
 898 570 915 524 915 484 c 0
 915 437 895 393 668 156 c 1
 719 142 775 136 834 136 c 0
 978 136 1110 170 1225 243 c 1
 1251 208 l 1
 951 -38 l 1
 913 -44 860 -49 797 -49 c 0
239 882 m 0
 239 512 370 267 605 176 c 1
 739 326 753 389 753 425 c 0
 753 490 737 526 583 793 c 0
 492 951 482 982 482 1002 c 0
 482 1022 498 1048 534 1095 c 0
 562 1131 631 1212 694 1287 c 1
 666 1374 599 1423 518 1423 c 0
 358 1423 239 1232 239 882 c 0
EndSplineSet
EndChar

StartChar: u1D402
Encoding: 119810 119810 94
Width: 1410
GlyphClass: 1
Flags: HW
LayerCount: 2
Fore
SplineSet
773 -32 m 0
 366 -32 79 267 79 688 c 0
 79 1103 370 1403 781 1403 c 0
 874 1403 984 1377 1107 1326 c 0
 1129 1316 1150 1312 1168 1312 c 0
 1217 1312 1249 1342 1263 1403 c 1
 1316 1403 l 1
 1316 929 l 1
 1265 929 l 1
 1174 1180 1001 1336 799 1336 c 0
 554 1336 433 1117 433 682 c 0
 433 275 569 71 838 71 c 0
 1000 71 1166 158 1291 320 c 1
 1348 267 l 1
 1208 67 1016 -32 773 -32 c 0
EndSplineSet
EndChar

StartChar: u1D46A
Encoding: 119914 119914 95
Width: 1325
GlyphClass: 1
Flags: HW
LayerCount: 2
Fore
SplineSet
609 -34 m 0
 265 -34 61 172 61 496 c 0
 61 794 218 1099 463 1267 c 0
 588 1352 720 1395 864 1395 c 0
 957 1395 1049 1380 1160 1350 c 0
 1178 1346 1215 1338 1227 1338 c 0
 1255 1338 1281 1357 1299 1395 c 1
 1354 1395 l 1
 1267 929 l 1
 1208 933 l 1
 1208 1190 1109 1324 931 1324 c 0
 741 1324 574 1168 457 864 c 0
 398 712 368 567 368 429 c 0
 368 200 492 61 690 61 c 0
 848 61 990 146 1109 318 c 1
 1166 273 l 1
 1024 69 840 -34 609 -34 c 0
EndSplineSet
EndChar

StartChar: u1D4D2
Encoding: 120018 120018 96
Width: 1410
GlyphClass: 1
Flags: HW
LayerCount: 2
Fore
SplineSet
895 -12 m 0
 656 -12 482 130 482 324 c 0
 482 371 494 423 516 484 c 1
 356 510 271 605 271 755 c 0
 271 921 405 1093 615 1192 c 0
 720 1243 830 1267 941 1267 c 0
 1020 1267 1061 1257 1061 1235 c 0
 1061 1219 1039 1208 996 1208 c 0
 700 1208 401 900 401 692 c 0
 401 597 447 544 538 530 c 1
 716 878 1200 1261 1473 1261 c 0
 1594 1261 1664 1206 1664 1111 c 0
 1664 925 1257 571 834 504 c 1
 763 383 729 286 729 213 c 0
 729 98 786 40 899 40 c 0
 1107 40 1324 204 1324 346 c 0
 1324 439 1267 480 1196 480 c 0
 1121 480 1048 433 1012 368 c 0
 994 336 984 296 978 253 c 0
 972 206 961 184 943 184 c 0
 917 184 889 210 889 265 c 0
 889 421 1020 532 1190 532 c 0
 1309 532 1382 463 1382 350 c 0
 1382 160 1122 -12 895 -12 c 0
870 561 m 1
 1161 618 1534 978 1534 1162 c 0
 1534 1196 1518 1214 1488 1214 c 0
 1433 1214 1346 1151 1225 1028 c 0
 1104 903 985 747 870 561 c 1
EndSplineSet
EndChar

StartChar: uni2102
Encoding: 8450 8450 97
Width: 1279
GlyphClass: 1
Flags: HW
LayerCount: 2
Fore
SplineSet
773 -20 m 0
 322 -20 101 270 101 725 c 0
 101 1162 348 1467 795 1467 c 0
 925 1467 1048 1456 1178 1405 c 1
 1125 1291 l 1
 1020 1336 900 1360 791 1360 c 0
 674 1360 573 1334 490 1287 c 1
 490 150 l 1
 571 110 672 87 791 87 c 0
 902 87 1024 106 1137 136 c 1
 1137 16 l 1
 1009 -12 901 -20 773 -20 c 0
383 227 m 1
 383 1206 l 1
 274 1097 215 927 215 719 c 0
 215 504 270 336 383 227 c 1
EndSplineSet
EndChar

StartChar: Chi
Encoding: 935 935 98
Width: 1186
GlyphClass: 2
Flags: HW
AnchorPoint: "Anchor-1" 593 0 basechar 0
AnchorPoint: "Anchor-0" 591 1445 basechar 0
LayerCount: 2
Fore
SplineSet
8 0 m 1
 488 753 l 1
 38 1445 l 1
 241 1445 l 1
 595 878 l 1
 951 1445 l 1
 1144 1445 l 1
 696 757 l 1
 1178 0 l 1
 972 0 l 1
 589 627 l 1
 200 0 l 1
 8 0 l 1
EndSplineSet
EndChar

StartChar: u1D436
Encoding: 119862 119862 99
Width: 1418
GlyphClass: 1
Flags: HW
LayerCount: 2
Fore
SplineSet
658 -30 m 0
 306 -30 77 188 77 538 c 0
 77 831 277 1139 546 1305 c 0
 682 1388 821 1431 967 1431 c 0
 1048 1431 1134 1414 1241 1378 c 0
 1257 1372 1287 1366 1297 1366 c 0
 1325 1366 1348 1383 1366 1417 c 1
 1407 1417 l 1
 1324 1002 l 1
 1281 1002 l 1
 1283 1022 1283 1045 1283 1065 c 0
 1279 1257 1178 1364 988 1364 c 0
 652 1364 316 975 316 526 c 0
 316 233 469 57 712 57 c 0
 890 57 1054 140 1202 310 c 1
 1241 275 l 1
 1073 67 893 -30 658 -30 c 0
EndSplineSet
EndChar

StartChar: u1D49E
Encoding: 119966 119966 100
Width: 1386
GlyphClass: 1
Flags: HW
LayerCount: 2
Fore
SplineSet
876 -12 m 0
 641 -12 486 136 486 320 c 0
 486 367 498 421 522 490 c 1
 360 506 271 603 271 757 c 0
 271 923 405 1095 607 1194 c 0
 708 1243 814 1267 923 1267 c 0
 986 1267 1016 1261 1016 1245 c 0
 1016 1235 1001 1229 969 1229 c 0
 781 1229 581 1107 445 929 c 0
 378 842 346 761 346 692 c 0
 346 587 409 528 534 516 c 1
 722 880 1208 1261 1465 1261 c 0
 1570 1261 1629 1208 1629 1119 c 0
 1629 925 1214 573 793 510 c 1
 716 385 680 283 680 202 c 0
 680 79 746 16 880 16 c 0
 1078 16 1326 182 1326 364 c 0
 1326 447 1269 500 1196 500 c 0
 1093 500 1018 427 978 320 c 0
 958 265 945 231 943 215 c 0
 943 199 935 190 923 190 c 0
 911 190 905 203 905 227 c 0
 905 399 1022 532 1176 532 c 0
 1289 532 1358 467 1358 358 c 0
 1358 245 1257 114 1107 43 c 0
 1034 9 957 -12 876 -12 c 0
814 542 m 1
 988 566 1160 654 1324 810 c 0
 1405 887 1466 957 1502 1020 c 0
 1536 1081 1554 1128 1554 1158 c 0
 1554 1209 1531 1235 1480 1235 c 0
 1421 1235 1328 1170 1198 1042 c 0
 1068 914 939 748 814 542 c 1
EndSplineSet
EndChar

StartChar: D
Encoding: 68 68 101
Width: 1477
GlyphClass: 2
Flags: HW
AnchorPoint: "Anchor-1" 692 0 basechar 0
AnchorPoint: "Anchor-0" 731 1445 basechar 0
LayerCount: 2
Fore
SplineSet
196 0 m 1
 196 1445 l 1
 642 1445 l 2
 1077 1445 1354 1200 1354 737 c 0
 1354 249 1075 0 599 0 c 2
 196 0 l 1
378 156 m 1
 575 156 l 2
 966 156 1162 350 1162 731 c 0
 1162 1116 963 1289 615 1289 c 2
 378 1289 l 1
 378 156 l 1
EndSplineSet
EndChar

StartChar: u1D507
Encoding: 120071 120071 102
Width: 1635
GlyphClass: 1
Flags: HW
LayerCount: 2
Fore
SplineSet
927 -47 m 0
 862 -47 781 -14 682 53 c 2
 466 200 l 2
 409 238 359 257 316 257 c 0
 267 257 213 233 152 186 c 1
 128 215 l 1
 239 326 338 379 431 381 c 0
 453 381 476 378 496 374 c 1
 619 425 682 473 682 520 c 0
 682 550 654 622 583 723 c 2
 528 802 l 2
 469 887 439 942 439 980 c 0
 439 1101 636 1217 923 1247 c 1
 763 1332 611 1372 463 1372 c 0
 242 1372 95 1228 95 1026 c 0
 95 898 156 814 279 767 c 1
 263 725 l 1
 119 780 49 884 49 1038 c 0
 49 1315 269 1524 573 1524 c 0
 899 1524 1209 1346 1393 1048 c 0
 1486 898 1532 747 1532 591 c 0
 1532 338 1413 151 1200 38 c 0
 1095 -19 1004 -47 927 -47 c 0
1067 81 m 0
 1271 81 1443 255 1443 463 c 0
 1443 724 1288 1000 984 1208 c 1
 875 1202 785 1182 712 1148 c 0
 639 1114 605 1076 605 1038 c 0
 605 1012 618 981 644 943 c 2
 743 793 l 2
 818 682 854 606 854 563 c 0
 854 520 795 470 684 413 c 2
 555 346 l 1
 604 318 649 289 698 255 c 0
 753 217 794 188 830 164 c 0
 919 107 980 81 1067 81 c 0
EndSplineSet
EndChar

StartChar: u1D403
Encoding: 119811 119811 103
Width: 1493
GlyphClass: 1
Flags: HW
LayerCount: 2
Fore
SplineSet
61 0 m 1
 61 53 l 1
 186 57 223 87 223 225 c 2
 223 1127 l 2
 223 1287 177 1322 45 1322 c 1
 45 1372 l 1
 668 1372 l 2
 1154 1372 1411 1125 1411 686 c 0
 1411 229 1170 0 688 0 c 2
 61 0 l 1
670 73 m 0
 935 73 1057 275 1057 690 c 0
 1057 1099 927 1305 672 1305 c 0
 569 1305 549 1275 549 1160 c 2
 549 217 l 2
 549 104 569 73 670 73 c 0
EndSplineSet
EndChar

StartChar: u1D46B
Encoding: 119915 119915 104
Width: 1457
GlyphClass: 1
Flags: HW
LayerCount: 2
Fore
SplineSet
-101 0 m 1
 -101 47 l 1
 24 47 68 79 117 257 c 2
 346 1111 l 2
 356 1147 362 1180 362 1208 c 0
 362 1281 324 1302 221 1310 c 1
 221 1358 l 1
 761 1358 l 2
 1186 1358 1399 1169 1399 793 c 0
 1399 574 1310 369 1140 215 c 0
 968 61 804 0 468 0 c 2
 -101 0 l 1
510 63 m 0
 866 63 1103 460 1103 899 c 0
 1103 1164 997 1297 789 1297 c 0
 698 1297 674 1265 654 1186 c 2
 401 235 l 2
 395 211 387 160 387 148 c 0
 387 85 419 63 510 63 c 0
EndSplineSet
EndChar

StartChar: u1D4D3
Encoding: 120019 120019 105
Width: 1518
GlyphClass: 1
Flags: HW
LayerCount: 2
Fore
SplineSet
461 -14 m 0
 370 -14 303 -2 263 22 c 0
 223 46 202 77 202 111 c 0
 202 172 257 219 372 219 c 0
 461 219 567 199 690 156 c 1
 745 211 812 316 891 472 c 2
 980 648 l 2
 1073 832 1194 982 1336 1095 c 1
 1253 1174 1136 1212 984 1212 c 0
 786 1212 588 1099 463 897 c 0
 400 796 368 704 368 619 c 0
 368 532 423 470 510 470 c 0
 629 470 777 579 858 729 c 0
 898 802 919 878 919 949 c 0
 919 959 917 972 917 982 c 0
 917 1012 927 1026 947 1026 c 0
 971 1026 984 1010 984 978 c 0
 984 788 887 597 739 494 c 0
 666 443 585 417 504 417 c 0
 330 417 194 538 194 700 c 0
 194 890 378 1091 611 1190 c 0
 726 1239 846 1265 967 1265 c 0
 1145 1265 1288 1220 1393 1129 c 1
 1442 1161 1482 1178 1516 1178 c 0
 1534 1178 1554 1168 1554 1160 c 0
 1554 1154 1534 1139 1502 1119 c 2
 1439 1081 l 1
 1524 986 1567 862 1567 710 c 0
 1567 473 1453 215 1273 87 c 0
 1184 24 1089 -8 990 -8 c 0
 901 -8 818 11 743 47 c 1
 650 7 554 -14 461 -14 c 0
1010 61 m 0
 1182 61 1340 176 1429 393 c 0
 1474 502 1496 607 1496 706 c 0
 1496 860 1462 969 1395 1034 c 1
 1350 969 1306 852 1263 686 c 0
 1178 350 1062 218 862 101 c 1
 917 75 965 61 1010 61 c 0
445 38 m 0
 516 38 581 58 638 101 c 1
 537 148 456 170 391 170 c 0
 310 170 269 149 269 111 c 0
 269 56 366 38 445 38 c 0
EndSplineSet
EndChar

StartChar: u1D53B
Encoding: 120123 120123 106
Width: 1481
GlyphClass: 1
Flags: HW
LayerCount: 2
Fore
SplineSet
156 0 m 1
 156 1445 l 1
 668 1445 l 2
 1117 1445 1380 1176 1380 719 c 0
 1380 260 1131 0 684 0 c 2
 156 0 l 1
263 107 m 1
 399 107 l 1
 399 1338 l 1
 263 1338 l 1
 263 107 l 1
506 107 m 1
 676 107 l 2
 806 107 907 128 982 168 c 1
 982 1267 l 1
 907 1314 804 1338 676 1338 c 2
 506 1338 l 1
 506 107 l 1
1089 227 m 1
 1231 365 1273 523 1273 721 c 0
 1273 921 1227 1072 1089 1218 c 1
 1089 227 l 1
EndSplineSet
EndChar

StartChar: uni0394
Encoding: 916 916 107
Width: 1175
GlyphClass: 2
Flags: HW
AnchorPoint: "Anchor-1" 589 0 basechar 0
AnchorPoint: "Anchor-0" 589 1445 basechar 0
LayerCount: 2
Fore
SplineSet
40 0 m 1
 40 111 l 1
 496 1445 l 1
 678 1445 l 1
 1135 109 l 1
 1135 0 l 1
 40 0 l 1
235 160 m 1
 935 160 l 1
 682 913 l 2
 642 1034 607 1150 585 1247 c 1
 561 1150 530 1034 492 921 c 2
 235 160 l 1
EndSplineSet
EndChar

StartChar: uni2B3F
Encoding: 11071 11071 108
Width: 1728
GlyphClass: 1
Flags: HW
LayerCount: 2
Fore
SplineSet
1455 846 m 2
 1625 674 l 1
 1546 599 l 1
 1372 775 l 2
 1297 850 1263 868 1206 868 c 0
 1159 868 1123 856 1024 775 c 0
 884 662 826 644 676 644 c 2
 383 644 l 1
 432 589 479 506 530 399 c 1
 441 399 l 1
 334 524 220 617 103 676 c 1
 103 721 l 1
 220 780 334 873 441 998 c 1
 530 998 l 1
 479 891 432 808 383 753 c 1
 684 753 l 2
 805 753 850 769 943 846 c 0
 1046 931 1107 978 1206 978 c 0
 1295 978 1362 939 1455 846 c 2
EndSplineSet
EndChar

StartChar: u1D437
Encoding: 119863 119863 109
Width: 1528
GlyphClass: 1
Flags: HW
LayerCount: 2
Fore
SplineSet
-107 0 m 1
 -95 40 l 1
 -85 40 l 2
 43 40 87 77 125 219 c 2
 378 1160 l 2
 390 1207 397 1241 397 1263 c 0
 397 1330 350 1354 243 1360 c 1
 255 1401 l 1
 791 1401 l 2
 1196 1401 1443 1180 1443 820 c 0
 1443 381 1069 0 502 0 c 2
 -107 0 l 1
512 67 m 0
 969 67 1208 455 1208 866 c 0
 1208 1172 1056 1334 765 1334 c 0
 635 1334 619 1312 581 1166 c 2
 340 269 l 2
 324 210 316 170 316 148 c 0
 316 118 332 95 362 85 c 0
 392 75 443 67 512 67 c 0
EndSplineSet
EndChar

StartChar: uni2145
Encoding: 8517 8517 110
Width: 1477
GlyphClass: 1
Flags: HW
LayerCount: 2
Fore
SplineSet
73 0 m 1
 378 1445 l 1
 891 1445 l 2
 1239 1445 1447 1259 1447 868 c 0
 1447 366 1145 0 599 0 c 2
 73 0 l 1
202 107 m 1
 338 107 l 1
 599 1338 l 1
 463 1338 l 1
 202 107 l 1
445 107 m 1
 615 107 l 2
 738 107 850 131 943 176 c 1
 1172 1267 l 1
 1107 1314 1024 1338 921 1338 c 2
 706 1338 l 1
 445 107 l 1
1065 253 m 1
 1239 391 1330 615 1330 870 c 0
 1330 995 1306 1101 1255 1178 c 1
 1065 253 l 1
EndSplineSet
EndChar

StartChar: u1D49F
Encoding: 119967 119967 111
Width: 1503
GlyphClass: 1
Flags: HW
LayerCount: 2
Fore
SplineSet
447 -14 m 0
 364 -14 302 -2 259 20 c 0
 216 42 194 71 194 103 c 0
 194 160 259 202 389 202 c 0
 460 202 560 179 692 132 c 1
 767 209 846 326 923 488 c 0
 1079 812 1204 974 1352 1087 c 1
 1261 1184 1136 1233 978 1233 c 0
 757 1233 557 1122 423 905 c 0
 358 800 324 702 324 619 c 0
 324 524 391 457 496 457 c 0
 601 457 706 518 785 613 c 0
 864 706 917 831 917 959 c 0
 917 967 915 974 915 982 c 0
 915 1008 921 1022 931 1022 c 0
 945 1022 951 1010 951 984 c 0
 951 794 852 601 710 500 c 0
 637 449 565 423 490 423 c 0
 332 423 204 544 204 702 c 0
 204 890 380 1077 615 1184 c 0
 732 1239 848 1265 961 1265 c 0
 1135 1265 1275 1214 1382 1111 c 1
 1449 1154 1494 1176 1518 1176 c 0
 1526 1176 1530 1174 1530 1168 c 0
 1530 1160 1514 1149 1484 1135 c 0
 1452 1119 1427 1103 1409 1085 c 1
 1500 974 1546 850 1546 712 c 0
 1546 475 1423 219 1253 89 c 0
 1166 24 1077 -8 984 -8 c 0
 905 -8 822 13 733 53 c 1
 636 8 540 -14 447 -14 c 0
1004 40 m 0
 1184 40 1342 176 1433 391 c 0
 1480 498 1500 605 1500 708 c 0
 1500 836 1461 952 1384 1059 c 1
 1333 994 1286 876 1241 704 c 0
 1150 358 1028 208 826 93 c 1
 899 59 957 40 1004 40 c 0
431 18 m 0
 516 18 591 42 654 93 c 1
 555 144 457 170 360 170 c 0
 277 170 235 148 235 103 c 0
 235 83 253 65 287 45 c 0
 321 25 370 18 431 18 c 0
EndSplineSet
EndChar

StartChar: E
Encoding: 69 69 112
Width: 1125
GlyphClass: 2
Flags: HW
AnchorPoint: "Anchor-1" 607 0 basechar 0
AnchorPoint: "Anchor-0" 617 1445 basechar 0
LayerCount: 2
Fore
SplineSet
196 0 m 1
 196 1445 l 1
 1004 1445 l 1
 1004 1285 l 1
 378 1285 l 1
 378 834 l 1
 967 834 l 1
 967 676 l 1
 378 676 l 1
 378 160 l 1
 1004 160 l 1
 1004 0 l 1
 196 0 l 1
EndSplineSet
EndChar

StartChar: u1D508
Encoding: 120072 120072 113
Width: 1303
GlyphClass: 1
Flags: HW
LayerCount: 2
Fore
SplineSet
704 279 m 0
 587 279 502 350 457 484 c 1
 504 500 l 1
 500 514 496 528 492 542 c 1
 542 514 l 1
 504 500 l 1
 540 391 603 326 704 326 c 0
 813 326 866 403 866 492 c 0
 866 579 817 692 698 846 c 0
 564 1016 544 1051 544 1075 c 0
 544 1095 559 1123 597 1172 c 0
 619 1200 656 1242 694 1287 c 1
 666 1374 599 1423 518 1423 c 0
 358 1423 239 1232 239 882 c 0
 239 404 458 136 834 136 c 0
 978 136 1110 170 1225 243 c 1
 1251 208 l 1
 951 -38 l 1
 913 -44 860 -49 797 -49 c 0
 366 -49 93 273 93 793 c 0
 93 1204 255 1469 514 1469 c 0
 609 1469 701 1413 727 1326 c 1
 759 1360 788 1393 804 1413 c 0
 842 1456 858 1469 872 1469 c 0
 886 1469 966 1441 984 1435 c 0
 1035 1419 1069 1401 1109 1401 c 0
 1131 1401 1154 1415 1176 1445 c 1
 1210 1425 l 1
 1176 1370 1151 1315 1129 1279 c 0
 1109 1247 1095 1237 1077 1237 c 0
 1055 1237 996 1257 917 1291 c 0
 870 1311 840 1322 816 1322 c 0
 786 1322 765 1305 735 1267 c 0
 697 1218 690 1198 690 1172 c 0
 690 1148 715 1103 830 945 c 0
 846 923 862 900 876 880 c 1
 927 921 l 2
 992 974 1020 1007 1038 1052 c 1
 1077 1052 l 1
 1111 997 1139 963 1214 937 c 1
 1214 899 l 1
 1169 869 1139 834 1119 791 c 1
 1081 791 l 1
 1053 838 1030 861 963 893 c 1
 903 844 l 1
 974 741 1002 690 1002 672 c 0
 1002 660 996 645 972 615 c 0
 940 575 929 545 923 492 c 0
 915 429 896 376 860 340 c 0
 822 302 769 279 704 279 c 0
443 532 m 1
 447 514 451 498 457 484 c 1
 415 468 l 1
 443 532 l 1
EndSplineSet
EndChar

StartChar: u1D404
Encoding: 119812 119812 114
Width: 1331
GlyphClass: 1
Flags: HW
LayerCount: 2
Fore
SplineSet
43 0 m 1
 43 51 l 1
 187 51 227 91 227 235 c 2
 227 1111 l 2
 227 1285 181 1322 49 1322 c 1
 49 1372 l 1
 1202 1372 l 1
 1202 963 l 1
 1156 963 l 1
 1124 1214 991 1297 698 1297 c 0
 568 1297 551 1287 551 1170 c 2
 551 741 l 1
 583 741 l 2
 763 741 836 827 868 1040 c 1
 917 1040 l 1
 917 356 l 1
 866 356 l 1
 844 599 763 670 559 670 c 2
 551 670 l 1
 551 202 l 2
 551 101 579 83 694 83 c 0
 990 83 1136 172 1239 431 c 1
 1295 431 l 1
 1212 0 l 1
 43 0 l 1
EndSplineSet
EndChar

StartChar: u1D46C
Encoding: 119916 119916 115
Width: 1327
GlyphClass: 1
Flags: HW
LayerCount: 2
Fore
SplineSet
-101 0 m 1
 -101 47 l 1
 24 47 68 79 117 257 c 2
 346 1111 l 2
 356 1151 362 1184 362 1208 c 0
 362 1281 324 1302 221 1310 c 1
 221 1358 l 1
 1301 1358 l 1
 1227 978 l 1
 1170 978 l 1
 1170 996 l 2
 1170 1213 1061 1293 812 1293 c 0
 703 1293 686 1279 664 1198 c 2
 546 755 l 1
 603 755 l 2
 816 755 888 809 963 969 c 1
 1014 969 l 1
 870 411 l 1
 826 411 l 1
 828 437 828 464 828 490 c 0
 828 636 757 686 585 686 c 0
 567 686 546 686 528 684 c 1
 403 221 l 2
 397 195 385 142 385 132 c 0
 385 108 395 93 413 83 c 0
 431 73 467 69 520 69 c 0
 811 69 965 150 1121 411 c 1
 1172 411 l 1
 1055 0 l 1
 -101 0 l 1
EndSplineSet
EndChar

StartChar: u1D4D4
Encoding: 120020 120020 116
Width: 1125
GlyphClass: 1
Flags: HW
LayerCount: 2
Fore
SplineSet
621 -14 m 0
 352 -14 172 134 172 328 c 0
 172 538 344 694 688 753 c 1
 621 808 589 872 589 947 c 0
 589 1113 797 1267 1046 1267 c 0
 1250 1267 1378 1168 1378 1022 c 0
 1378 886 1267 789 1144 789 c 0
 1053 789 986 850 986 929 c 0
 986 1016 1089 1101 1156 1101 c 0
 1178 1101 1200 1091 1200 1079 c 0
 1200 1071 1194 1063 1184 1059 c 0
 1127 1027 1099 980 1099 921 c 0
 1099 866 1118 840 1156 840 c 0
 1243 840 1320 921 1320 1020 c 0
 1320 1119 1226 1204 1111 1204 c 0
 943 1204 816 1048 816 844 c 0
 816 820 818 797 824 775 c 1
 844 779 867 781 887 781 c 0
 954 781 1002 771 1028 751 c 0
 1056 731 1071 710 1071 690 c 0
 1071 662 1028 631 969 631 c 0
 896 631 828 653 761 698 c 1
 581 631 433 429 433 233 c 0
 433 105 499 40 631 40 c 0
 858 40 1061 198 1061 352 c 0
 1061 423 1012 474 939 474 c 0
 844 474 753 381 743 251 c 0
 737 186 718 154 692 154 c 0
 664 154 654 219 654 245 c 0
 654 419 771 536 925 536 c 0
 1055 536 1119 473 1119 348 c 0
 1119 168 886 -14 621 -14 c 0
945 678 m 0
 967 678 994 686 994 694 c 0
 994 718 966 733 905 733 c 0
 883 733 860 729 838 725 c 1
 862 695 898 678 945 678 c 0
EndSplineSet
EndChar

StartChar: u1D53C
Encoding: 120124 120124 117
Width: 1135
GlyphClass: 1
Flags: HW
LayerCount: 2
Fore
SplineSet
156 0 m 1
 156 1445 l 1
 1034 1445 l 1
 1034 1338 l 1
 506 1338 l 1
 506 810 l 1
 953 810 l 1
 953 702 l 1
 506 702 l 1
 506 107 l 1
 1034 107 l 1
 1034 0 l 1
 156 0 l 1
263 107 m 1
 399 107 l 1
 399 1338 l 1
 263 1338 l 1
 263 107 l 1
EndSplineSet
EndChar

StartChar: u1D438
Encoding: 119864 119864 118
Width: 1368
GlyphClass: 1
Flags: HW
LayerCount: 2
Fore
SplineSet
-101 0 m 1
 -91 40 l 1
 -83 40 l 2
 42 40 87 75 125 221 c 2
 378 1160 l 2
 390 1207 397 1241 397 1263 c 0
 397 1330 352 1354 245 1360 c 1
 255 1401 l 1
 1326 1401 l 1
 1267 1097 l 1
 1233 1097 l 1
 1233 1105 l 2
 1233 1289 1184 1332 931 1332 c 2
 759 1332 l 2
 638 1332 623 1315 591 1194 c 2
 480 783 l 1
 650 783 l 2
 852 783 929 842 967 982 c 1
 1006 982 l 1
 864 486 l 1
 828 486 l 1
 832 512 834 539 834 565 c 0
 834 695 798 714 644 714 c 2
 463 714 l 1
 338 251 l 2
 326 204 316 164 316 142 c 0
 316 116 328 95 350 85 c 0
 372 75 408 71 461 71 c 2
 601 71 l 2
 888 71 1043 160 1164 385 c 1
 1204 385 l 1
 1059 0 l 1
 -101 0 l 1
EndSplineSet
EndChar

StartChar: Epsilon
Encoding: 917 917 119
Width: 1125
GlyphClass: 2
Flags: HW
AnchorPoint: "Anchor-1" 607 0 basechar 0
AnchorPoint: "Anchor-0" 617 1445 basechar 0
LayerCount: 2
Fore
SplineSet
196 0 m 1
 196 1445 l 1
 1004 1445 l 1
 1004 1285 l 1
 378 1285 l 1
 378 834 l 1
 967 834 l 1
 967 676 l 1
 378 676 l 1
 378 160 l 1
 1004 160 l 1
 1004 0 l 1
 196 0 l 1
EndSplineSet
EndChar

StartChar: uni2130
Encoding: 8496 8496 120
Width: 1220
GlyphClass: 1
Flags: HW
LayerCount: 2
Fore
SplineSet
457 -14 m 0
 210 -14 57 158 57 397 c 0
 57 644 290 853 561 891 c 1
 525 927 476 996 476 1109 c 0
 476 1289 670 1473 927 1473 c 0
 1184 1473 1241 1287 1241 1178 c 0
 1241 1083 1170 931 1020 931 c 0
 929 931 878 994 878 1073 c 0
 878 1152 919 1240 1040 1289 c 1
 1050 1269 l 1
 999 1224 933 1160 933 1075 c 0
 933 1000 973 967 1024 967 c 0
 1115 967 1192 1044 1192 1182 c 0
 1192 1360 1071 1419 992 1419 c 0
 802 1419 658 1247 658 978 c 0
 658 944 662 919 670 897 c 1
 777 893 903 871 903 810 c 0
 903 767 857 757 812 757 c 0
 759 757 672 783 615 840 c 1
 425 783 249 524 249 273 c 0
 249 58 361 22 474 22 c 0
 689 22 915 202 915 421 c 0
 915 520 860 575 787 575 c 0
 668 575 523 391 549 178 c 1
 512 170 l 1
 502 219 500 267 500 316 c 0
 500 476 621 611 783 611 c 0
 931 611 951 478 951 421 c 0
 951 176 712 -14 457 -14 c 0
802 789 m 0
 842 789 866 796 866 810 c 0
 866 832 799 850 769 854 c 0
 755 856 735 858 719 858 c 0
 709 858 698 858 690 856 c 1
 733 805 782 789 802 789 c 0
EndSplineSet
EndChar

StartChar: Eta
Encoding: 919 919 121
Width: 1499
GlyphClass: 2
Flags: HW
AnchorPoint: "Anchor-1" 745 0 basechar 0
AnchorPoint: "Anchor-0" 751 1445 basechar 0
LayerCount: 2
Fore
SplineSet
196 0 m 1
 196 1445 l 1
 378 1445 l 1
 378 834 l 1
 1119 834 l 1
 1119 1445 l 1
 1301 1445 l 1
 1301 0 l 1
 1119 0 l 1
 1119 674 l 1
 378 674 l 1
 378 0 l 1
 196 0 l 1
EndSplineSet
EndChar

StartChar: F
Encoding: 70 70 122
Width: 1050
GlyphClass: 2
Flags: HW
AnchorPoint: "Anchor-1" 526 0 basechar 0
AnchorPoint: "Anchor-0" 603 1445 basechar 0
LayerCount: 2
Fore
SplineSet
196 0 m 1
 196 1445 l 1
 1004 1445 l 1
 1004 1285 l 1
 378 1285 l 1
 378 773 l 1
 965 773 l 1
 965 613 l 1
 378 613 l 1
 378 0 l 1
 196 0 l 1
EndSplineSet
EndChar

StartChar: u1D509
Encoding: 120073 120073 123
Width: 1119
GlyphClass: 1
Flags: HW
LayerCount: 2
Fore
SplineSet
561 -389 m 0
 326 -389 148 -241 148 -47 c 0
 148 48 202 146 281 223 c 0
 321 261 340 300 340 336 c 0
 340 391 302 429 245 429 c 0
 198 429 164 403 140 350 c 1
 97 368 l 1
 133 439 182 476 245 476 c 0
 336 476 407 401 407 298 c 0
 407 203 342 109 279 22 c 0
 249 -18 235 -65 235 -105 c 0
 235 -233 371 -340 557 -340 c 0
 727 -340 848 -233 848 -53 c 0
 848 125 704 303 528 520 c 0
 439 629 399 720 399 797 c 0
 399 918 500 1095 710 1273 c 1
 580 1328 465 1356 364 1356 c 0
 174 1356 40 1233 40 1063 c 0
 40 962 97 887 208 842 c 1
 192 797 l 1
 58 852 -8 943 -8 1071 c 0
 -8 1302 203 1484 476 1484 c 0
 634 1484 812 1431 1006 1326 c 0
 1040 1308 1067 1295 1083 1295 c 0
 1097 1295 1120 1310 1146 1340 c 1
 1174 1310 l 1
 1010 1146 l 2
 996 1132 988 1127 982 1125 c 0
 972 1129 963 1133 955 1137 c 0
 868 1192 802 1231 755 1253 c 1
 605 1128 530 1010 530 903 c 0
 530 832 569 751 644 656 c 1
 733 717 794 773 822 824 c 1
 860 824 l 1
 884 781 929 757 996 749 c 1
 996 702 l 1
 956 688 923 654 897 601 c 1
 854 601 l 1
 822 644 789 664 755 664 c 0
 739 664 712 649 674 619 c 1
 771 498 838 411 872 360 c 0
 943 257 988 160 988 51 c 0
 988 -210 814 -389 561 -389 c 0
EndSplineSet
EndChar

StartChar: u1D405
Encoding: 119813 119813 124
Width: 1218
GlyphClass: 1
Flags: HW
LayerCount: 2
Fore
SplineSet
47 0 m 1
 47 53 l 1
 187 63 225 105 225 253 c 2
 225 1129 l 2
 225 1275 181 1308 43 1322 c 1
 43 1372 l 1
 1186 1372 l 1
 1186 963 l 1
 1137 963 l 1
 1094 1212 996 1299 692 1299 c 0
 573 1299 549 1295 549 1200 c 2
 549 745 l 1
 573 745 l 2
 751 745 830 831 856 1044 c 1
 911 1044 l 1
 911 356 l 1
 858 356 l 1
 830 593 755 674 569 674 c 2
 549 674 l 1
 549 243 l 2
 549 95 587 57 773 53 c 1
 773 0 l 1
 47 0 l 1
EndSplineSet
EndChar

StartChar: u1D46D
Encoding: 119917 119917 125
Width: 1236
GlyphClass: 1
Flags: HW
LayerCount: 2
Fore
SplineSet
-101 0 m 1
 -101 47 l 1
 24 47 68 79 117 257 c 2
 346 1111 l 2
 356 1147 362 1182 362 1216 c 0
 362 1279 318 1306 221 1310 c 1
 221 1358 l 1
 1285 1358 l 1
 1206 974 l 1
 1150 974 l 1
 1150 1002 l 2
 1150 1204 1042 1291 789 1291 c 0
 706 1291 686 1269 666 1194 c 2
 546 747 l 1
 566 745 585 745 605 745 c 0
 783 745 888 811 943 963 c 1
 994 963 l 1
 852 407 l 1
 810 407 l 1
 812 431 812 454 812 478 c 0
 812 648 743 682 526 682 c 1
 409 247 l 2
 397 200 391 166 391 142 c 0
 391 79 429 51 532 47 c 1
 532 0 l 1
 -101 0 l 1
EndSplineSet
EndChar

StartChar: u1D4D5
Encoding: 120021 120021 126
Width: 1483
GlyphClass: 1
Flags: HW
LayerCount: 2
Fore
SplineSet
700 522 m 0
 564 522 492 600 492 723 c 0
 492 881 635 1059 874 1178 c 0
 993 1237 1114 1267 1237 1267 c 0
 1300 1267 1381 1251 1480 1225 c 0
 1581 1199 1651 1184 1696 1184 c 0
 1747 1184 1778 1192 1818 1210 c 0
 1824 1212 1832 1216 1842 1222 c 0
 1846 1224 1854 1227 1856 1227 c 0
 1864 1227 1868 1220 1868 1204 c 0
 1868 1168 1716 1046 1605 1046 c 0
 1544 1046 1459 1068 1346 1111 c 0
 1231 1154 1144 1176 1079 1176 c 0
 834 1176 553 919 551 723 c 0
 551 644 595 591 654 591 c 0
 773 591 945 789 945 1008 c 0
 945 1018 941 1051 941 1063 c 0
 941 1079 956 1087 982 1087 c 0
 996 1087 1016 1070 1034 1040 c 0
 1052 1010 1063 968 1063 913 c 0
 1063 692 904 522 700 522 c 0
553 -14 m 0
 316 -14 182 79 182 219 c 0
 182 318 263 395 370 395 c 0
 463 395 520 354 520 283 c 0
 520 220 456 196 383 186 c 0
 349 182 330 164 330 136 c 0
 330 116 349 95 383 75 c 0
 417 55 471 43 544 43 c 0
 730 43 871 185 990 472 c 1
 903 460 811 419 716 348 c 0
 698 336 686 328 678 328 c 0
 664 328 656 334 656 346 c 0
 656 364 694 394 769 437 c 0
 844 480 925 514 1014 534 c 1
 1111 807 1360 1044 1425 1044 c 0
 1445 1044 1455 1036 1455 1020 c 1
 1404 969 1350 771 1322 573 c 1
 1403 579 l 1
 1452 711 1496 775 1567 775 c 0
 1614 775 1637 755 1637 712 c 0
 1637 653 1560 568 1465 536 c 1
 1463 510 1459 473 1451 441 c 2
 1431 352 l 1
 1283 320 l 1
 1311 395 1344 463 1376 526 c 1
 1333 526 1309 524 1301 520 c 0
 1196 168 940 -14 553 -14 c 0
1469 585 m 1
 1528 613 1581 667 1581 710 c 0
 1581 720 1573 727 1561 727 c 0
 1514 727 1481 658 1469 585 c 1
EndSplineSet
EndChar

StartChar: u1D53D
Encoding: 120125 120125 127
Width: 1064
GlyphClass: 1
Flags: HW
LayerCount: 2
Fore
SplineSet
156 0 m 1
 156 1445 l 1
 1034 1445 l 1
 1034 1338 l 1
 506 1338 l 1
 506 810 l 1
 913 810 l 1
 913 702 l 1
 506 702 l 1
 506 0 l 1
 156 0 l 1
263 107 m 1
 399 107 l 1
 399 1338 l 1
 263 1338 l 1
 263 107 l 1
EndSplineSet
EndChar

StartChar: u1D439
Encoding: 119865 119865 128
Width: 1222
GlyphClass: 1
Flags: HW
LayerCount: 2
Fore
SplineSet
-93 0 m 1
 -81 40 l 1
 -73 40 l 2
 55 40 96 73 136 221 c 2
 389 1160 l 2
 401 1207 407 1241 407 1263 c 0
 407 1330 360 1354 253 1360 c 1
 265 1401 l 1
 1269 1401 l 1
 1206 1069 l 1
 1166 1069 l 1
 1168 1079 1168 1095 1168 1107 c 0
 1168 1273 1101 1330 925 1330 c 2
 765 1330 l 2
 708 1330 674 1324 658 1312 c 0
 642 1300 629 1281 623 1261 c 0
 617 1241 575 1079 498 777 c 1
 611 777 l 2
 815 777 886 822 953 980 c 1
 994 980 l 1
 860 472 l 1
 818 472 l 1
 822 504 826 539 826 573 c 0
 824 680 794 708 640 708 c 2
 480 708 l 1
 350 208 l 2
 344 186 338 150 338 134 c 0
 338 59 387 40 510 36 c 1
 506 0 l 1
 -93 0 l 1
EndSplineSet
EndChar

StartChar: uni2131
Encoding: 8497 8497 129
Width: 1667
GlyphClass: 1
Flags: HW
LayerCount: 2
Fore
SplineSet
425 625 m 0
 245 625 235 793 235 846 c 0
 235 1067 461 1475 1022 1475 c 0
 1158 1475 1234 1457 1299 1431 c 0
 1366 1405 1417 1384 1510 1384 c 0
 1609 1384 1646 1411 1682 1449 c 1
 1716 1429 l 1
 1678 1348 1582 1241 1463 1241 c 0
 1372 1241 1299 1268 1214 1308 c 0
 1117 1355 1012 1405 891 1405 c 0
 598 1405 271 1131 271 838 c 0
 271 682 369 664 403 664 c 0
 567 664 753 998 753 1144 c 0
 753 1170 753 1196 739 1259 c 1
 767 1273 l 1
 812 1194 830 1115 830 1026 c 0
 830 870 692 625 425 625 c 0
310 -20 m 0
 0 -20 -8 242 -8 289 c 0
 -8 396 69 482 160 482 c 0
 257 482 287 412 287 372 c 0
 287 285 237 253 178 245 c 0
 131 239 67 251 67 186 c 0
 67 164 90 16 298 16 c 0
 476 16 591 194 712 437 c 2
 777 567 l 1
 625 549 512 474 453 395 c 1
 423 419 l 1
 472 490 605 589 793 603 c 1
 904 838 994 1020 1259 1212 c 1
 1285 1192 l 1
 1196 1105 1145 975 1121 880 c 0
 1101 797 1078 710 1052 625 c 1
 1111 634 l 2
 1125 636 1152 646 1166 658 c 1
 1174 684 1239 856 1330 856 c 0
 1366 856 1376 828 1376 804 c 0
 1376 761 1330 706 1233 629 c 1
 1259 591 1200 425 1186 389 c 1
 1028 344 l 1
 1073 421 1136 542 1144 599 c 1
 1122 599 1083 597 1040 593 c 1
 1036 581 l 2
 935 279 719 -20 310 -20 c 0
EndSplineSet
EndChar

StartChar: G
Encoding: 71 71 130
Width: 1473
GlyphClass: 2
Flags: HW
AnchorPoint: "Anchor-1" 814 0 basechar 0
AnchorPoint: "Anchor-0" 820 1445 basechar 0
LayerCount: 2
Fore
SplineSet
816 -20 m 0
 367 -20 123 266 123 723 c 0
 123 1174 398 1465 872 1465 c 0
 1034 1465 1180 1433 1303 1380 c 1
 1235 1222 l 1
 1132 1267 1000 1305 862 1305 c 0
 516 1305 314 1083 314 723 c 0
 314 377 469 138 858 138 c 0
 986 138 1069 154 1142 172 c 1
 1142 601 l 1
 824 601 l 1
 824 763 l 1
 1324 763 l 1
 1324 55 l 1
 1168 4 1018 -20 816 -20 c 0
EndSplineSet
EndChar

StartChar: u1D50A
Encoding: 120074 120074 131
Width: 1528
GlyphClass: 1
Flags: HW
LayerCount: 2
Fore
SplineSet
840 -47 m 0
 385 -47 93 269 93 755 c 0
 93 1176 309 1467 609 1467 c 0
 660 1467 706 1459 751 1441 c 1
 822 1500 l 1
 848 1473 l 1
 830 1459 813 1439 799 1419 c 1
 842 1397 881 1372 913 1346 c 1
 884 1308 l 1
 854 1338 816 1362 771 1380 c 1
 751 1350 739 1321 739 1295 c 0
 739 1263 759 1208 802 1127 c 0
 845 1048 864 986 864 943 c 0
 864 909 838 844 785 753 c 1
 823 783 862 806 909 822 c 0
 949 836 999 854 1046 878 c 0
 1101 906 1154 941 1186 984 c 0
 1218 1024 1235 1061 1235 1097 c 0
 1235 1127 1220 1156 1192 1182 c 2
 1079 1289 l 2
 1059 1307 1048 1320 1048 1330 c 0
 1048 1340 1059 1356 1081 1380 c 0
 1101 1402 1132 1435 1170 1475 c 1
 1198 1453 l 1
 1186 1429 l 2
 1186 1413 1220 1370 1289 1301 c 2
 1344 1247 l 2
 1356 1235 1368 1229 1378 1229 c 0
 1386 1229 1395 1231 1403 1233 c 2
 1421 1210 l 1
 1381 1178 1336 1125 1287 1050 c 0
 1238 975 1194 923 1156 889 c 1
 1334 808 1435 660 1435 484 c 0
 1435 166 1200 -47 840 -47 c 0
544 670 m 0
 639 670 706 727 706 830 c 0
 706 881 686 947 646 1034 c 0
 606 1121 583 1176 583 1194 c 0
 583 1243 627 1312 714 1405 c 1
 684 1413 653 1417 625 1417 c 0
 386 1417 267 1228 265 854 c 1
 372 731 463 670 544 670 c 0
862 -2 m 0
 1105 -2 1277 157 1277 378 c 0
 1277 603 1125 767 949 767 c 0
 906 767 866 759 826 731 c 0
 747 678 660 619 561 619 c 0
 466 619 368 674 267 783 c 1
 322 267 534 -2 862 -2 c 0
EndSplineSet
EndChar

StartChar: Gamma
Encoding: 915 915 132
Width: 1060
GlyphClass: 2
Flags: HW
AnchorPoint: "Anchor-1" 530 0 basechar 0
AnchorPoint: "Anchor-0" 617 1445 basechar 0
LayerCount: 2
Fore
SplineSet
196 0 m 1
 196 1445 l 1
 1012 1445 l 1
 1012 1283 l 1
 378 1283 l 1
 378 0 l 1
 196 0 l 1
EndSplineSet
EndChar

StartChar: uni213E
Encoding: 8510 8510 133
Width: 1117
GlyphClass: 1
Flags: HW
LayerCount: 2
Fore
SplineSet
196 0 m 1
 196 1445 l 1
 1087 1445 l 1
 1087 1338 l 1
 546 1338 l 1
 546 0 l 1
 196 0 l 1
304 107 m 1
 439 107 l 1
 439 1338 l 1
 304 1338 l 1
 304 107 l 1
EndSplineSet
EndChar

StartChar: u1D406
Encoding: 119814 119814 134
Width: 1530
GlyphClass: 1
Flags: HW
LayerCount: 2
Fore
SplineSet
808 -30 m 0
 371 -30 83 253 83 690 c 0
 83 1109 378 1403 775 1403 c 0
 878 1403 992 1379 1113 1328 c 0
 1135 1318 1154 1314 1168 1314 c 0
 1215 1314 1235 1340 1263 1403 c 1
 1318 1403 l 1
 1318 927 l 1
 1265 927 l 1
 1178 1172 1000 1336 806 1336 c 0
 561 1336 439 1119 439 686 c 0
 439 263 585 38 830 38 c 0
 984 38 1032 96 1032 215 c 2
 1032 385 l 2
 1032 513 992 545 830 549 c 1
 830 597 l 1
 1508 597 l 1
 1508 549 l 1
 1376 545 1344 512 1344 387 c 2
 1344 87 l 1
 1166 8 988 -30 808 -30 c 0
EndSplineSet
EndChar

StartChar: u1D46E
Encoding: 119918 119918 135
Width: 1503
GlyphClass: 1
Flags: HW
LayerCount: 2
Fore
SplineSet
666 -34 m 0
 283 -34 63 182 63 528 c 0
 63 826 225 1113 492 1273 c 0
 626 1352 767 1395 921 1395 c 0
 1002 1395 1095 1380 1204 1348 c 0
 1222 1342 1243 1338 1261 1338 c 0
 1287 1338 1310 1357 1328 1395 c 1
 1378 1395 l 1
 1291 955 l 1
 1235 955 l 1
 1231 1196 1117 1322 929 1322 c 0
 749 1322 574 1164 453 864 c 0
 392 712 362 571 362 435 c 0
 362 182 491 43 716 43 c 0
 854 43 907 98 939 223 c 2
 994 435 l 2
 1006 484 1012 518 1012 538 c 0
 1012 605 971 619 862 623 c 1
 862 672 l 1
 1431 672 l 1
 1431 621 l 1
 1415 621 l 2
 1328 621 1309 558 1281 451 c 2
 1190 93 l 1
 1028 8 852 -34 666 -34 c 0
EndSplineSet
EndChar

StartChar: u1D4D6
Encoding: 120022 120022 136
Width: 1372
GlyphClass: 1
Flags: HW
LayerCount: 2
Fore
SplineSet
802 -18 m 0
 549 -18 409 75 409 221 c 0
 409 324 494 393 597 393 c 0
 684 393 737 346 737 287 c 0
 737 228 692 192 603 174 c 0
 573 168 559 151 559 125 c 0
 559 74 650 38 741 38 c 0
 887 38 998 184 1142 443 c 1
 1091 413 1032 397 965 397 c 0
 862 397 777 433 710 508 c 1
 692 506 672 506 654 506 c 0
 429 506 275 640 275 818 c 0
 275 952 364 1085 520 1174 c 0
 599 1219 670 1243 737 1245 c 0
 757 1245 769 1245 769 1233 c 0
 769 1223 750 1212 716 1196 c 0
 645 1164 547 1077 470 949 c 0
 432 886 413 824 413 765 c 0
 413 637 508 553 644 553 c 0
 656 553 668 553 680 555 c 1
 656 614 644 667 644 716 c 0
 644 1014 1042 1267 1291 1267 c 0
 1412 1267 1492 1202 1492 1107 c 0
 1492 988 1350 798 1144 656 c 0
 1041 585 935 540 830 520 c 1
 848 471 894 447 969 447 c 0
 1054 447 1154 484 1263 557 c 0
 1372 630 1433 666 1449 666 c 0
 1463 666 1471 664 1471 656 c 0
 1471 650 1467 644 1463 638 c 0
 1420 593 1396 545 1380 470 c 0
 1348 324 1295 186 1202 107 c 0
 1107 26 972 -18 802 -18 c 0
828 573 m 1
 1180 664 1433 969 1433 1103 c 0
 1433 1174 1390 1214 1350 1214 c 0
 1184 1214 877 840 828 573 c 1
EndSplineSet
EndChar

StartChar: u1D53E
Encoding: 120126 120126 137
Width: 1430
GlyphClass: 1
Flags: HW
LayerCount: 2
Fore
SplineSet
816 -20 m 0
 338 -20 101 253 101 725 c 0
 101 1172 391 1467 828 1467 c 0
 996 1467 1145 1439 1281 1382 c 1
 1237 1283 l 1
 1107 1338 970 1364 824 1364 c 0
 694 1364 583 1338 490 1287 c 1
 490 150 l 1
 579 105 686 83 814 83 c 0
 848 83 894 85 951 93 c 1
 951 656 l 1
 741 656 l 1
 741 763 l 1
 1301 763 l 1
 1301 57 l 1
 1161 6 1000 -20 816 -20 c 0
383 227 m 1
 383 1206 l 1
 272 1095 215 932 215 719 c 0
 215 500 272 336 383 227 c 1
1059 109 m 1
 1110 117 1156 128 1194 140 c 1
 1194 656 l 1
 1059 656 l 1
 1059 109 l 1
EndSplineSet
EndChar

StartChar: u1D43A
Encoding: 119866 119866 138
Width: 1631
GlyphClass: 1
Flags: HW
LayerCount: 2
Fore
SplineSet
739 -30 m 0
 340 -30 81 194 81 544 c 0
 81 842 279 1148 546 1310 c 0
 680 1391 826 1431 986 1431 c 0
 1079 1431 1168 1414 1247 1382 c 0
 1328 1350 1379 1332 1401 1332 c 0
 1456 1332 1484 1354 1516 1415 c 1
 1550 1415 l 1
 1457 986 l 1
 1423 986 l 1
 1395 1225 1241 1364 998 1364 c 0
 747 1364 536 1194 413 921 c 0
 350 783 320 650 320 522 c 0
 320 212 490 32 767 32 c 0
 911 32 1043 101 1067 192 c 2
 1140 476 l 2
 1146 502 1154 539 1154 559 c 0
 1154 593 1139 615 1113 625 c 0
 1085 635 1038 642 969 646 c 1
 980 684 l 1
 1561 684 l 1
 1550 646 l 1
 1451 646 1402 622 1376 567 c 0
 1364 541 1350 498 1336 439 c 2
 1255 105 l 1
 1093 14 921 -30 739 -30 c 0
EndSplineSet
EndChar

StartChar: u1D4A2
Encoding: 119970 119970 139
Width: 1372
GlyphClass: 1
Flags: HW
LayerCount: 2
Fore
SplineSet
808 -18 m 0
 571 -18 437 75 437 215 c 0
 437 312 512 378 599 378 c 0
 670 378 712 336 712 281 c 0
 712 224 686 196 599 176 c 0
 554 166 532 145 532 117 c 0
 532 95 553 73 591 51 c 0
 629 29 682 18 747 18 c 0
 820 18 886 44 949 103 c 0
 1012 162 1093 281 1192 461 c 1
 1117 423 1047 403 974 403 c 0
 871 403 804 437 733 518 c 1
 709 516 682 514 658 514 c 0
 454 514 302 640 302 820 c 0
 302 964 393 1099 551 1182 c 0
 632 1225 694 1245 741 1245 c 0
 755 1245 761 1241 761 1231 c 0
 761 1223 759 1218 751 1216 c 0
 745 1214 733 1210 723 1206 c 0
 525 1127 385 921 385 767 c 0
 385 629 494 540 648 540 c 0
 670 540 692 542 714 546 c 1
 688 609 676 668 676 719 c 0
 676 1027 1080 1267 1305 1267 c 0
 1410 1267 1480 1204 1480 1115 c 0
 1480 992 1331 796 1123 654 c 0
 1020 585 915 540 808 524 c 1
 826 463 885 435 978 435 c 0
 1108 435 1243 506 1350 589 c 0
 1403 629 1437 650 1449 650 c 2
 1461 646 l 1
 1453 636 l 2
 1419 606 1390 553 1370 480 c 2
 1344 387 l 2
 1285 183 1217 89 1065 28 c 0
 990 -2 903 -18 808 -18 c 0
804 555 m 1
 1114 616 1447 961 1447 1125 c 0
 1447 1192 1407 1235 1344 1235 c 0
 1239 1235 1067 1083 927 858 c 0
 858 747 816 644 804 555 c 1
EndSplineSet
EndChar

StartChar: H
Encoding: 72 72 140
Width: 1499
GlyphClass: 2
Flags: HW
AnchorPoint: "Anchor-1" 745 0 basechar 0
AnchorPoint: "Anchor-0" 751 1445 basechar 0
LayerCount: 2
Fore
SplineSet
196 0 m 1
 196 1445 l 1
 378 1445 l 1
 378 834 l 1
 1119 834 l 1
 1119 1445 l 1
 1301 1445 l 1
 1301 0 l 1
 1119 0 l 1
 1119 674 l 1
 378 674 l 1
 378 0 l 1
 196 0 l 1
EndSplineSet
EndChar

StartChar: uni210C
Encoding: 8460 8460 141
Width: 1382
GlyphClass: 1
Flags: HW
LayerCount: 2
Fore
SplineSet
289 257 m 0
 228 257 154 289 87 340 c 0
 71 352 59 356 45 356 c 0
 31 356 24 354 10 346 c 1
 -18 378 l 1
 136 522 l 1
 168 419 285 332 366 332 c 0
 429 332 476 390 476 447 c 0
 476 492 451 591 374 759 c 0
 279 965 241 1051 241 1075 c 0
 241 1095 257 1123 293 1172 c 0
 342 1237 439 1364 482 1413 c 0
 520 1456 549 1469 563 1469 c 0
 577 1469 617 1451 670 1425 c 0
 723 1399 739 1393 769 1393 c 0
 801 1393 824 1408 860 1451 c 1
 891 1423 l 1
 844 1362 803 1313 763 1273 c 0
 733 1243 720 1239 698 1239 c 0
 680 1239 640 1259 587 1285 c 0
 534 1311 510 1322 494 1322 c 0
 478 1322 459 1314 429 1271 c 0
 399 1228 387 1198 387 1172 c 0
 387 1132 407 1083 484 921 c 1
 559 978 641 1020 702 1048 c 0
 785 1086 838 1128 844 1156 c 1
 893 1156 l 1
 895 1140 905 1129 931 1115 c 2
 969 1095 l 2
 1165 992 1271 806 1271 585 c 0
 1271 312 1107 37 852 -12 c 2
 716 -38 l 2
 603 -60 579 -69 561 -83 c 1
 514 -73 l 1
 526 -10 492 30 421 30 c 0
 324 30 269 -45 269 -136 c 0
 269 -245 344 -314 443 -314 c 0
 518 -314 585 -275 615 -196 c 1
 662 -213 l 1
 628 -304 544 -360 443 -360 c 0
 311 -360 219 -268 219 -136 c 0
 219 -75 237 -24 271 12 c 0
 311 55 364 87 437 105 c 0
 488 117 557 148 575 178 c 1
 621 160 l 1
 603 120 625 99 688 59 c 2
 751 18 l 1
 964 46 1111 231 1111 492 c 0
 1111 790 925 972 753 972 c 0
 686 972 597 945 506 876 c 1
 611 661 621 572 621 540 c 0
 621 398 406 257 289 257 c 0
EndSplineSet
EndChar

StartChar: u1D407
Encoding: 119815 119815 142
Width: 1576
GlyphClass: 1
Flags: HW
LayerCount: 2
Fore
SplineSet
47 0 m 1
 47 53 l 1
 187 57 225 97 225 243 c 2
 225 1142 l 2
 225 1272 183 1314 49 1322 c 1
 49 1372 l 1
 729 1372 l 1
 729 1322 l 1
 579 1310 549 1288 549 1142 c 2
 549 755 l 1
 1030 755 l 1
 1030 1142 l 2
 1030 1286 1002 1310 850 1322 c 1
 850 1372 l 1
 1528 1372 l 1
 1528 1322 l 1
 1386 1310 1354 1276 1354 1142 c 2
 1354 243 l 2
 1354 107 1390 57 1528 53 c 1
 1528 0 l 1
 850 0 l 1
 850 53 l 1
 988 57 1030 89 1030 243 c 2
 1030 666 l 1
 549 666 l 1
 549 243 l 2
 549 97 585 57 729 53 c 1
 729 0 l 1
 47 0 l 1
EndSplineSet
EndChar

StartChar: u1D46F
Encoding: 119919 119919 143
Width: 1530
GlyphClass: 1
Flags: HW
LayerCount: 2
Fore
SplineSet
-101 0 m 1
 -101 47 l 1
 24 47 68 79 117 257 c 2
 346 1111 l 2
 356 1147 362 1182 362 1216 c 0
 362 1279 318 1306 221 1310 c 1
 221 1358 l 1
 854 1358 l 1
 854 1310 l 1
 722 1310 685 1273 638 1101 c 2
 544 759 l 1
 1028 759 l 1
 1123 1111 l 2
 1133 1149 1140 1186 1140 1216 c 0
 1140 1279 1095 1306 996 1310 c 1
 996 1358 l 1
 1631 1358 l 1
 1631 1310 l 1
 1506 1310 1464 1285 1417 1111 c 2
 1186 247 l 2
 1174 198 1168 164 1168 144 c 0
 1168 79 1211 51 1310 47 c 1
 1310 0 l 1
 676 0 l 1
 676 47 l 1
 801 47 846 79 895 257 c 2
 1004 666 l 1
 520 666 l 1
 409 247 l 2
 397 198 391 164 391 142 c 0
 391 83 437 51 532 47 c 1
 532 0 l 1
 -101 0 l 1
EndSplineSet
EndChar

StartChar: u1D4D7
Encoding: 120023 120023 144
Width: 1708
GlyphClass: 1
Flags: HW
LayerCount: 2
Fore
SplineSet
336 -24 m 0
 111 -24 -14 70 -14 206 c 0
 -14 319 71 399 182 399 c 0
 265 399 324 350 324 279 c 0
 324 216 259 184 184 172 c 0
 148 166 130 149 130 121 c 0
 130 83 194 32 291 32 c 0
 453 32 557 156 668 413 c 1
 638 403 585 379 508 336 c 0
 498 330 482 322 474 322 c 0
 448 322 433 330 433 344 c 0
 433 356 459 379 512 407 c 0
 565 435 631 464 708 490 c 1
 779 620 866 745 967 864 c 1
 854 781 767 739 708 739 c 0
 643 739 597 777 597 824 c 0
 597 854 619 892 662 941 c 0
 705 990 727 1016 727 1024 c 0
 727 1030 723 1034 719 1034 c 0
 668 1034 544 951 445 834 c 0
 394 773 362 743 348 743 c 0
 320 743 306 753 306 769 c 0
 306 793 490 975 595 1040 c 0
 648 1072 697 1089 737 1089 c 0
 816 1089 870 1049 870 986 c 0
 870 952 854 903 820 842 c 1
 881 876 966 939 1077 1032 c 0
 1186 1123 1259 1170 1291 1170 c 0
 1305 1170 1324 1160 1324 1152 c 0
 1324 1144 1313 1129 1289 1109 c 0
 1265 1089 1227 1034 1174 943 c 0
 1121 852 1074 731 1038 577 c 1
 1180 623 l 1
 1429 1016 1694 1259 1884 1259 c 0
 1989 1259 2052 1202 2052 1123 c 0
 2052 1054 1999 973 1894 884 c 0
 1787 793 1639 713 1453 638 c 1
 1372 482 1317 360 1285 279 c 0
 1253 196 1237 146 1237 130 c 0
 1237 96 1251 77 1281 77 c 0
 1463 77 1678 269 1844 429 c 0
 1927 508 1984 549 2016 549 c 0
 2032 549 2048 546 2062 540 c 1
 2011 512 1962 470 1911 417 c 0
 1810 310 1595 106 1453 45 c 0
 1382 15 1308 -2 1233 -2 c 0
 1103 -2 1034 91 1034 233 c 0
 1034 304 1083 448 1140 553 c 1
 1016 514 l 1
 884 174 627 -24 336 -24 c 0
1500 725 m 1
 1747 840 1911 1026 1911 1137 c 0
 1911 1180 1896 1202 1870 1202 c 0
 1823 1202 1769 1164 1706 1087 c 0
 1641 1008 1573 887 1500 725 c 1
EndSplineSet
EndChar

StartChar: uni210D
Encoding: 8461 8461 145
Width: 1572
GlyphClass: 1
Flags: HW
LayerCount: 2
Fore
SplineSet
196 0 m 1
 196 1445 l 1
 546 1445 l 1
 546 810 l 1
 1026 810 l 1
 1026 1445 l 1
 1376 1445 l 1
 1376 0 l 1
 1026 0 l 1
 1026 702 l 1
 546 702 l 1
 546 0 l 1
 196 0 l 1
304 107 m 1
 439 107 l 1
 439 1338 l 1
 304 1338 l 1
 304 107 l 1
1133 107 m 1
 1269 107 l 1
 1269 1338 l 1
 1133 1338 l 1
 1133 107 l 1
EndSplineSet
EndChar

StartChar: u1D43B
Encoding: 119867 119867 146
Width: 1568
GlyphClass: 1
Flags: HW
LayerCount: 2
Fore
SplineSet
-101 0 m 1
 -91 40 l 1
 -83 40 l 2
 42 40 87 73 125 219 c 2
 378 1160 l 2
 390 1207 397 1241 397 1263 c 0
 397 1330 352 1354 245 1360 c 1
 255 1401 l 1
 814 1401 l 1
 804 1360 l 1
 795 1360 l 2
 674 1360 625 1326 585 1174 c 2
 500 860 l 2
 496 848 492 828 492 816 c 0
 492 788 512 781 559 781 c 2
 1077 781 l 2
 1122 781 1138 788 1148 826 c 2
 1237 1160 l 2
 1249 1205 1255 1239 1255 1263 c 0
 1255 1330 1208 1354 1101 1360 c 1
 1113 1401 l 1
 1672 1401 l 1
 1660 1360 l 1
 1643 1360 l 2
 1528 1360 1479 1320 1443 1182 c 2
 1192 241 l 2
 1180 194 1172 160 1172 136 c 0
 1172 69 1219 44 1326 40 c 1
 1316 0 l 1
 757 0 l 1
 767 40 l 1
 775 40 l 2
 903 40 946 73 984 219 c 2
 1097 640 l 2
 1099 650 1101 660 1101 670 c 0
 1101 698 1079 704 1034 704 c 2
 518 704 l 2
 471 704 457 698 447 662 c 2
 334 241 l 2
 322 194 314 160 314 136 c 0
 314 69 361 44 468 40 c 1
 457 0 l 1
 -101 0 l 1
EndSplineSet
EndChar

StartChar: uni210B
Encoding: 8459 8459 147
Width: 2141
GlyphClass: 1
Flags: HW
LayerCount: 2
Fore
SplineSet
310 -20 m 0
 0 -20 -8 234 -8 281 c 0
 -8 388 69 474 160 474 c 0
 257 474 287 404 287 364 c 0
 287 277 237 245 178 237 c 0
 131 231 67 243 67 180 c 0
 67 158 83 16 314 16 c 0
 490 16 581 148 682 352 c 0
 712 413 743 478 775 549 c 1
 605 486 502 389 435 314 c 1
 407 342 l 1
 472 417 615 534 777 589 c 2
 799 597 l 1
 886 777 982 968 1152 1176 c 1
 1022 1057 816 897 729 897 c 0
 672 897 636 937 636 992 c 0
 636 1028 676 1093 714 1150 c 0
 748 1201 781 1249 781 1261 c 0
 781 1267 779 1275 755 1275 c 0
 672 1275 502 1125 352 919 c 1
 324 941 l 1
 441 1101 641 1312 771 1312 c 0
 870 1312 870 1232 870 1214 c 0
 870 1186 866 1157 850 1125 c 0
 834 1093 785 1030 769 1010 c 0
 751 986 741 969 741 959 c 0
 741 949 745 939 761 939 c 0
 830 939 1174 1221 1374 1407 c 1
 1395 1380 l 1
 1221 1198 1170 1030 1065 680 c 1
 1142 702 1220 727 1297 753 c 1
 1495 1119 1815 1502 2046 1502 c 0
 2137 1502 2190 1453 2190 1364 c 0
 2190 1253 2040 1000 1686 850 c 0
 1633 828 1571 805 1500 781 c 1
 1350 449 1253 116 1253 57 c 0
 1253 41 1263 18 1301 18 c 0
 1404 18 1639 279 1686 332 c 1
 1726 332 l 1
 1675 267 1437 -18 1295 -18 c 0
 1206 -18 1111 57 1111 235 c 0
 1111 344 1174 520 1271 706 c 1
 1050 638 l 1
 1040 603 l 2
 959 330 721 -20 310 -20 c 0
1522 826 m 1
 1558 838 1591 850 1666 882 c 0
 1852 963 2123 1263 2123 1397 c 0
 2123 1444 2086 1463 2046 1463 c 0
 2006 1463 1878 1433 1694 1146 c 0
 1631 1049 1575 939 1522 826 c 1
EndSplineSet
EndChar

StartChar: I
Encoding: 73 73 148
Width: 686
GlyphClass: 2
Flags: HW
AnchorPoint: "Anchor-1" 344 0 basechar 0
AnchorPoint: "Anchor-0" 344 1445 basechar 0
LayerCount: 2
Fore
SplineSet
81 0 m 1
 81 105 l 1
 251 144 l 1
 251 1299 l 1
 81 1340 l 1
 81 1445 l 1
 603 1445 l 1
 603 1340 l 1
 433 1299 l 1
 433 144 l 1
 603 105 l 1
 603 0 l 1
 81 0 l 1
EndSplineSet
EndChar

StartChar: uni2111
Encoding: 8465 8465 149
Width: 1179
GlyphClass: 1
Flags: HW
LayerCount: 2
Fore
SplineSet
342 826 m 1
 164 856 63 969 63 1115 c 0
 63 1257 156 1354 300 1411 c 0
 371 1439 417 1449 441 1449 c 0
 465 1449 478 1460 478 1480 c 1
 522 1480 l 1
 522 1478 l 2
 522 1464 543 1449 581 1427 c 2
 751 1330 l 2
 832 1283 885 1257 915 1257 c 0
 953 1257 1014 1294 1014 1320 c 0
 1014 1334 1006 1350 988 1368 c 1
 988 1390 1010 1411 1038 1411 c 0
 1068 1411 1089 1386 1089 1348 c 0
 1089 1259 838 1140 777 1140 c 0
 745 1140 703 1158 648 1196 c 0
 543 1271 439 1326 340 1326 c 0
 215 1326 109 1232 109 1115 c 0
 109 994 200 892 354 872 c 1
 342 826 l 1
419 -43 m 1
 378 -24 l 1
 378 114 300 188 219 188 c 0
 164 188 107 156 79 73 c 1
 36 85 l 1
 68 210 156 255 255 255 c 0
 285 255 312 251 336 245 c 0
 360 239 383 237 401 237 c 0
 419 237 437 243 455 255 c 1
 490 237 l 2
 488 231 488 225 488 219 c 0
 488 130 562 55 694 55 c 0
 832 55 919 136 919 239 c 0
 919 288 901 334 804 514 c 0
 707 694 674 789 674 836 c 0
 674 953 857 1129 982 1129 c 0
 1035 1129 1067 1110 1067 1063 c 0
 1067 1025 1050 1004 1018 1004 c 0
 1008 1004 996 1010 988 1018 c 0
 990 1024 992 1030 992 1036 c 0
 992 1056 975 1071 949 1071 c 0
 898 1071 826 1026 826 935 c 0
 826 886 844 825 947 627 c 0
 1050 429 1069 379 1069 334 c 0
 1069 239 945 87 860 40 c 0
 775 -7 680 -10 504 -10 c 0
 470 -10 441 -21 419 -43 c 1
EndSplineSet
EndChar

StartChar: u1D408
Encoding: 119816 119816 150
Width: 785
GlyphClass: 1
Flags: HW
LayerCount: 2
Fore
SplineSet
40 0 m 1
 40 53 l 1
 176 65 227 99 227 227 c 2
 227 1166 l 2
 227 1289 190 1316 40 1322 c 1
 40 1372 l 1
 737 1372 l 1
 737 1322 l 1
 593 1316 551 1289 551 1166 c 2
 551 233 l 2
 551 105 583 69 741 53 c 1
 741 0 l 1
 40 0 l 1
EndSplineSet
EndChar

StartChar: u1D470
Encoding: 119920 119920 151
Width: 750
GlyphClass: 1
Flags: HW
LayerCount: 2
Fore
SplineSet
-101 0 m 1
 -101 47 l 1
 24 47 68 79 117 257 c 2
 346 1111 l 2
 356 1147 362 1182 362 1216 c 0
 362 1273 314 1306 219 1310 c 1
 219 1358 l 1
 854 1358 l 1
 854 1310 l 1
 759 1310 714 1286 684 1235 c 0
 670 1211 654 1166 636 1101 c 2
 407 247 l 2
 395 200 389 166 389 142 c 0
 389 83 437 51 532 47 c 1
 532 0 l 1
 -101 0 l 1
EndSplineSet
EndChar

StartChar: u1D4D8
Encoding: 120024 120024 152
Width: 1275
GlyphClass: 1
Flags: HW
LayerCount: 2
Fore
SplineSet
447 -14 m 0
 243 -14 101 85 101 217 c 0
 101 324 191 411 306 411 c 0
 389 411 435 367 435 296 c 0
 435 217 361 198 296 188 c 0
 264 182 247 168 247 146 c 0
 247 95 334 40 423 40 c 0
 577 40 715 153 804 372 c 1
 634 400 532 516 532 662 c 0
 532 864 779 1075 1115 1184 c 0
 1281 1239 1453 1265 1629 1265 c 0
 1663 1265 1682 1257 1682 1243 c 0
 1682 1225 1660 1216 1617 1216 c 0
 1510 1216 1419 1085 1334 899 c 0
 1291 804 1229 655 1148 449 c 1
 1257 483 1326 553 1356 656 c 0
 1360 672 1364 692 1364 708 c 0
 1366 740 1372 781 1376 789 c 0
 1378 795 1384 797 1390 797 c 0
 1416 797 1429 783 1429 755 c 0
 1429 553 1319 421 1111 385 c 1
 992 136 732 -14 447 -14 c 0
832 427 m 1
 1000 810 1172 1058 1413 1194 c 1
 1144 1154 936 1020 802 832 c 0
 735 737 700 654 700 579 c 0
 700 492 745 441 832 427 c 1
EndSplineSet
EndChar

StartChar: u1D540
Encoding: 120128 120128 153
Width: 661
GlyphClass: 1
Flags: HW
LayerCount: 2
Fore
SplineSet
156 0 m 1
 156 1445 l 1
 506 1445 l 1
 506 0 l 1
 156 0 l 1
263 107 m 1
 399 107 l 1
 399 1338 l 1
 263 1338 l 1
 263 107 l 1
EndSplineSet
EndChar

StartChar: u1D43C
Encoding: 119868 119868 154
Width: 738
GlyphClass: 1
Flags: HW
LayerCount: 2
Fore
SplineSet
-93 0 m 1
 -81 40 l 1
 -73 40 l 2
 55 40 96 71 136 219 c 2
 389 1160 l 2
 401 1207 407 1241 407 1263 c 0
 407 1330 360 1354 253 1360 c 1
 265 1401 l 1
 830 1401 l 1
 820 1360 l 1
 804 1360 l 2
 689 1360 639 1320 603 1182 c 2
 350 241 l 2
 338 194 332 158 332 136 c 0
 332 69 377 44 484 40 c 1
 474 0 l 1
 -93 0 l 1
EndSplineSet
EndChar

StartChar: Iota
Encoding: 921 921 155
Width: 686
GlyphClass: 2
Flags: HW
AnchorPoint: "Anchor-1" 344 0 basechar 0
AnchorPoint: "Anchor-0" 344 1445 basechar 0
LayerCount: 2
Fore
SplineSet
81 0 m 1
 81 105 l 1
 251 144 l 1
 251 1299 l 1
 81 1340 l 1
 81 1445 l 1
 603 1445 l 1
 603 1340 l 1
 433 1299 l 1
 433 144 l 1
 603 105 l 1
 603 0 l 1
 81 0 l 1
EndSplineSet
EndChar

StartChar: uni2110
Encoding: 8464 8464 156
Width: 1503
GlyphClass: 1
Flags: HW
LayerCount: 2
Fore
SplineSet
310 -20 m 0
 23 -20 -8 192 -8 281 c 0
 -8 388 69 474 160 474 c 0
 257 474 287 404 287 364 c 0
 287 277 233 237 170 237 c 0
 93 237 67 220 67 180 c 0
 67 131 102 16 304 16 c 0
 476 16 589 190 712 431 c 1
 530 471 447 632 447 757 c 0
 447 982 612 1206 1063 1374 c 0
 1237 1439 1417 1467 1565 1467 c 1
 1565 1437 l 1
 1423 1427 1344 1338 1275 1188 c 0
 1237 1103 1198 999 1160 880 c 0
 1134 799 1105 714 1071 621 c 0
 1057 581 1030 522 1010 482 c 1
 1146 522 1289 625 1289 840 c 0
 1289 883 1285 919 1279 939 c 1
 1316 941 l 1
 1322 921 1326 882 1326 846 c 0
 1326 727 1283 516 996 441 c 1
 879 208 644 -20 310 -20 c 0
729 463 m 1
 753 516 784 574 814 631 c 0
 897 791 988 965 1103 1117 c 0
 1190 1232 1290 1338 1407 1423 c 1
 1338 1411 1253 1388 1192 1368 c 0
 864 1257 561 919 561 660 c 0
 561 514 658 483 729 463 c 1
EndSplineSet
EndChar

StartChar: J
Encoding: 74 74 157
Width: 552
GlyphClass: 2
Flags: HW
AnchorPoint: "Anchor-1" -8 -344 basechar 0
AnchorPoint: "Anchor-0" 277 1445 basechar 0
LayerCount: 2
Fore
SplineSet
-8 -385 m 0
 -73 -385 -122 -374 -158 -358 c 1
 -158 -204 l 1
 -115 -216 -67 -225 -12 -225 c 0
 89 -225 186 -176 186 8 c 2
 186 1445 l 1
 368 1445 l 1
 368 22 l 2
 368 -257 219 -385 -8 -385 c 0
EndSplineSet
EndChar

StartChar: u1D50D
Encoding: 120077 120077 158
Width: 1179
GlyphClass: 1
Flags: HW
LayerCount: 2
Fore
SplineSet
336 822 m 1
 158 852 57 965 57 1111 c 0
 57 1253 147 1352 287 1407 c 0
 358 1435 405 1445 429 1445 c 0
 453 1445 466 1455 466 1475 c 1
 510 1475 l 1
 510 1473 l 2
 510 1459 531 1445 569 1423 c 2
 739 1326 l 2
 820 1279 873 1253 903 1253 c 0
 941 1253 1002 1290 1002 1316 c 0
 1002 1330 994 1346 976 1364 c 1
 976 1386 998 1407 1026 1407 c 0
 1056 1407 1077 1382 1077 1344 c 0
 1077 1255 826 1135 765 1135 c 0
 733 1135 691 1154 636 1192 c 0
 529 1265 427 1322 328 1322 c 0
 207 1322 103 1228 103 1111 c 0
 103 990 194 888 348 868 c 1
 336 822 l 1
437 -332 m 1
 397 -314 l 1
 383 -191 295 -95 208 -95 c 0
 153 -95 111 -127 85 -196 c 1
 43 -184 l 1
 79 -79 148 -26 247 -26 c 0
 277 -26 304 -30 328 -36 c 0
 352 -42 375 -45 393 -45 c 0
 411 -45 429 -38 447 -26 c 1
 482 -45 l 2
 480 -51 480 -57 480 -63 c 0
 480 -152 581 -243 702 -243 c 0
 840 -243 929 -166 929 -47 c 0
 929 4 914 71 880 152 c 0
 813 312 654 698 654 789 c 0
 654 896 836 1129 972 1129 c 0
 1027 1129 1055 1106 1055 1059 c 0
 1055 1021 1038 1000 1006 1000 c 0
 996 1000 984 1006 976 1014 c 0
 978 1020 980 1026 980 1032 c 0
 980 1052 963 1063 933 1063 c 0
 868 1063 812 996 812 893 c 0
 812 834 830 763 862 684 c 2
 982 395 l 2
 1049 233 1083 122 1083 61 c 0
 1083 -69 933 -237 814 -273 c 0
 753 -291 656 -300 522 -300 c 0
 488 -300 459 -310 437 -332 c 1
EndSplineSet
EndChar

StartChar: u1D409
Encoding: 119817 119817 159
Width: 995
GlyphClass: 1
Flags: HW
LayerCount: 2
Fore
SplineSet
328 -196 m 0
 134 -196 -10 -83 -10 69 c 0
 -10 166 55 225 134 225 c 0
 219 225 279 168 279 83 c 0
 279 53 271 24 255 -4 c 0
 239 -32 231 -49 231 -59 c 0
 231 -102 259 -121 316 -121 c 0
 415 -121 445 -60 445 65 c 2
 445 1105 l 2
 445 1269 407 1310 239 1322 c 1
 239 1372 l 1
 947 1372 l 1
 947 1322 l 1
 795 1310 769 1281 769 1105 c 2
 769 267 l 2
 769 -43 621 -196 328 -196 c 0
EndSplineSet
EndChar

StartChar: u1D471
Encoding: 119921 119921 160
Width: 898
GlyphClass: 1
Flags: HW
LayerCount: 2
Fore
SplineSet
95 -208 m 0
 -101 -208 -198 -140 -198 0 c 0
 -198 79 -142 142 -59 142 c 0
 14 142 61 99 61 36 c 0
 61 12 54 -21 38 -47 c 0
 22 -73 16 -87 16 -97 c 0
 16 -117 33 -132 65 -132 c 0
 138 -132 170 -73 204 55 c 2
 490 1111 l 2
 500 1151 506 1184 506 1208 c 0
 506 1281 463 1302 362 1310 c 1
 362 1358 l 1
 996 1358 l 1
 996 1310 l 1
 864 1310 826 1275 779 1101 c 2
 520 132 l 2
 455 -109 328 -208 95 -208 c 0
EndSplineSet
EndChar

StartChar: u1D4D9
Encoding: 120025 120025 161
Width: 1068
GlyphClass: 1
Flags: HW
LayerCount: 2
Fore
SplineSet
-2 -524 m 0
 -140 -524 -208 -461 -208 -338 c 0
 -208 -188 -55 -20 194 97 c 0
 317 156 455 199 605 221 c 1
 838 674 941 852 1085 1018 c 0
 1156 1101 1231 1164 1310 1202 c 1
 1057 1164 779 1022 619 812 c 0
 540 707 500 622 500 557 c 0
 500 490 526 455 581 455 c 0
 595 455 614 460 634 466 c 0
 654 472 670 476 678 476 c 0
 696 476 706 465 706 449 c 0
 706 439 694 427 672 421 c 0
 646 413 617 409 581 409 c 0
 451 409 360 497 360 629 c 0
 360 846 624 1069 972 1180 c 0
 1146 1237 1316 1265 1482 1265 c 0
 1525 1265 1544 1257 1544 1241 c 0
 1544 1237 1544 1233 1538 1229 c 0
 1530 1225 1509 1220 1469 1212 c 0
 1429 1204 1387 1182 1342 1144 c 0
 1299 1106 1235 989 1150 793 c 0
 1065 597 978 405 889 223 c 1
 996 205 1059 142 1059 55 c 0
 1059 -99 884 -229 682 -229 c 0
 646 -229 627 -218 627 -202 c 0
 627 -188 649 -178 694 -174 c 0
 781 -166 886 -134 951 -63 c 0
 983 -27 1000 12 1000 55 c 0
 1000 126 931 170 856 178 c 1
 643 -225 241 -524 -2 -524 c 0
-4 -468 m 0
 71 -468 152 -417 243 -312 c 0
 332 -209 443 -51 577 164 c 1
 373 132 162 0 22 -174 c 0
 -49 -261 -83 -329 -83 -376 c 0
 -83 -437 -57 -468 -4 -468 c 0
EndSplineSet
EndChar

StartChar: u1D541
Encoding: 120129 120129 162
Width: 837
GlyphClass: 1
Flags: HW
LayerCount: 2
Fore
SplineSet
277 -20 m 0
 182 -20 57 0 0 30 c 1
 0 138 l 1
 79 102 170 83 277 83 c 0
 313 83 338 85 346 89 c 1
 346 1445 l 1
 696 1445 l 1
 696 492 l 2
 696 128 566 -20 277 -20 c 0
453 115 m 1
 548 164 589 290 589 488 c 2
 589 1338 l 1
 453 1338 l 1
 453 115 l 1
EndSplineSet
EndChar

StartChar: u1D43D
Encoding: 119869 119869 163
Width: 773
GlyphClass: 1
Flags: HW
LayerCount: 2
Fore
SplineSet
67 -30 m 0
 -71 -30 -154 45 -154 148 c 0
 -154 213 -112 261 -49 261 c 0
 8 261 53 221 53 166 c 0
 53 150 47 131 43 119 c 0
 37 103 34 93 34 79 c 0
 34 45 51 28 83 28 c 0
 113 28 138 43 154 79 c 0
 168 111 186 162 204 231 c 2
 445 1144 l 2
 461 1209 470 1249 470 1267 c 0
 470 1338 417 1350 289 1356 c 1
 304 1401 l 1
 882 1401 l 1
 870 1360 l 1
 745 1360 702 1332 668 1198 c 2
 459 405 l 2
 382 109 257 -30 67 -30 c 0
EndSplineSet
EndChar

StartChar: u1D4A5
Encoding: 119973 119973 164
Width: 1068
GlyphClass: 1
Flags: HW
LayerCount: 2
Fore
SplineSet
-8 -532 m 0
 -127 -532 -188 -473 -188 -354 c 0
 -188 -204 -24 -28 223 89 c 0
 346 148 481 188 631 208 c 1
 813 564 960 813 1069 955 c 0
 1178 1097 1288 1187 1399 1227 c 1
 1101 1215 787 1051 607 826 c 0
 518 715 474 624 474 555 c 0
 474 484 514 443 585 443 c 0
 609 443 628 447 642 453 c 0
 656 459 666 461 670 461 c 0
 678 461 684 457 684 447 c 0
 684 437 674 427 656 423 c 0
 636 419 611 415 585 415 c 0
 472 415 389 499 389 629 c 0
 389 823 577 1024 941 1162 c 0
 1123 1231 1310 1265 1500 1265 c 0
 1524 1265 1536 1261 1536 1251 c 0
 1536 1245 1530 1241 1526 1239 c 0
 1520 1237 1509 1235 1475 1229 c 0
 1410 1219 1344 1188 1267 1065 c 0
 1229 1004 1168 872 1081 674 c 0
 994 478 923 321 864 208 c 1
 985 204 1052 140 1052 45 c 0
 1052 -95 862 -233 688 -233 c 0
 670 -233 660 -227 660 -217 c 0
 660 -211 664 -208 672 -204 c 0
 678 -202 688 -200 702 -198 c 0
 880 -178 1016 -68 1016 45 c 0
 1016 134 959 180 844 180 c 1
 623 -243 211 -532 -8 -532 c 0
-10 -496 m 0
 65 -496 148 -449 241 -356 c 0
 332 -265 459 -87 619 172 c 1
 255 144 -117 -227 -117 -393 c 0
 -117 -462 -83 -496 -10 -496 c 0
EndSplineSet
EndChar

StartChar: K
Encoding: 75 75 165
Width: 1252
GlyphClass: 2
Flags: HW
AnchorPoint: "Anchor-1" 668 0 basechar 0
AnchorPoint: "Anchor-0" 688 1445 basechar 0
LayerCount: 2
Fore
SplineSet
196 0 m 1
 196 1445 l 1
 378 1445 l 1
 378 733 l 1
 461 824 544 915 627 1008 c 2
 1018 1445 l 1
 1231 1445 l 1
 658 816 l 1
 1253 0 l 1
 1038 0 l 1
 526 690 l 1
 378 561 l 1
 378 0 l 1
 196 0 l 1
EndSplineSet
EndChar

StartChar: u1D50E
Encoding: 120078 120078 166
Width: 1311
GlyphClass: 1
Flags: HW
LayerCount: 2
Fore
SplineSet
368 -47 m 0
 321 -47 279 -40 243 -30 c 0
 207 -20 172 -14 144 -14 c 0
 120 -14 97 -20 75 -34 c 1
 38 -12 l 1
 46 8 51 27 51 45 c 0
 51 108 36 154 8 186 c 1
 38 225 l 1
 60 213 85 208 113 208 c 0
 160 208 193 221 215 243 c 1
 251 219 l 1
 237 187 229 156 229 130 c 0
 229 51 277 0 364 0 c 0
 469 0 522 63 522 186 c 0
 522 334 450 518 302 743 c 0
 215 875 170 960 170 1000 c 0
 170 1099 332 1316 506 1405 c 0
 593 1450 688 1471 787 1471 c 0
 981 1471 1146 1395 1257 1251 c 0
 1312 1180 1338 1111 1338 1050 c 0
 1338 1003 1316 982 1271 982 c 0
 1255 982 1243 988 1233 998 c 1
 1237 1020 1241 1045 1241 1067 c 0
 1241 1253 1042 1423 799 1423 c 0
 554 1423 338 1257 338 1073 c 0
 338 1041 359 988 395 921 c 0
 433 850 492 749 575 611 c 1
 579 613 l 1
 514 836 l 2
 504 870 500 899 500 921 c 0
 500 966 514 1004 546 1036 c 0
 576 1066 644 1108 745 1148 c 0
 763 1156 784 1166 802 1176 c 0
 818 1184 834 1198 848 1218 c 1
 889 1218 l 1
 940 1125 985 1055 1030 1010 c 0
 1075 963 1101 939 1111 939 c 2
 1113 939 l 1
 1113 897 l 1
 1064 869 981 814 864 735 c 1
 892 727 919 703 937 658 c 0
 957 611 988 532 1028 421 c 0
 1068 308 1099 229 1123 180 c 0
 1147 131 1174 107 1208 107 c 0
 1228 107 1253 116 1281 132 c 1
 1308 99 l 1
 1146 -40 l 1
 1123 -43 l 2
 1048 -43 990 79 972 117 c 0
 944 174 915 245 891 312 c 0
 869 375 846 437 830 482 c 0
 794 589 757 638 725 638 c 0
 703 638 662 614 601 565 c 1
 635 476 654 385 654 296 c 0
 654 71 546 -47 368 -47 c 0
615 636 m 1
 895 814 l 2
 917 828 929 844 929 858 c 0
 929 888 798 1071 735 1071 c 0
 660 1071 544 992 544 913 c 0
 544 893 549 874 553 858 c 2
 615 636 l 1
EndSplineSet
EndChar

StartChar: Kappa
Encoding: 922 922 167
Width: 1252
GlyphClass: 2
Flags: HW
AnchorPoint: "Anchor-1" 668 0 basechar 0
AnchorPoint: "Anchor-0" 688 1445 basechar 0
LayerCount: 2
Fore
SplineSet
196 0 m 1
 196 1445 l 1
 378 1445 l 1
 378 733 l 1
 461 824 544 915 627 1008 c 2
 1018 1445 l 1
 1231 1445 l 1
 658 816 l 1
 1253 0 l 1
 1038 0 l 1
 526 690 l 1
 378 561 l 1
 378 0 l 1
 196 0 l 1
EndSplineSet
EndChar

StartChar: u1D40A
Encoding: 119818 119818 168
Width: 1538
GlyphClass: 1
Flags: HW
LayerCount: 2
Fore
SplineSet
49 0 m 1
 49 53 l 1
 189 57 227 97 227 243 c 2
 227 1142 l 2
 227 1272 187 1316 51 1322 c 1
 51 1372 l 1
 731 1372 l 1
 731 1322 l 1
 581 1310 551 1288 551 1142 c 2
 551 704 l 1
 967 1125 l 2
 1022 1180 1050 1227 1050 1261 c 0
 1050 1301 991 1322 876 1322 c 1
 876 1372 l 1
 1463 1372 l 1
 1463 1322 l 1
 1437 1322 l 2
 1322 1322 1188 1243 1038 1087 c 2
 816 858 l 1
 1397 140 l 2
 1446 81 1480 55 1565 53 c 1
 1565 0 l 1
 846 0 l 1
 846 53 l 1
 905 53 947 55 969 63 c 0
 991 71 1006 83 1006 103 c 0
 1006 123 987 155 953 198 c 2
 601 644 l 1
 551 597 l 1
 551 243 l 2
 551 97 587 57 731 53 c 1
 731 0 l 1
 49 0 l 1
EndSplineSet
EndChar

StartChar: u1D472
Encoding: 119922 119922 169
Width: 1285
GlyphClass: 1
Flags: HW
LayerCount: 2
Fore
SplineSet
-101 0 m 1
 -101 47 l 1
 24 47 68 79 117 257 c 2
 346 1111 l 2
 356 1151 362 1184 362 1208 c 0
 362 1281 324 1302 221 1310 c 1
 221 1358 l 1
 854 1358 l 1
 854 1310 l 1
 722 1310 685 1275 638 1101 c 2
 538 729 l 1
 538 723 l 1
 542 719 l 1
 561 729 l 1
 919 1055 l 2
 1022 1148 1075 1213 1075 1247 c 0
 1075 1283 1038 1306 965 1314 c 1
 965 1358 l 1
 1384 1358 l 1
 1384 1310 l 1
 1368 1310 l 2
 1332 1310 1265 1269 1172 1182 c 2
 769 806 l 1
 1065 170 l 2
 1103 89 1131 57 1214 53 c 1
 1214 0 l 1
 646 0 l 1
 646 53 l 1
 678 53 l 2
 753 53 777 72 777 119 c 0
 777 139 763 182 733 247 c 2
 542 652 l 2
 538 662 532 666 526 666 c 0
 522 666 518 660 514 646 c 2
 409 247 l 2
 397 198 391 164 391 142 c 0
 391 77 433 51 532 47 c 1
 532 0 l 1
 -101 0 l 1
EndSplineSet
EndChar

StartChar: u1D4DA
Encoding: 120026 120026 170
Width: 1540
GlyphClass: 1
Flags: HW
LayerCount: 2
Fore
SplineSet
1239 -12 m 0
 1138 -12 1073 53 1073 150 c 0
 1073 203 1097 265 1144 340 c 0
 1191 417 1214 479 1214 532 c 0
 1214 544 1212 557 1204 571 c 1
 1190 569 1170 567 1152 567 c 0
 1105 567 1081 579 1081 603 c 0
 1081 625 1109 644 1158 644 c 0
 1182 644 1211 634 1233 634 c 0
 1257 634 1288 657 1322 704 c 0
 1356 751 1393 807 1433 876 c 0
 1512 1012 1613 1115 1759 1194 c 0
 1830 1232 1883 1253 1917 1253 c 0
 1943 1253 1957 1249 1957 1243 c 0
 1957 1237 1949 1231 1935 1225 c 2
 1870 1190 l 2
 1801 1154 1746 1097 1714 1030 c 0
 1645 890 1497 664 1287 599 c 1
 1350 563 1390 490 1390 409 c 0
 1390 362 1374 287 1338 176 c 0
 1334 162 1326 131 1326 125 c 0
 1326 111 1332 103 1346 103 c 0
 1366 103 1443 176 1575 324 c 0
 1707 472 1790 544 1822 544 c 2
 1858 544 l 1
 1894 540 l 1
 1795 469 1646 314 1480 128 c 0
 1397 35 1316 -12 1239 -12 c 0
300 -32 m 0
 83 -32 -67 60 -67 194 c 0
 -67 305 19 383 134 383 c 0
 221 383 271 344 271 277 c 0
 271 202 223 174 146 170 c 0
 108 168 89 151 89 121 c 0
 89 72 162 24 265 24 c 0
 338 24 400 48 457 101 c 0
 512 152 587 263 682 431 c 0
 777 599 860 733 933 830 c 1
 824 759 745 725 694 725 c 0
 619 725 567 759 567 822 c 0
 567 860 618 929 658 961 c 0
 678 977 688 992 688 1000 c 0
 688 1006 682 1008 672 1008 c 0
 603 1008 407 842 358 785 c 0
 334 757 316 741 302 741 c 0
 282 741 271 747 271 757 c 0
 271 797 552 1059 706 1059 c 0
 787 1059 832 1024 832 969 c 0
 832 933 806 881 755 808 c 1
 749 795 l 1
 757 789 l 1
 771 789 811 808 882 848 c 0
 953 888 1026 941 1101 1012 c 2
 1237 1140 l 2
 1277 1176 1306 1196 1324 1196 c 2
 1348 1196 l 1
 1360 1192 l 1
 1360 1182 1350 1172 1328 1158 c 0
 1306 1144 1274 1103 1231 1036 c 0
 1188 969 1151 878 1117 761 c 0
 1048 528 937 317 830 206 c 0
 721 91 543 -32 300 -32 c 0
EndSplineSet
EndChar

StartChar: u1D542
Encoding: 120130 120130 171
Width: 1325
GlyphClass: 1
Flags: HW
LayerCount: 2
Fore
SplineSet
156 0 m 1
 156 1445 l 1
 506 1445 l 1
 506 860 l 1
 1101 1445 l 1
 1253 1445 l 1
 751 949 l 1
 1326 0 l 1
 921 0 l 1
 506 690 l 1
 506 0 l 1
 156 0 l 1
263 107 m 1
 399 107 l 1
 399 1338 l 1
 263 1338 l 1
 263 107 l 1
978 107 m 1
 1137 107 l 1
 674 872 l 1
 575 777 l 1
 978 107 l 1
EndSplineSet
EndChar

StartChar: u1D43E
Encoding: 119870 119870 172
Width: 1368
GlyphClass: 1
Flags: HW
LayerCount: 2
Fore
SplineSet
-101 0 m 1
 -91 40 l 1
 -83 40 l 2
 42 40 87 73 125 219 c 2
 378 1160 l 2
 390 1207 397 1241 397 1263 c 0
 397 1330 352 1354 245 1360 c 1
 255 1401 l 1
 810 1401 l 1
 797 1360 l 1
 781 1360 l 2
 672 1360 629 1334 591 1192 c 2
 486 799 l 2
 484 793 480 777 480 771 c 0
 480 759 484 753 494 753 c 0
 502 753 512 757 518 763 c 2
 1014 1162 l 2
 1091 1225 1129 1274 1129 1308 c 0
 1129 1342 1095 1360 1022 1360 c 2
 1010 1360 l 1
 1020 1401 l 1
 1510 1401 l 1
 1496 1362 l 1
 1486 1362 l 2
 1435 1362 1372 1338 1299 1285 c 0
 1226 1232 1131 1160 1014 1067 c 2
 672 795 l 1
 1071 208 l 2
 1150 93 1217 38 1320 38 c 1
 1310 0 l 1
 710 0 l 1
 723 38 l 1
 737 38 l 2
 826 38 866 56 866 111 c 0
 866 141 844 184 808 239 c 2
 506 686 l 2
 498 696 490 702 480 702 c 0
 464 702 455 694 451 676 c 2
 332 225 l 2
 322 187 316 158 316 140 c 0
 316 61 363 42 488 40 c 1
 478 0 l 1
 -101 0 l 1
EndSplineSet
EndChar

StartChar: u1D4A6
Encoding: 119974 119974 173
Width: 1459
GlyphClass: 1
Flags: HW
LayerCount: 2
Fore
SplineSet
1170 -12 m 0
 1083 -12 1030 47 1030 142 c 0
 1030 197 1052 267 1101 350 c 0
 1150 433 1174 494 1174 530 c 0
 1174 554 1164 575 1142 585 c 1
 1120 579 1097 575 1081 575 c 0
 1053 575 1038 585 1038 603 c 0
 1038 623 1055 634 1087 634 c 0
 1097 634 1111 631 1125 629 c 0
 1135 627 1160 623 1164 623 c 0
 1251 623 1311 720 1386 864 c 0
 1459 1006 1572 1115 1716 1194 c 0
 1787 1232 1834 1253 1858 1253 c 0
 1866 1253 1872 1249 1872 1243 c 0
 1872 1235 1864 1231 1854 1229 c 0
 1840 1225 1828 1220 1814 1212 c 0
 1731 1172 1670 1109 1627 1032 c 0
 1542 878 1392 652 1188 603 c 1
 1253 571 1295 496 1295 405 c 0
 1295 336 1285 261 1263 166 c 0
 1259 152 1253 127 1253 115 c 0
 1253 93 1261 83 1273 83 c 0
 1293 83 1329 113 1380 172 c 0
 1483 291 1720 544 1787 544 c 1
 1809 540 l 1
 1698 477 1611 374 1469 204 c 0
 1398 121 1342 64 1297 34 c 0
 1250 2 1208 -12 1170 -12 c 0
255 -32 m 0
 53 -32 -87 60 -87 188 c 0
 -87 291 -16 368 87 368 c 0
 162 368 198 336 198 271 c 0
 198 210 168 178 107 174 c 0
 44 170 14 149 14 113 c 0
 14 58 100 0 221 0 c 0
 371 0 473 81 609 320 c 2
 767 599 l 2
 824 700 897 804 986 911 c 1
 820 796 711 737 658 737 c 0
 595 737 557 769 557 824 c 0
 557 852 573 887 609 927 c 0
 643 965 662 992 662 1004 c 0
 662 1016 658 1024 648 1024 c 0
 573 1024 397 871 340 802 c 0
 312 768 291 751 275 751 c 0
 265 751 259 755 259 759 c 0
 259 795 530 1055 670 1055 c 0
 733 1055 769 1023 769 976 c 0
 769 942 753 906 725 866 c 0
 697 826 682 801 682 791 c 0
 682 781 686 777 694 777 c 0
 706 777 743 796 804 828 c 0
 927 895 1160 1099 1229 1160 c 0
 1263 1190 1285 1206 1297 1206 c 0
 1303 1206 1305 1204 1305 1200 c 0
 1305 1190 1299 1182 1285 1172 c 0
 1269 1162 1242 1130 1204 1075 c 0
 1166 1020 1127 943 1091 844 c 0
 1063 767 1026 674 988 581 c 0
 937 458 881 334 816 255 c 0
 703 115 581 38 451 -2 c 0
 386 -22 322 -32 255 -32 c 0
EndSplineSet
EndChar

StartChar: L
Encoding: 76 76 174
Width: 1060
GlyphClass: 2
Flags: HW
AnchorPoint: "Anchor-1" 607 0 basechar 0
AnchorPoint: "Anchor-0" 283 1445 basechar 0
LayerCount: 2
Fore
SplineSet
196 0 m 1
 196 1445 l 1
 378 1445 l 1
 378 162 l 1
 1010 162 l 1
 1010 0 l 1
 196 0 l 1
EndSplineSet
EndChar

StartChar: u1D50F
Encoding: 120079 120079 175
Width: 1097
GlyphClass: 1
Flags: HW
LayerCount: 2
Fore
SplineSet
704 -47 m 0
 629 -45 527 -14 395 51 c 0
 263 116 182 148 152 148 c 0
 138 148 125 139 111 121 c 2
 55 43 l 1
 20 63 l 1
 73 156 108 224 128 271 c 0
 148 316 164 338 178 338 c 2
 273 312 l 1
 360 355 403 409 403 474 c 0
 403 545 328 650 249 753 c 0
 170 856 101 965 101 1040 c 0
 101 1236 294 1484 583 1484 c 0
 820 1484 982 1326 982 1113 c 0
 982 1068 975 1030 965 1002 c 0
 955 972 949 949 949 933 c 0
 949 923 953 913 961 905 c 1
 935 872 l 1
 919 880 903 882 889 882 c 0
 800 882 729 826 729 767 c 0
 729 720 769 684 832 684 c 0
 862 684 895 692 927 708 c 1
 941 664 l 1
 903 648 866 640 834 640 c 0
 731 640 672 698 672 797 c 0
 672 833 682 878 716 959 c 1
 708 982 l 1
 741 1002 l 1
 755 998 771 996 785 996 c 0
 856 998 919 1055 919 1148 c 0
 919 1318 779 1437 583 1437 c 0
 389 1437 251 1322 251 1160 c 0
 251 1107 274 1049 312 988 c 0
 361 911 417 830 474 751 c 0
 527 676 551 614 551 559 c 0
 551 464 474 374 318 291 c 1
 535 186 694 117 773 117 c 0
 799 117 824 122 846 138 c 0
 870 154 904 194 957 263 c 1
 996 237 l 1
 947 170 868 79 761 -38 c 1
 743 -42 722 -47 704 -47 c 0
EndSplineSet
EndChar

StartChar: Lambda
Encoding: 923 923 176
Width: 1230
GlyphClass: 2
Flags: HW
AnchorPoint: "Anchor-1" 615 0 basechar 0
AnchorPoint: "Anchor-0" 615 1445 basechar 0
LayerCount: 2
Fore
SplineSet
0 0 m 1
 518 1445 l 1
 708 1445 l 1
 1229 0 l 1
 1036 0 l 1
 716 911 l 2
 671 1036 635 1150 611 1247 c 1
 591 1150 553 1034 510 913 c 2
 192 0 l 1
 0 0 l 1
EndSplineSet
EndChar

StartChar: u1D40B
Encoding: 119819 119819 177
Width: 1285
GlyphClass: 1
Flags: HW
LayerCount: 2
Fore
SplineSet
47 0 m 1
 47 53 l 1
 187 57 225 97 225 243 c 2
 225 1142 l 2
 225 1276 183 1316 49 1322 c 1
 49 1372 l 1
 753 1372 l 1
 753 1322 l 1
 591 1322 549 1290 549 1142 c 2
 549 249 l 2
 549 105 566 83 704 83 c 0
 995 83 1130 183 1233 466 c 1
 1287 466 l 1
 1210 0 l 1
 47 0 l 1
EndSplineSet
EndChar

StartChar: u1D473
Encoding: 119923 119923 178
Width: 1281
GlyphClass: 1
Flags: HW
LayerCount: 2
Fore
SplineSet
-101 0 m 1
 -101 47 l 1
 24 47 68 79 117 257 c 2
 346 1111 l 2
 356 1147 362 1180 362 1208 c 0
 362 1279 322 1306 219 1310 c 1
 219 1358 l 1
 854 1358 l 1
 854 1310 l 1
 722 1310 681 1267 636 1101 c 2
 411 249 l 2
 395 184 387 144 387 128 c 0
 387 106 401 89 429 83 c 0
 459 77 504 71 567 71 c 0
 832 71 1002 172 1119 403 c 1
 1184 403 l 1
 1057 0 l 1
 -101 0 l 1
EndSplineSet
EndChar

StartChar: u1D4DB
Encoding: 120027 120027 179
Width: 1289
GlyphClass: 1
Flags: HW
LayerCount: 2
Fore
SplineSet
374 -14 m 0
 204 -14 136 50 136 121 c 0
 136 192 194 249 340 249 c 0
 415 249 510 225 627 174 c 1
 688 243 744 346 797 486 c 1
 576 498 433 630 433 802 c 0
 433 962 553 1115 755 1200 c 0
 856 1243 968 1265 1089 1265 c 0
 1134 1265 1166 1265 1184 1259 c 0
 1204 1253 1214 1243 1214 1229 c 0
 1214 1217 1196 1208 1160 1208 c 0
 786 1208 591 943 591 749 c 0
 591 615 676 534 818 534 c 1
 996 963 1283 1267 1502 1267 c 0
 1613 1267 1690 1200 1690 1097 c 0
 1690 907 1439 655 1113 534 c 1
 1030 338 917 194 773 101 c 1
 824 75 870 61 917 61 c 0
 1059 61 1305 309 1439 445 c 0
 1512 518 1565 549 1601 549 c 2
 1643 540 l 1
 1607 520 1555 480 1488 413 c 0
 1352 277 1166 91 1065 38 c 0
 1014 12 966 0 917 0 c 0
 844 0 773 20 702 63 c 1
 603 12 493 -14 374 -14 c 0
1137 599 m 1
 1321 674 1485 842 1534 972 c 0
 1558 1037 1571 1087 1571 1123 c 0
 1571 1182 1551 1212 1508 1212 c 0
 1449 1212 1389 1162 1324 1063 c 0
 1259 964 1198 807 1137 599 c 1
356 38 m 0
 451 38 530 66 593 125 c 1
 510 172 425 196 336 196 c 0
 253 196 196 161 196 121 c 0
 196 83 261 38 356 38 c 0
EndSplineSet
EndChar

StartChar: u1D543
Encoding: 120131 120131 180
Width: 1084
GlyphClass: 1
Flags: HW
LayerCount: 2
Fore
SplineSet
156 0 m 1
 156 1445 l 1
 506 1445 l 1
 506 107 l 1
 1034 107 l 1
 1034 0 l 1
 156 0 l 1
263 107 m 1
 399 107 l 1
 399 1338 l 1
 263 1338 l 1
 263 107 l 1
EndSplineSet
EndChar

StartChar: u1D43F
Encoding: 119871 119871 181
Width: 1352
GlyphClass: 1
Flags: HW
LayerCount: 2
Fore
SplineSet
-73 0 m 1
 -63 40 l 1
 -55 40 l 2
 73 40 118 77 156 219 c 2
 407 1160 l 2
 419 1207 427 1241 427 1263 c 0
 427 1330 380 1354 273 1360 c 1
 283 1401 l 1
 840 1401 l 1
 826 1362 l 1
 707 1362 655 1322 619 1184 c 2
 376 277 l 2
 356 204 348 164 348 154 c 0
 348 85 385 71 496 71 c 2
 640 71 l 2
 954 71 1066 136 1202 397 c 1
 1241 397 l 1
 1109 0 l 1
 -73 0 l 1
EndSplineSet
EndChar

StartChar: uni2112
Encoding: 8466 8466 182
Width: 1685
GlyphClass: 1
Flags: HW
LayerCount: 2
Fore
SplineSet
285 -20 m 0
 147 -20 22 41 22 146 c 0
 22 241 122 281 221 281 c 0
 324 281 440 231 551 174 c 1
 596 245 643 342 688 459 c 0
 698 485 709 512 721 538 c 1
 363 556 304 791 304 925 c 0
 304 1212 611 1465 959 1465 c 0
 1024 1465 1081 1459 1142 1447 c 1
 1133 1411 l 1
 1072 1423 1012 1429 959 1429 c 0
 645 1429 413 1157 413 872 c 0
 413 635 614 583 737 575 c 1
 917 982 1161 1465 1467 1465 c 0
 1582 1465 1631 1401 1631 1318 c 0
 1631 1124 1360 717 1000 581 c 1
 961 478 l 2
 892 298 793 180 686 103 c 1
 775 56 858 20 923 20 c 0
 1057 20 1219 144 1318 326 c 1
 1352 312 l 1
 1279 168 1111 -20 911 -20 c 0
 808 -20 716 18 629 67 c 1
 514 2 392 -20 285 -20 c 0
1018 631 m 1
 1107 669 1194 726 1273 795 c 0
 1396 904 1552 1134 1552 1328 c 0
 1552 1389 1514 1429 1463 1429 c 0
 1410 1429 1366 1403 1326 1356 c 0
 1269 1291 1221 1192 1174 1077 c 0
 1121 943 1069 785 1018 631 c 1
275 16 m 0
 392 16 465 55 522 132 c 1
 425 191 328 245 219 245 c 0
 146 245 59 219 59 146 c 0
 59 57 192 16 275 16 c 0
EndSplineSet
EndChar

StartChar: M
Encoding: 77 77 183
Width: 1835
GlyphClass: 2
Flags: HW
AnchorPoint: "Anchor-1" 907 0 basechar 0
AnchorPoint: "Anchor-0" 919 1445 basechar 0
LayerCount: 2
Fore
SplineSet
196 0 m 1
 196 1445 l 1
 466 1445 l 1
 911 261 l 1
 919 261 l 1
 1372 1445 l 1
 1639 1445 l 1
 1639 0 l 1
 1459 0 l 1
 1459 889 l 2
 1459 1029 1467 1178 1473 1265 c 1
 1465 1265 l 1
 984 0 l 1
 834 0 l 1
 358 1267 l 1
 350 1267 l 1
 358 1184 364 1030 364 876 c 2
 364 0 l 1
 196 0 l 1
EndSplineSet
EndChar

StartChar: u1D510
Encoding: 120080 120080 184
Width: 1916
GlyphClass: 1
Flags: HW
LayerCount: 2
Fore
SplineSet
389 -47 m 1
 389 -32 l 2
 389 0 287 59 247 59 c 0
 243 59 218 37 178 -6 c 1
 146 16 l 1
 195 87 231 138 255 168 c 0
 279 200 300 215 314 215 c 0
 330 215 355 204 385 188 c 0
 419 170 459 147 510 117 c 1
 621 222 664 386 664 631 c 0
 664 1078 524 1318 316 1318 c 0
 154 1318 51 1208 51 1040 c 0
 51 868 148 739 310 696 c 1
 289 654 l 1
 103 707 -2 854 -2 1048 c 0
 -2 1285 163 1467 376 1467 c 0
 506 1467 619 1400 690 1287 c 1
 733 1425 818 1496 921 1496 c 0
 1053 1496 1149 1413 1216 1249 c 1
 1271 1405 1362 1469 1524 1469 c 0
 1737 1469 1842 1344 1842 1089 c 0
 1842 1069 1842 1048 1840 1028 c 1
 1862 1028 l 1
 1862 982 l 1
 1674 954 1623 899 1623 719 c 2
 1623 235 l 2
 1623 174 1727 111 1741 111 c 0
 1747 111 1783 133 1846 178 c 1
 1870 148 l 1
 1666 -45 l 1
 1625 -45 l 1
 1621 -23 1605 -4 1579 8 c 0
 1522 36 1463 77 1463 170 c 2
 1463 668 l 2
 1463 824 1514 877 1684 972 c 1
 1684 1008 l 2
 1684 1265 1617 1350 1453 1350 c 0
 1346 1350 1273 1295 1235 1188 c 1
 1265 1069 1281 947 1281 822 c 0
 1281 508 1180 265 911 -47 c 1
 872 -47 l 1
 872 -32 l 2
 872 0 771 59 731 59 c 0
 725 59 702 37 662 -6 c 1
 629 16 l 1
 678 89 717 142 741 170 c 0
 765 200 783 215 797 215 c 0
 813 215 838 204 868 188 c 0
 902 170 941 147 990 119 c 1
 1083 269 1129 449 1129 662 c 0
 1129 864 1103 1034 1048 1172 c 0
 993 1308 929 1376 854 1376 c 0
 779 1376 735 1330 719 1237 c 1
 776 1105 804 945 804 753 c 0
 804 445 682 231 542 85 c 0
 467 6 429 -37 427 -47 c 1
 389 -47 l 1
EndSplineSet
EndChar

StartChar: u1D40C
Encoding: 119820 119820 185
Width: 1910
GlyphClass: 1
Flags: HW
LayerCount: 2
Fore
SplineSet
43 0 m 1
 43 53 l 1
 177 57 227 97 227 239 c 2
 227 1152 l 2
 227 1284 195 1314 45 1322 c 1
 45 1372 l 1
 557 1372 l 1
 955 429 l 1
 1354 1372 l 1
 1860 1372 l 1
 1860 1322 l 1
 1730 1310 1688 1270 1688 1140 c 2
 1688 257 l 2
 1688 87 1720 57 1858 53 c 1
 1858 0 l 1
 1192 0 l 1
 1192 53 l 1
 1338 63 1370 97 1370 251 c 2
 1370 1202 l 1
 868 0 l 1
 814 0 l 1
 318 1172 l 1
 318 241 l 2
 318 87 366 53 510 53 c 1
 510 0 l 1
 43 0 l 1
EndSplineSet
EndChar

StartChar: u1D474
Encoding: 119924 119924 186
Width: 1768
GlyphClass: 1
Flags: HW
LayerCount: 2
Fore
SplineSet
567 -32 m 1
 433 1093 l 1
 206 247 l 2
 194 200 188 166 188 142 c 0
 188 77 231 51 330 47 c 1
 330 0 l 1
 -105 0 l 1
 -105 47 l 1
 23 47 64 79 113 257 c 2
 342 1111 l 2
 352 1147 358 1182 358 1214 c 0
 358 1279 316 1306 217 1310 c 1
 217 1358 l 1
 676 1358 l 1
 793 397 l 1
 1415 1358 l 1
 1874 1358 l 1
 1874 1310 l 1
 1742 1310 1703 1275 1656 1101 c 2
 1427 247 l 2
 1417 211 1411 176 1411 142 c 0
 1411 83 1459 51 1554 47 c 1
 1554 0 l 1
 919 0 l 1
 919 47 l 1
 1008 47 1059 70 1087 121 c 0
 1101 145 1119 190 1137 257 c 2
 1366 1127 l 1
 623 -32 l 1
 567 -32 l 1
EndSplineSet
EndChar

StartChar: u1D4DC
Encoding: 120028 120028 187
Width: 1635
GlyphClass: 1
Flags: HW
LayerCount: 2
Fore
SplineSet
123 -14 m 0
 -7 -14 -79 69 -79 176 c 0
 -79 295 18 385 117 385 c 0
 200 385 241 350 241 283 c 0
 241 218 210 198 113 178 c 0
 64 168 40 143 40 105 c 0
 40 77 79 36 136 36 c 0
 183 36 232 64 291 123 c 0
 348 180 421 285 514 437 c 0
 700 743 880 980 1040 1144 c 0
 1119 1225 1174 1265 1202 1265 c 0
 1236 1265 1255 1255 1255 1233 c 0
 1255 1190 1229 1111 1174 994 c 0
 1063 757 884 361 872 231 c 1
 1080 648 1328 972 1510 1140 c 0
 1599 1223 1656 1265 1682 1265 c 0
 1716 1265 1733 1255 1733 1237 c 0
 1733 1231 1724 1210 1718 1196 c 0
 1615 977 1536 787 1475 627 c 0
 1412 463 1366 344 1332 263 c 0
 1298 184 1281 123 1281 83 c 0
 1281 71 1287 65 1297 65 c 0
 1372 65 1573 243 1755 417 c 0
 1848 506 1909 549 1941 549 c 0
 1959 549 1976 546 1990 540 c 1
 1952 522 1874 455 1757 338 c 0
 1522 103 1360 -14 1243 -14 c 0
 1148 -14 1081 61 1081 180 c 0
 1081 231 1095 289 1115 354 c 0
 1158 488 1435 949 1538 1099 c 1
 1419 976 1318 851 1172 636 c 0
 1099 529 1032 411 967 281 c 0
 902 151 860 70 836 38 c 0
 812 6 783 -10 749 -10 c 0
 674 -10 629 75 629 196 c 0
 629 350 793 692 1020 1040 c 1
 884 898 676 607 538 372 c 0
 400 135 287 -14 123 -14 c 0
EndSplineSet
EndChar

StartChar: u1D544
Encoding: 120132 120132 188
Width: 1856
GlyphClass: 1
Flags: HW
LayerCount: 2
Fore
SplineSet
156 0 m 1
 156 1445 l 1
 534 1445 l 1
 961 308 l 1
 1350 1445 l 1
 1700 1445 l 1
 1700 0 l 1
 1350 0 l 1
 1350 1113 l 1
 1022 152 l 1
 648 152 l 1
 263 1172 l 1
 263 0 l 1
 156 0 l 1
723 259 m 1
 866 259 l 1
 459 1338 l 1
 316 1338 l 1
 723 259 l 1
1457 107 m 1
 1593 107 l 1
 1593 1338 l 1
 1457 1338 l 1
 1457 107 l 1
EndSplineSet
EndChar

StartChar: u1D440
Encoding: 119872 119872 189
Width: 1777
GlyphClass: 1
Flags: HW
LayerCount: 2
Fore
SplineSet
-109 0 m 1
 -97 40 l 1
 37 40 79 73 119 219 c 2
 385 1160 l 2
 397 1203 403 1237 403 1263 c 0
 403 1330 356 1354 249 1360 c 1
 261 1401 l 1
 640 1401 l 1
 785 326 l 1
 1496 1401 l 1
 1880 1401 l 1
 1868 1360 l 1
 1852 1360 l 2
 1737 1360 1688 1320 1652 1182 c 2
 1401 241 l 2
 1389 194 1380 160 1380 136 c 0
 1380 69 1427 44 1534 40 c 1
 1524 0 l 1
 969 0 l 1
 980 34 l 1
 1108 40 1149 75 1196 249 c 2
 1447 1182 l 1
 660 0 l 1
 631 0 l 1
 474 1184 l 1
 231 310 l 2
 211 237 200 182 200 144 c 0
 200 65 243 42 354 38 c 1
 344 0 l 1
 -109 0 l 1
EndSplineSet
EndChar

StartChar: uni2133
Encoding: 8499 8499 190
Width: 2337
GlyphClass: 1
Flags: HW
LayerCount: 2
Fore
SplineSet
263 -20 m 0
 97 -20 -8 89 -8 247 c 0
 -8 360 69 451 176 451 c 0
 265 451 289 393 289 340 c 0
 289 277 236 216 113 200 c 0
 79 196 71 182 71 158 c 0
 71 134 117 16 265 16 c 0
 411 16 533 103 648 233 c 0
 711 304 773 387 834 476 c 0
 891 559 951 644 1014 729 c 0
 1269 1077 1534 1368 1676 1467 c 1
 1708 1447 l 1
 1672 1366 1431 820 1403 755 c 0
 1375 690 1196 265 1166 73 c 1
 1209 116 1252 174 1305 255 c 0
 1331 295 1364 346 1390 391 c 0
 1471 527 1562 674 1639 781 c 0
 1756 943 1830 1038 1921 1135 c 0
 2073 1297 2220 1412 2301 1461 c 1
 2336 1429 l 1
 2245 1297 2056 945 1957 741 c 0
 1876 575 1688 156 1688 45 c 0
 1688 27 1694 16 1704 16 c 0
 1775 16 1927 180 2034 320 c 1
 2058 300 l 1
 1955 158 1801 -20 1696 -20 c 0
 1603 -20 1546 43 1546 237 c 0
 1546 431 1785 806 1866 915 c 0
 1969 1055 2237 1362 2277 1405 c 1
 2210 1358 1971 1186 1684 781 c 0
 1595 653 1520 534 1455 427 c 0
 1400 338 1353 259 1310 194 c 0
 1229 73 1160 -20 1105 -20 c 0
 1016 -20 1008 121 1008 200 c 0
 1008 287 1059 520 1342 959 c 0
 1439 1111 1626 1368 1658 1411 c 1
 1482 1279 1180 885 1020 672 c 0
 967 603 915 526 864 451 c 0
 801 360 737 271 668 194 c 0
 555 66 423 -20 263 -20 c 0
EndSplineSet
EndChar

StartChar: Mu
Encoding: 924 924 191
Width: 1835
GlyphClass: 2
Flags: HW
AnchorPoint: "Anchor-1" 907 0 basechar 0
AnchorPoint: "Anchor-0" 919 1445 basechar 0
LayerCount: 2
Fore
SplineSet
196 0 m 1
 196 1445 l 1
 466 1445 l 1
 911 261 l 1
 919 261 l 1
 1372 1445 l 1
 1639 1445 l 1
 1639 0 l 1
 1459 0 l 1
 1459 889 l 2
 1459 1029 1467 1178 1473 1265 c 1
 1465 1265 l 1
 984 0 l 1
 834 0 l 1
 358 1267 l 1
 350 1267 l 1
 358 1184 364 1030 364 876 c 2
 364 0 l 1
 196 0 l 1
EndSplineSet
EndChar

StartChar: N
Encoding: 78 78 192
Width: 1538
GlyphClass: 2
Flags: HW
AnchorPoint: "Anchor-1" 769 0 basechar 0
AnchorPoint: "Anchor-0" 769 1445 basechar 0
LayerCount: 2
Fore
SplineSet
196 0 m 1
 196 1445 l 1
 407 1445 l 1
 1178 249 l 1
 1186 249 l 1
 1182 314 1172 497 1172 629 c 2
 1172 1445 l 1
 1342 1445 l 1
 1342 0 l 1
 1129 0 l 1
 356 1200 l 1
 348 1200 l 1
 356 1105 364 956 364 808 c 2
 364 0 l 1
 196 0 l 1
EndSplineSet
EndChar

StartChar: u1D511
Encoding: 120081 120081 193
Width: 1479
GlyphClass: 1
Flags: HW
LayerCount: 2
Fore
SplineSet
385 -47 m 0
 336 -47 295 -40 259 -30 c 0
 223 -20 190 -14 160 -14 c 0
 136 -14 113 -20 91 -34 c 1
 57 -12 l 1
 63 4 67 25 67 45 c 0
 67 108 52 156 26 186 c 1
 55 225 l 1
 77 213 102 208 130 208 c 0
 177 208 211 221 233 243 c 1
 267 219 l 1
 253 187 245 156 245 128 c 0
 245 49 300 0 395 0 c 0
 486 0 556 55 609 162 c 0
 662 269 686 431 686 646 c 0
 686 1089 551 1310 334 1310 c 0
 190 1310 83 1202 83 1034 c 0
 83 868 180 736 342 696 c 1
 322 654 l 1
 136 707 32 854 32 1048 c 0
 32 1277 199 1467 397 1467 c 0
 577 1467 698 1374 765 1190 c 1
 812 1384 911 1469 1091 1469 c 0
 1301 1469 1407 1344 1407 1089 c 0
 1407 1069 1407 1048 1405 1028 c 1
 1429 1028 l 1
 1429 982 l 1
 1241 954 1190 899 1190 719 c 2
 1190 235 l 2
 1190 172 1294 111 1308 111 c 0
 1314 111 1350 133 1413 178 c 1
 1437 148 l 1
 1233 -45 l 1
 1192 -45 l 1
 1188 -23 1169 -2 1133 16 c 0
 1062 52 1030 95 1030 170 c 2
 1030 668 l 2
 1030 824 1081 877 1251 972 c 1
 1251 1016 l 2
 1251 1241 1200 1350 1020 1350 c 0
 901 1350 821 1277 783 1133 c 1
 817 1005 836 867 836 719 c 0
 836 272 646 -47 385 -47 c 0
EndSplineSet
EndChar

StartChar: u1D579
Encoding: 120185 120185 194
Width: 1771
GlyphClass: 1
Flags: HW
LayerCount: 2
Fore
SplineSet
117 -49 m 1
 71 -8 l 1
 85 30 93 67 93 99 c 0
 93 133 71 178 26 231 c 1
 67 285 l 1
 101 267 141 257 188 257 c 0
 228 257 288 278 316 310 c 1
 366 271 l 1
 344 220 334 182 334 156 c 0
 334 81 393 40 472 40 c 0
 563 40 635 83 686 170 c 0
 737 257 763 410 763 627 c 0
 763 1062 632 1295 413 1295 c 0
 261 1295 154 1176 154 1024 c 0
 154 884 288 737 470 688 c 1
 441 607 l 1
 172 682 51 848 51 1046 c 0
 51 1289 239 1484 488 1484 c 0
 638 1484 787 1415 882 1285 c 1
 973 1421 1101 1490 1265 1490 c 0
 1518 1490 1654 1342 1654 1075 c 2
 1654 1046 l 1
 1702 1046 l 1
 1702 980 l 1
 1514 952 1445 891 1445 737 c 2
 1445 316 l 2
 1445 298 1445 285 1449 279 c 0
 1455 267 1534 198 1544 198 c 0
 1574 198 1627 240 1678 283 c 1
 1728 223 l 1
 1455 -49 l 1
 1395 -49 l 1
 1393 -9 1374 21 1336 45 c 2
 1255 93 l 2
 1208 121 1172 157 1172 210 c 2
 1172 676 l 2
 1172 787 1190 829 1247 884 c 0
 1273 910 1317 942 1376 976 c 1
 1376 1040 l 2
 1376 1222 1298 1326 1160 1326 c 0
 1045 1326 947 1245 927 1202 c 1
 986 1066 1014 902 1014 712 c 0
 1014 297 795 -49 506 -49 c 0
 476 -49 427 -42 360 -30 c 0
 293 -18 245 -14 217 -14 c 0
 187 -14 151 -27 117 -49 c 1
EndSplineSet
EndChar

StartChar: u1D40D
Encoding: 119821 119821 196
Width: 1487
GlyphClass: 1
Flags: HW
LayerCount: 2
Fore
SplineSet
1214 -32 m 1
 322 1055 l 1
 322 237 l 2
 322 93 356 57 502 53 c 1
 502 0 l 1
 55 0 l 1
 55 53 l 1
 197 57 229 91 229 237 c 2
 229 1170 l 1
 162 1253 121 1299 109 1305 c 0
 97 1311 79 1318 55 1322 c 1
 55 1372 l 1
 472 1372 l 1
 1178 508 l 1
 1178 1137 l 2
 1178 1281 1148 1310 998 1322 c 1
 998 1372 l 1
 1445 1372 l 1
 1445 1322 l 1
 1303 1316 1271 1279 1271 1135 c 2
 1271 -32 l 1
 1214 -32 l 1
EndSplineSet
EndChar

StartChar: u1D475
Encoding: 119925 119925 197
Width: 1410
GlyphClass: 1
Flags: HW
LayerCount: 2
Fore
SplineSet
933 -32 m 1
 421 1059 l 1
 204 247 l 2
 192 198 186 164 186 142 c 0
 186 83 235 51 330 47 c 1
 330 0 l 1
 -105 0 l 1
 -105 47 l 1
 20 47 66 79 113 257 c 2
 328 1069 l 2
 344 1128 350 1170 350 1192 c 0
 350 1271 305 1302 194 1310 c 1
 194 1358 l 1
 593 1358 l 1
 1022 415 l 1
 1210 1111 l 2
 1222 1158 1231 1192 1231 1210 c 0
 1231 1277 1186 1306 1087 1310 c 1
 1087 1358 l 1
 1522 1358 l 1
 1522 1310 l 1
 1394 1310 1352 1277 1303 1101 c 2
 994 -32 l 1
 933 -32 l 1
EndSplineSet
EndChar

StartChar: u1D4DD
Encoding: 120029 120029 198
Width: 1335
GlyphClass: 1
Flags: HW
LayerCount: 2
Fore
SplineSet
957 -28 m 1
 925 207 907 390 907 528 c 0
 907 718 929 882 974 1018 c 1
 913 925 861 828 812 729 c 2
 658 417 l 2
 518 132 324 -14 111 -14 c 0
 -35 -14 -121 71 -121 190 c 0
 -121 295 -32 385 75 385 c 0
 168 385 221 342 221 279 c 0
 221 210 170 190 77 174 c 0
 30 166 6 145 6 115 c 0
 6 75 52 45 119 45 c 0
 210 45 298 83 385 156 c 0
 472 229 569 382 678 617 c 0
 787 850 886 1018 967 1117 c 0
 1048 1216 1108 1265 1144 1265 c 0
 1168 1265 1186 1253 1186 1241 c 0
 1186 1229 1178 1206 1174 1182 c 0
 1158 1079 1144 909 1144 858 c 0
 1144 672 1152 513 1166 383 c 1
 1289 678 l 2
 1350 822 1397 921 1437 972 c 0
 1477 1025 1524 1050 1575 1050 c 0
 1630 1050 1660 1024 1660 990 c 0
 1660 956 1623 931 1550 915 c 0
 1461 895 1393 779 1326 617 c 0
 1281 510 1233 379 1186 251 c 1
 1204 93 l 1
 957 -28 l 1
EndSplineSet
EndChar

StartChar: uni2115
Encoding: 8469 8469 199
Width: 1574
GlyphClass: 1
Flags: HW
LayerCount: 2
Fore
SplineSet
196 0 m 1
 196 1445 l 1
 350 1445 l 1
 1271 453 l 1
 1271 1445 l 1
 1378 1445 l 1
 1378 0 l 1
 1222 0 l 1
 304 994 l 1
 304 0 l 1
 196 0 l 1
1271 107 m 1
 1271 306 l 1
 304 1338 l 1
 304 1137 l 1
 1271 107 l 1
EndSplineSet
EndChar

StartChar: u1D441
Encoding: 119873 119873 200
Width: 1507
GlyphClass: 1
Flags: HW
LayerCount: 2
Fore
SplineSet
1018 -32 m 1
 463 1123 l 1
 227 253 l 2
 211 196 204 156 204 130 c 0
 204 59 247 44 366 40 c 1
 356 0 l 1
 -101 0 l 1
 -91 40 l 1
 37 40 87 75 125 219 c 2
 391 1184 l 2
 395 1198 399 1217 399 1231 c 0
 399 1294 342 1360 259 1360 c 2
 245 1360 l 1
 255 1401 l 1
 549 1401 l 1
 1065 326 l 1
 1287 1148 l 2
 1303 1205 1310 1245 1310 1271 c 0
 1310 1340 1265 1354 1146 1360 c 1
 1156 1401 l 1
 1615 1401 l 1
 1603 1360 l 1
 1475 1360 1426 1330 1386 1182 c 2
 1057 -32 l 1
 1018 -32 l 1
EndSplineSet
EndChar

StartChar: u1D4A9
Encoding: 119977 119977 201
Width: 1311
GlyphClass: 1
Flags: HW
LayerCount: 2
Fore
SplineSet
83 -14 m 0
 -47 -14 -125 71 -125 184 c 0
 -125 283 -44 370 45 370 c 0
 124 370 166 330 166 273 c 0
 166 204 115 192 20 172 c 0
 -29 162 -53 139 -53 107 c 0
 -53 60 4 12 91 12 c 0
 289 12 488 225 692 654 c 0
 795 871 888 1024 967 1121 c 0
 1046 1218 1101 1265 1131 1265 c 0
 1139 1265 1146 1259 1146 1247 c 0
 1146 1239 1142 1230 1140 1222 c 0
 1120 1163 1103 1022 1103 862 c 0
 1103 698 1116 509 1142 296 c 1
 1281 615 l 2
 1356 785 1415 898 1455 957 c 0
 1495 1016 1535 1046 1569 1046 c 0
 1607 1046 1627 1030 1627 996 c 0
 1627 978 1619 965 1605 955 c 0
 1589 945 1562 935 1524 927 c 0
 1486 919 1457 894 1433 856 c 0
 1409 818 1376 751 1336 658 c 2
 1150 227 l 1
 1164 85 l 1
 965 -12 l 1
 935 209 919 386 919 526 c 0
 919 803 963 1018 1050 1170 c 1
 951 1071 846 901 739 666 c 0
 522 190 310 -14 83 -14 c 0
EndSplineSet
EndChar

StartChar: Nu
Encoding: 925 925 202
Width: 1538
GlyphClass: 2
Flags: HW
AnchorPoint: "Anchor-1" 769 0 basechar 0
AnchorPoint: "Anchor-0" 769 1445 basechar 0
LayerCount: 2
Fore
SplineSet
196 0 m 1
 196 1445 l 1
 407 1445 l 1
 1178 249 l 1
 1186 249 l 1
 1182 314 1172 497 1172 629 c 2
 1172 1445 l 1
 1342 1445 l 1
 1342 0 l 1
 1129 0 l 1
 356 1200 l 1
 348 1200 l 1
 356 1105 364 956 364 808 c 2
 364 0 l 1
 196 0 l 1
EndSplineSet
EndChar

StartChar: O
Encoding: 79 79 203
Width: 1580
GlyphClass: 2
Flags: HW
AnchorPoint: "Anchor-1" 793 0 basechar 0
AnchorPoint: "Anchor-0" 791 1445 basechar 0
LayerCount: 2
Fore
SplineSet
791 -20 m 0
 340 -20 123 280 123 727 c 0
 123 1170 340 1467 793 1467 c 0
 1226 1467 1457 1174 1457 725 c 0
 1457 278 1226 -20 791 -20 c 0
791 138 m 0
 1119 138 1265 361 1265 725 c 0
 1265 1089 1119 1308 793 1308 c 0
 465 1308 316 1089 316 725 c 0
 316 361 465 138 791 138 c 0
EndSplineSet
EndChar

StartChar: u1D512
Encoding: 120082 120082 204
Width: 1564
GlyphClass: 1
Flags: HW
LayerCount: 2
Fore
SplineSet
708 -47 m 0
 665 -47 593 -20 520 14 c 0
 429 57 334 112 281 142 c 0
 232 170 198 182 180 182 c 0
 156 182 118 162 63 119 c 1
 32 154 l 1
 180 269 268 326 298 326 c 0
 312 326 360 307 433 267 c 0
 506 227 581 186 654 150 c 0
 729 114 801 85 870 85 c 0
 1091 85 1364 338 1364 698 c 0
 1364 941 1251 1091 1034 1160 c 0
 927 1194 815 1214 706 1220 c 0
 593 1226 520 1267 484 1344 c 1
 324 1249 247 1172 247 1081 c 0
 247 1020 277 949 342 868 c 2
 419 773 l 2
 478 700 528 638 528 581 c 0
 528 482 419 401 249 401 c 0
 211 401 176 407 150 415 c 1
 150 461 l 1
 180 453 211 447 241 447 c 0
 324 447 364 475 364 532 c 0
 364 562 344 599 304 644 c 0
 264 689 210 749 170 814 c 0
 132 875 101 939 101 996 c 0
 101 1097 185 1204 300 1277 c 0
 349 1307 400 1342 445 1376 c 0
 502 1419 544 1461 544 1504 c 2
 544 1508 l 1
 583 1502 l 1
 593 1468 614 1439 642 1421 c 0
 672 1403 755 1386 893 1370 c 0
 1170 1338 1322 1235 1407 1059 c 0
 1450 970 1471 872 1471 763 c 0
 1471 478 1309 227 1034 71 c 0
 896 -8 787 -47 708 -47 c 0
EndSplineSet
EndChar

StartChar: u1D40E
Encoding: 119822 119822 205
Width: 1582
GlyphClass: 1
Flags: HW
LayerCount: 2
Fore
SplineSet
785 -32 m 0
 386 -32 83 279 83 686 c 0
 83 1089 384 1405 799 1405 c 0
 1196 1405 1502 1101 1502 686 c 0
 1502 279 1194 -32 785 -32 c 0
797 36 m 0
 1028 36 1144 253 1144 686 c 0
 1144 1113 1006 1336 783 1336 c 0
 552 1336 437 1119 437 686 c 0
 437 261 574 36 797 36 c 0
EndSplineSet
EndChar

StartChar: u1D476
Encoding: 119926 119926 206
Width: 1441
GlyphClass: 1
Flags: HW
LayerCount: 2
Fore
SplineSet
538 -34 m 0
 245 -34 57 151 57 463 c 0
 57 759 247 1085 498 1263 c 0
 621 1350 757 1395 901 1395 c 0
 1203 1395 1388 1207 1388 905 c 0
 1388 605 1212 273 949 97 c 0
 817 8 680 -34 538 -34 c 0
555 38 m 0
 735 38 891 237 1006 593 c 0
 1065 773 1093 927 1093 1055 c 0
 1093 1229 1017 1324 887 1324 c 0
 782 1324 682 1240 597 1115 c 0
 449 896 348 551 348 310 c 0
 348 132 423 38 555 38 c 0
EndSplineSet
EndChar

StartChar: u1D4DE
Encoding: 120030 120030 207
Width: 1145
GlyphClass: 1
Flags: HW
LayerCount: 2
Fore
SplineSet
504 -14 m 0
 316 -14 182 115 182 332 c 0
 182 486 261 652 397 808 c 0
 533 964 771 1147 959 1216 c 0
 1054 1250 1135 1269 1206 1269 c 0
 1360 1269 1437 1210 1437 1093 c 0
 1437 1038 1420 1012 1388 1012 c 0
 1370 1012 1362 1022 1362 1044 c 0
 1362 1060 1366 1079 1366 1089 c 0
 1366 1168 1299 1218 1220 1218 c 0
 1131 1218 1036 1176 933 1087 c 0
 727 909 421 373 421 156 c 0
 421 79 451 38 514 38 c 0
 680 38 927 261 1087 569 c 0
 1166 721 1206 836 1206 913 c 0
 1206 974 1188 1004 1154 1004 c 0
 1081 1004 992 929 891 791 c 0
 790 653 670 406 646 285 c 0
 634 224 623 192 617 186 c 0
 611 180 601 178 587 178 c 0
 557 178 555 189 555 217 c 0
 555 326 711 680 895 893 c 0
 986 998 1077 1050 1164 1050 c 0
 1261 1050 1332 979 1332 866 c 0
 1332 653 1085 303 846 121 c 0
 727 30 611 -14 504 -14 c 0
EndSplineSet
EndChar

StartChar: u1D546
Encoding: 120134 120134 208
Width: 1536
GlyphClass: 1
Flags: HW
LayerCount: 2
Fore
SplineSet
769 -20 m 0
 346 -20 101 259 101 727 c 0
 101 1190 348 1467 771 1467 c 0
 1192 1467 1435 1191 1435 725 c 0
 1435 253 1188 -20 769 -20 c 0
769 77 m 0
 872 77 961 96 1036 132 c 1
 1036 1314 l 1
 961 1350 872 1370 771 1370 c 0
 666 1370 577 1350 500 1312 c 1
 500 134 l 1
 575 96 664 77 769 77 c 0
1144 204 m 1
 1265 319 1328 492 1328 725 c 0
 1328 958 1265 1132 1144 1243 c 1
 1144 204 l 1
393 206 m 1
 393 1239 l 1
 270 1128 208 956 208 725 c 0
 208 492 270 317 393 206 c 1
EndSplineSet
EndChar

StartChar: u1D442
Encoding: 119874 119874 209
Width: 1556
GlyphClass: 1
Flags: HW
LayerCount: 2
Fore
SplineSet
603 -30 m 0
 271 -30 65 168 65 488 c 0
 65 947 522 1431 961 1431 c 0
 1291 1431 1490 1223 1490 911 c 0
 1490 613 1281 269 1024 97 c 0
 896 12 757 -30 603 -30 c 0
605 30 m 0
 953 30 1261 545 1261 998 c 0
 1261 1241 1153 1370 965 1370 c 0
 744 1370 523 1166 393 862 c 0
 328 710 293 561 293 413 c 0
 293 168 407 30 605 30 c 0
EndSplineSet
EndChar

StartChar: uni03A9
Encoding: 937 937 210
Width: 1582
GlyphClass: 2
Flags: HW
AnchorPoint: "Anchor-1" 791 0 basechar 0
AnchorPoint: "Anchor-0" 791 1445 basechar 0
LayerCount: 2
Fore
SplineSet
77 0 m 1
 77 160 l 1
 437 160 l 1
 265 292 130 516 130 818 c 0
 130 1215 368 1467 791 1467 c 0
 1220 1467 1455 1217 1455 820 c 0
 1455 516 1322 292 1150 160 c 1
 1508 160 l 1
 1508 0 l 1
 925 0 l 1
 925 146 l 1
 1176 324 1265 545 1265 812 c 0
 1265 1120 1117 1308 791 1308 c 0
 467 1308 322 1120 322 812 c 0
 322 543 409 326 660 146 c 1
 660 0 l 1
 77 0 l 1
EndSplineSet
EndChar

StartChar: Omicron
Encoding: 927 927 211
Width: 1580
GlyphClass: 2
Flags: HW
AnchorPoint: "Anchor-1" 793 0 basechar 0
AnchorPoint: "Anchor-0" 791 1445 basechar 0
LayerCount: 2
Fore
SplineSet
791 -20 m 0
 340 -20 123 280 123 727 c 0
 123 1170 340 1467 793 1467 c 0
 1226 1467 1457 1174 1457 725 c 0
 1457 278 1226 -20 791 -20 c 0
791 138 m 0
 1119 138 1265 361 1265 725 c 0
 1265 1089 1119 1308 793 1308 c 0
 465 1308 316 1089 316 725 c 0
 316 361 465 138 791 138 c 0
EndSplineSet
EndChar

StartChar: u1EEF1
Encoding: 126705 126705 212
Width: 2303
GlyphClass: 1
Flags: HW
LayerCount: 2
Fore
SplineSet
336 -233 m 0
 190 -233 89 -196 89 -105 c 0
 89 -65 103 -24 125 2 c 1
 192 -53 273 -79 401 -79 c 0
 494 -79 581 -66 680 -36 c 1
 587 122 498 366 498 439 c 0
 498 506 536 551 605 573 c 1
 676 310 728 158 785 67 c 0
 856 -48 925 -79 1081 -79 c 0
 1194 -79 1350 -63 1498 -16 c 0
 1605 18 1660 47 1779 71 c 1
 1607 152 1528 285 1386 285 c 0
 1277 285 1229 246 1164 206 c 1
 1150 222 1135 253 1135 285 c 0
 1135 398 1250 455 1378 455 c 0
 1597 455 1716 239 1975 168 c 0
 2050 148 2117 146 2214 146 c 1
 2135 -2 l 1
 2060 6 2034 8 2010 8 c 0
 1880 8 1838 -2 1652 -97 c 0
 1444 -204 1243 -233 1071 -233 c 0
 911 -233 824 -211 745 -128 c 1
 599 -211 459 -233 336 -233 c 0
EndSplineSet
EndChar

StartChar: u1EEF0
Encoding: 126704 126704 213
Width: 2028
GlyphClass: 2
Flags: HW
LayerCount: 2
Fore
SplineSet
85 -223 m 0
 71 -223 69 -214 69 -206 c 2
 69 -85 l 2
 69 -75 75 -69 85 -69 c 0
 897 -69 1037 -63 1243 10 c 0
 1348 46 1417 73 1512 85 c 1
 1338 166 1257 304 1099 304 c 0
 1024 304 954 274 889 225 c 1
 875 241 860 272 860 310 c 0
 860 452 1047 480 1243 496 c 0
 1385 508 1433 550 1469 621 c 0
 1522 724 1576 880 1712 880 c 0
 1797 880 1880 707 1880 557 c 0
 1880 486 1847 445 1809 415 c 1
 1708 415 1569 447 1482 494 c 1
 1439 431 1397 409 1310 403 c 1
 1397 358 1506 275 1581 235 c 0
 1656 195 1753 164 1959 164 c 1
 1880 16 l 1
 1844 22 1804 26 1751 26 c 0
 1597 26 1504 -8 1356 -81 c 0
 1095 -211 988 -223 85 -223 c 0
1688 749 m 0
 1623 749 1578 672 1538 595 c 1
 1611 552 1690 538 1771 528 c 1
 1767 629 1724 749 1688 749 c 0
EndSplineSet
EndChar

StartChar: u1D4AA
Encoding: 119978 119978 214
Width: 1137
GlyphClass: 1
Flags: HW
LayerCount: 2
Fore
SplineSet
508 -14 m 0
 336 -14 215 115 215 328 c 0
 215 573 395 848 751 1089 c 0
 927 1208 1082 1269 1220 1269 c 0
 1352 1269 1429 1206 1429 1101 c 0
 1429 1052 1421 1028 1403 1028 c 0
 1395 1028 1393 1036 1393 1050 c 0
 1393 1058 1399 1089 1399 1097 c 0
 1399 1184 1334 1239 1235 1239 c 0
 1041 1239 812 1071 571 634 c 0
 450 413 389 253 389 148 c 0
 389 61 431 18 518 18 c 0
 700 18 949 229 1123 551 c 0
 1210 713 1255 836 1255 917 c 0
 1255 986 1227 1020 1168 1020 c 0
 1061 1020 903 862 769 617 c 0
 702 494 653 374 621 253 c 2
 607 198 l 2
 603 186 597 180 591 180 c 0
 581 180 575 190 575 210 c 0
 575 340 759 737 937 915 c 0
 1024 1002 1103 1046 1178 1046 c 0
 1257 1046 1314 977 1314 870 c 0
 1314 657 1105 340 854 138 c 0
 729 37 613 -14 508 -14 c 0
EndSplineSet
EndChar

StartChar: P
Encoding: 80 80 215
Width: 1224
GlyphClass: 2
Flags: HW
AnchorPoint: "Anchor-1" 613 0 basechar 0
AnchorPoint: "Anchor-0" 642 1445 basechar 0
LayerCount: 2
Fore
SplineSet
196 0 m 1
 196 1445 l 1
 579 1445 l 2
 957 1445 1121 1289 1121 1020 c 0
 1121 781 977 563 544 563 c 2
 378 563 l 1
 378 0 l 1
 196 0 l 1
378 719 m 1
 524 719 l 2
 799 719 933 799 933 1012 c 0
 933 1198 818 1289 563 1289 c 2
 378 1289 l 1
 378 719 l 1
EndSplineSet
EndChar

StartChar: u1D513
Encoding: 120083 120083 216
Width: 1343
GlyphClass: 1
Flags: HW
LayerCount: 2
Fore
SplineSet
498 -395 m 1
 468 -235 451 -87 451 49 c 2
 451 97 l 1
 382 129 336 146 308 146 c 0
 278 146 245 120 213 67 c 1
 180 87 l 1
 308 342 l 1
 344 334 l 1
 342 324 342 320 342 316 c 0
 342 300 350 291 366 285 c 0
 382 279 415 267 449 255 c 1
 449 986 l 2
 449 1209 379 1320 237 1320 c 0
 128 1320 49 1239 49 1109 c 0
 49 979 127 878 259 846 c 1
 251 799 l 1
 97 837 0 961 0 1119 c 0
 0 1307 140 1467 308 1467 c 0
 480 1467 579 1356 603 1135 c 1
 718 1279 858 1392 1022 1471 c 1
 1046 1439 l 1
 1018 1413 1004 1388 1004 1370 c 0
 1004 1348 1016 1312 1038 1265 c 0
 1085 1166 1199 894 1229 781 c 0
 1245 722 1251 674 1251 636 c 0
 1251 498 1200 379 1075 217 c 0
 1012 138 961 76 923 38 c 0
 885 0 862 -29 858 -47 c 1
 824 -47 l 1
 824 -35 807 -24 769 -12 c 0
 731 0 676 19 605 51 c 1
 597 -83 578 -231 546 -395 c 1
 498 -395 l 1
903 107 m 0
 960 107 1117 342 1117 510 c 0
 1117 635 1016 871 923 1065 c 0
 874 1164 850 1245 848 1310 c 1
 757 1241 676 1160 609 1069 c 1
 609 206 l 1
 838 123 l 2
 866 113 887 107 903 107 c 0
EndSplineSet
EndChar

StartChar: u1D40F
Encoding: 119823 119823 217
Width: 1258
GlyphClass: 1
Flags: HW
LayerCount: 2
Fore
SplineSet
47 0 m 1
 47 53 l 1
 187 57 225 97 225 243 c 2
 225 1142 l 2
 225 1272 183 1314 49 1322 c 1
 49 1372 l 1
 644 1372 l 2
 820 1372 941 1356 1012 1326 c 0
 1150 1265 1233 1154 1233 1000 c 0
 1233 771 1061 619 729 619 c 2
 549 619 l 1
 549 243 l 2
 549 97 585 57 729 53 c 1
 729 0 l 1
 47 0 l 1
549 692 m 1
 607 692 l 2
 807 692 880 775 880 992 c 0
 880 1202 818 1299 652 1299 c 0
 571 1299 549 1273 549 1200 c 2
 549 692 l 1
EndSplineSet
EndChar

StartChar: u1D477
Encoding: 119927 119927 218
Width: 1232
GlyphClass: 1
Flags: HW
LayerCount: 2
Fore
SplineSet
-101 0 m 1
 -101 47 l 1
 24 47 68 79 117 257 c 2
 346 1111 l 2
 356 1147 362 1182 362 1216 c 0
 362 1279 320 1302 221 1310 c 1
 221 1358 l 1
 781 1358 l 2
 1083 1358 1235 1252 1235 1042 c 0
 1235 892 1134 761 974 696 c 0
 893 664 765 648 589 648 c 2
 516 648 l 1
 409 247 l 2
 397 198 391 164 391 142 c 0
 391 77 433 51 532 47 c 1
 532 0 l 1
 -101 0 l 1
599 716 m 0
 824 716 939 856 939 1093 c 0
 939 1225 878 1289 759 1289 c 0
 694 1289 680 1269 658 1182 c 2
 536 721 l 1
 556 719 579 716 599 716 c 0
EndSplineSet
EndChar

StartChar: u1D4DF
Encoding: 120031 120031 219
Width: 1392
GlyphClass: 1
Flags: HW
LayerCount: 2
Fore
SplineSet
488 -14 m 0
 286 -14 158 79 158 213 c 0
 158 324 245 401 352 401 c 0
 439 401 488 354 488 289 c 0
 488 226 417 192 352 184 c 0
 322 180 306 166 306 142 c 0
 306 97 375 38 472 38 c 0
 642 38 775 180 917 502 c 1
 822 470 l 2
 812 466 801 461 775 451 c 0
 749 441 732 435 716 435 c 0
 704 435 698 443 698 457 c 0
 698 485 838 545 943 563 c 1
 1091 867 1269 1067 1482 1166 c 1
 1419 1196 1340 1212 1241 1212 c 0
 976 1212 729 1133 559 967 c 0
 474 884 431 808 431 735 c 0
 431 656 498 611 563 611 c 0
 686 611 842 734 917 880 c 0
 953 951 972 1008 978 1046 c 0
 984 1084 994 1105 1010 1105 c 0
 1030 1105 1040 1071 1040 1000 c 0
 1040 735 856 540 621 540 c 0
 465 540 370 614 370 731 c 0
 370 889 537 1073 814 1182 c 0
 954 1237 1095 1265 1241 1265 c 0
 1352 1265 1455 1243 1550 1198 c 1
 1621 1222 1684 1237 1741 1237 c 0
 1759 1237 1769 1230 1769 1218 c 0
 1769 1212 1750 1204 1716 1194 c 2
 1613 1164 l 1
 1702 1107 1759 1020 1759 931 c 0
 1759 743 1536 574 1214 534 c 1
 1097 192 824 -14 488 -14 c 0
1239 595 m 1
 1411 631 1558 824 1558 1014 c 0
 1558 1065 1548 1103 1528 1127 c 1
 1427 1064 1340 888 1239 595 c 1
EndSplineSet
EndChar

StartChar: uni2119
Encoding: 8473 8473 220
Width: 1325
GlyphClass: 1
Flags: HW
LayerCount: 2
Fore
SplineSet
196 0 m 1
 196 1445 l 1
 721 1445 l 2
 1065 1445 1222 1285 1222 1040 c 0
 1222 789 996 613 747 613 c 2
 546 613 l 1
 546 0 l 1
 196 0 l 1
304 107 m 1
 439 107 l 1
 439 1338 l 1
 304 1338 l 1
 304 107 l 1
546 721 m 1
 828 721 l 1
 828 1338 l 1
 546 1338 l 1
 546 721 l 1
937 755 m 1
 1034 800 1105 878 1105 1040 c 0
 1105 1188 1046 1278 937 1314 c 1
 937 755 l 1
EndSplineSet
EndChar

StartChar: Phi
Encoding: 934 934 221
Width: 1627
GlyphClass: 2
Flags: HW
AnchorPoint: "Anchor-1" 814 0 basechar 0
AnchorPoint: "Anchor-0" 814 1445 basechar 0
LayerCount: 2
Fore
SplineSet
723 -20 m 1
 723 202 l 1
 231 212 103 500 103 749 c 0
 103 1034 257 1279 723 1287 c 1
 723 1465 l 1
 903 1465 l 1
 903 1287 l 1
 1373 1279 1522 1042 1522 749 c 0
 1522 488 1383 212 903 202 c 1
 903 -20 l 1
 723 -20 l 1
723 352 m 1
 723 1133 l 1
 397 1125 287 976 287 751 c 0
 287 512 419 362 723 352 c 1
903 352 m 1
 1215 362 1338 518 1338 751 c 0
 1338 980 1229 1125 903 1133 c 1
 903 352 l 1
EndSplineSet
EndChar

StartChar: Pi
Encoding: 928 928 222
Width: 1479
GlyphClass: 2
Flags: HW
AnchorPoint: "Anchor-1" 741 0 basechar 0
AnchorPoint: "Anchor-0" 741 1445 basechar 0
LayerCount: 2
Fore
SplineSet
196 0 m 1
 196 1445 l 1
 1281 1445 l 1
 1281 0 l 1
 1101 0 l 1
 1101 1285 l 1
 378 1285 l 1
 378 0 l 1
 196 0 l 1
EndSplineSet
EndChar

StartChar: uni213F
Encoding: 8511 8511 223
Width: 1685
GlyphClass: 1
Flags: HW
LayerCount: 2
Fore
SplineSet
196 0 m 1
 196 1445 l 1
 1376 1445 l 1
 1376 0 l 1
 1026 0 l 1
 1026 1338 l 1
 546 1338 l 1
 546 0 l 1
 196 0 l 1
304 107 m 1
 439 107 l 1
 439 1338 l 1
 304 1338 l 1
 304 107 l 1
1133 107 m 1
 1269 107 l 1
 1269 1338 l 1
 1133 1338 l 1
 1133 107 l 1
EndSplineSet
EndChar

StartChar: u1D443
Encoding: 119875 119875 224
Width: 1214
GlyphClass: 1
Flags: HW
LayerCount: 2
Fore
SplineSet
-101 0 m 1
 -91 40 l 1
 -81 40 l 2
 42 40 87 73 125 219 c 2
 378 1160 l 2
 390 1203 397 1237 397 1263 c 0
 397 1334 352 1354 245 1360 c 1
 255 1401 l 1
 806 1401 l 2
 1089 1401 1231 1295 1231 1087 c 0
 1231 842 1010 670 666 670 c 2
 480 670 l 2
 460 670 447 662 443 646 c 2
 324 194 l 2
 320 178 316 154 316 138 c 0
 316 59 368 42 498 40 c 1
 486 0 l 1
 -101 0 l 1
581 731 m 0
 858 731 1002 868 1002 1097 c 0
 1002 1265 917 1340 735 1340 c 0
 656 1340 627 1323 599 1220 c 2
 484 793 l 2
 482 785 480 769 480 761 c 0
 480 749 484 741 496 737 c 0
 506 733 534 731 581 731 c 0
EndSplineSet
EndChar

StartChar: u1D4AB
Encoding: 119979 119979 225
Width: 1372
GlyphClass: 1
Flags: HW
LayerCount: 2
Fore
SplineSet
488 -14 m 0
 298 -14 180 76 180 206 c 0
 180 311 255 387 350 387 c 0
 421 387 459 346 459 283 c 0
 459 208 385 192 324 182 c 0
 292 176 275 160 275 134 c 0
 275 77 373 18 472 18 c 0
 668 18 813 178 961 520 c 1
 892 514 844 508 810 494 c 0
 778 480 757 474 747 474 c 0
 737 474 731 476 731 484 c 0
 731 498 753 506 765 510 c 0
 769 512 790 520 824 530 c 0
 856 540 909 551 980 559 c 1
 1130 873 1311 1077 1530 1172 c 1
 1457 1212 1364 1233 1253 1233 c 0
 1000 1233 717 1128 551 974 c 0
 468 897 427 818 427 737 c 0
 427 650 478 601 565 601 c 0
 701 601 876 749 963 945 c 0
 973 967 984 998 990 1020 c 2
 1004 1081 l 2
 1006 1089 1010 1103 1018 1103 c 0
 1028 1103 1036 1095 1038 1079 c 0
 1040 1063 1040 1038 1040 1006 c 0
 1040 733 868 549 623 549 c 0
 485 549 397 620 397 733 c 0
 397 998 822 1265 1253 1265 c 0
 1368 1265 1474 1241 1567 1192 c 1
 1646 1222 1707 1237 1745 1237 c 0
 1755 1237 1761 1233 1761 1227 c 0
 1761 1221 1759 1216 1751 1214 c 2
 1722 1210 l 2
 1694 1206 1654 1196 1599 1174 c 1
 1700 1117 1751 1038 1751 935 c 0
 1751 749 1526 585 1206 549 c 1
 1085 199 808 -14 488 -14 c 0
1222 587 m 1
 1422 605 1603 803 1603 1020 c 0
 1603 1079 1586 1124 1552 1156 c 1
 1424 1099 1333 919 1222 587 c 1
EndSplineSet
EndChar

StartChar: Psi
Encoding: 936 936 226
Width: 1627
GlyphClass: 2
Flags: HW
AnchorPoint: "Anchor-1" 814 0 basechar 0
AnchorPoint: "Anchor-0" 814 1445 basechar 0
LayerCount: 2
Fore
SplineSet
723 0 m 1
 723 439 l 1
 235 439 107 700 107 967 c 2
 107 1445 l 1
 289 1445 l 1
 289 972 l 2
 289 721 421 595 723 595 c 1
 723 1445 l 1
 901 1445 l 1
 901 595 l 1
 1209 595 1334 722 1334 967 c 2
 1334 1445 l 1
 1520 1445 l 1
 1520 969 l 2
 1520 694 1387 439 901 439 c 1
 901 0 l 1
 723 0 l 1
EndSplineSet
EndChar

StartChar: Q
Encoding: 81 81 227
Width: 1580
GlyphClass: 2
Flags: HW
AnchorPoint: "Anchor-1" 791 -344 basechar 0
AnchorPoint: "Anchor-0" 791 1445 basechar 0
LayerCount: 2
Fore
SplineSet
1121 -344 m 1
 842 -18 l 1
 814 -20 807 -20 791 -20 c 0
 340 -20 123 280 123 727 c 0
 123 1170 340 1467 793 1467 c 0
 1226 1467 1457 1174 1457 725 c 0
 1457 371 1313 109 1036 16 c 1
 1382 -344 l 1
 1121 -344 l 1
791 138 m 0
 1119 138 1265 361 1265 725 c 0
 1265 1089 1119 1308 793 1308 c 0
 465 1308 316 1089 316 725 c 0
 316 361 465 138 791 138 c 0
EndSplineSet
EndChar

StartChar: u1D514
Encoding: 120084 120084 228
Width: 1564
GlyphClass: 1
Flags: HW
LayerCount: 2
Fore
SplineSet
708 -47 m 0
 663 -47 589 -18 512 18 c 0
 423 61 332 112 281 142 c 0
 234 170 198 182 180 182 c 0
 156 182 118 162 63 119 c 1
 32 154 l 1
 180 269 268 326 298 326 c 0
 312 326 362 307 433 267 c 0
 504 227 575 188 644 154 c 0
 725 114 801 85 870 85 c 0
 1091 85 1364 338 1364 698 c 0
 1364 941 1251 1091 1034 1160 c 0
 927 1194 815 1214 706 1220 c 0
 593 1226 520 1267 484 1344 c 1
 324 1249 247 1172 247 1081 c 0
 247 1020 277 949 342 868 c 2
 415 777 l 2
 462 720 492 682 506 656 c 0
 520 628 528 603 528 581 c 0
 528 482 419 401 249 401 c 0
 211 401 176 407 150 415 c 1
 150 461 l 1
 180 453 211 447 241 447 c 0
 324 447 364 475 364 532 c 0
 364 562 344 599 304 644 c 0
 225 731 101 881 101 996 c 0
 101 1103 185 1200 296 1275 c 0
 355 1313 419 1357 468 1395 c 0
 513 1431 544 1468 544 1504 c 2
 544 1508 l 1
 583 1502 l 1
 593 1468 614 1439 642 1421 c 0
 672 1403 755 1384 893 1370 c 0
 1170 1342 1320 1235 1407 1059 c 0
 1452 970 1471 872 1471 763 c 0
 1471 478 1309 227 1034 71 c 0
 896 -8 787 -47 708 -47 c 0
1346 -47 m 2
 1334 -45 1313 -38 1301 -34 c 0
 1224 -6 1178 10 1162 10 c 0
 1140 10 1103 -9 1048 -45 c 1
 1020 -12 l 1
 1099 43 1158 85 1196 119 c 0
 1230 151 1259 166 1273 166 c 0
 1291 166 1320 156 1356 136 c 0
 1392 116 1421 105 1435 105 c 0
 1453 105 1482 124 1522 162 c 1
 1552 134 l 1
 1368 -43 l 1
 1346 -47 l 2
EndSplineSet
EndChar

StartChar: u1D410
Encoding: 119824 119824 229
Width: 1582
GlyphClass: 1
Flags: HW
LayerCount: 2
Fore
SplineSet
1140 -348 m 0
 865 -348 672 -233 563 -2 c 1
 263 101 83 366 83 686 c 0
 83 1089 384 1405 799 1405 c 0
 1196 1405 1502 1101 1502 686 c 0
 1502 358 1314 99 996 0 c 1
 1071 -162 1184 -243 1340 -243 c 0
 1383 -243 1431 -235 1482 -221 c 1
 1492 -277 l 1
 1371 -324 1253 -348 1140 -348 c 0
799 36 m 0
 1030 36 1146 253 1146 686 c 0
 1146 1113 1006 1336 783 1336 c 0
 552 1336 437 1119 437 686 c 0
 437 261 576 36 799 36 c 0
EndSplineSet
EndChar

StartChar: u1D478
Encoding: 119928 119928 230
Width: 1441
GlyphClass: 1
Flags: HW
LayerCount: 2
Fore
SplineSet
779 -421 m 0
 716 -421 633 -404 530 -372 c 0
 427 -340 353 -324 304 -324 c 0
 247 -324 202 -332 168 -346 c 0
 134 -360 109 -368 95 -368 c 0
 79 -368 65 -352 65 -340 c 0
 65 -328 85 -305 121 -271 c 2
 403 -18 l 1
 166 61 57 210 57 455 c 0
 57 929 480 1393 899 1393 c 0
 1211 1393 1382 1221 1382 907 c 0
 1382 429 956 -24 565 -24 c 0
 539 -24 516 -28 504 -36 c 0
 490 -44 458 -77 403 -136 c 1
 443 -136 l 2
 514 -136 610 -150 727 -182 c 0
 844 -214 925 -231 965 -231 c 0
 1090 -231 1196 -174 1283 -65 c 1
 1324 -109 l 1
 1184 -322 1016 -421 779 -421 c 0
546 40 m 0
 748 40 915 287 1016 627 c 0
 1067 797 1093 942 1093 1061 c 0
 1093 1235 1025 1324 887 1324 c 0
 705 1324 552 1121 435 761 c 0
 376 581 348 427 348 302 c 0
 348 128 414 40 546 40 c 0
EndSplineSet
EndChar

StartChar: u1D4E0
Encoding: 120032 120032 231
Width: 1281
GlyphClass: 1
Flags: HW
LayerCount: 2
Fore
SplineSet
265 -16 m 0
 142 -16 81 24 81 105 c 0
 81 192 182 259 366 259 c 0
 447 259 551 242 676 210 c 1
 994 548 1133 851 1133 1061 c 0
 1133 1162 1095 1212 1014 1212 c 0
 856 1212 658 1111 472 909 c 0
 379 808 332 717 332 640 c 0
 332 545 395 490 476 490 c 0
 620 490 848 815 848 1030 c 0
 848 1060 848 1077 870 1077 c 0
 886 1077 907 1058 919 1018 c 0
 931 980 939 936 939 887 c 0
 939 618 747 427 496 427 c 0
 346 427 273 496 273 636 c 0
 273 808 485 1059 708 1176 c 0
 819 1235 927 1265 1030 1265 c 0
 1265 1265 1403 1135 1403 941 c 0
 1403 718 1141 417 767 182 c 1
 852 150 916 134 959 134 c 0
 1080 134 1213 235 1401 415 c 0
 1494 504 1557 549 1587 549 c 2
 1605 549 l 1
 1635 540 l 1
 1586 510 1537 472 1490 421 c 0
 1395 316 1170 110 1040 47 c 0
 973 15 911 -2 850 -2 c 0
 771 -2 680 22 579 73 c 1
 462 14 356 -16 265 -16 c 0
267 38 m 0
 320 38 399 58 502 101 c 1
 413 152 338 176 279 176 c 0
 212 176 178 143 178 103 c 0
 178 60 208 38 267 38 c 0
EndSplineSet
EndChar

StartChar: uni211A
Encoding: 8474 8474 232
Width: 1580
GlyphClass: 1
Flags: HW
LayerCount: 2
Fore
SplineSet
972 -344 m 1
 755 -20 l 1
 336 0 123 280 123 727 c 0
 123 1170 352 1467 793 1467 c 0
 1226 1467 1457 1168 1457 725 c 0
 1457 371 1321 156 1125 53 c 1
 1554 -344 l 1
 972 -344 l 1
791 77 m 0
 894 77 984 96 1059 132 c 1
 1059 1314 l 1
 984 1350 896 1370 793 1370 c 0
 688 1370 597 1350 522 1312 c 1
 522 134 l 1
 597 96 686 77 791 77 c 0
1166 204 m 1
 1287 315 1350 496 1350 725 c 0
 1350 954 1289 1132 1166 1243 c 1
 1166 204 l 1
415 206 m 1
 415 1239 l 1
 292 1128 231 950 231 725 c 0
 231 498 292 317 415 206 c 1
1042 -247 m 1
 1293 -247 l 1
 1018 8 l 1
 984 -2 920 -14 880 -16 c 1
 1042 -247 l 1
EndSplineSet
EndChar

StartChar: u1D444
Encoding: 119876 119876 233
Width: 1556
GlyphClass: 1
Flags: HW
LayerCount: 2
Fore
SplineSet
887 -391 m 0
 804 -391 704 -372 585 -338 c 0
 466 -304 381 -285 326 -285 c 0
 255 -285 174 -315 85 -378 c 1
 61 -344 l 1
 433 -10 l 1
 196 55 65 227 65 488 c 0
 65 970 538 1431 943 1431 c 0
 1267 1431 1478 1233 1478 921 c 0
 1478 630 1311 334 1030 130 c 0
 888 27 737 -24 573 -24 c 0
 535 -24 506 -31 494 -43 c 2
 381 -140 l 1
 415 -136 450 -136 484 -136 c 0
 561 -138 662 -154 785 -192 c 0
 908 -230 993 -249 1038 -249 c 0
 1139 -249 1243 -192 1352 -77 c 1
 1384 -105 l 1
 1218 -307 1081 -391 887 -391 c 0
601 32 m 0
 818 32 1014 212 1150 526 c 0
 1217 682 1251 838 1251 990 c 0
 1251 1235 1141 1366 947 1366 c 0
 720 1366 512 1162 387 862 c 0
 324 710 291 559 291 407 c 0
 291 166 407 32 601 32 c 0
EndSplineSet
EndChar

StartChar: u1D4AC
Encoding: 119980 119980 234
Width: 1273
GlyphClass: 1
Flags: HW
LayerCount: 2
Fore
SplineSet
263 -16 m 0
 160 -16 103 26 103 97 c 0
 103 178 198 243 364 243 c 0
 455 243 564 224 692 190 c 1
 1022 540 1174 859 1174 1067 c 0
 1174 1178 1123 1233 1024 1233 c 0
 874 1233 651 1133 463 927 c 0
 368 822 322 725 322 640 c 0
 322 537 377 478 476 478 c 0
 646 478 862 794 862 980 c 0
 862 1000 860 1026 860 1042 c 0
 860 1062 866 1075 876 1075 c 0
 888 1075 901 1056 911 1024 c 0
 921 992 925 948 925 891 c 0
 925 624 739 433 496 433 c 0
 358 433 283 506 283 636 c 0
 283 824 502 1061 723 1178 c 0
 834 1237 939 1265 1040 1265 c 0
 1259 1265 1390 1137 1390 945 c 0
 1390 716 1144 425 743 172 c 1
 840 134 914 115 967 115 c 0
 1026 115 1087 138 1148 178 c 0
 1209 218 1292 292 1397 393 c 0
 1502 494 1571 544 1601 544 c 2
 1611 544 l 1
 1623 542 l 1
 1564 508 1510 464 1461 409 c 0
 1364 300 1161 102 1040 43 c 0
 977 13 917 -2 856 -2 c 0
 777 -2 686 24 581 79 c 1
 458 16 350 -16 263 -16 c 0
265 18 m 0
 334 18 423 42 538 93 c 1
 400 148 306 176 251 176 c 0
 188 176 146 142 146 95 c 0
 146 42 184 18 265 18 c 0
EndSplineSet
EndChar

StartChar: R
Encoding: 82 82 235
Width: 1258
GlyphClass: 2
Flags: HW
AnchorPoint: "Anchor-1" 664 0 basechar 0
AnchorPoint: "Anchor-0" 629 1445 basechar 0
LayerCount: 2
Fore
SplineSet
196 0 m 1
 196 1445 l 1
 595 1445 l 2
 953 1445 1121 1309 1121 1034 c 0
 1121 803 978 699 832 648 c 1
 1229 0 l 1
 1016 0 l 1
 666 597 l 1
 378 597 l 1
 378 0 l 1
 196 0 l 1
378 751 m 1
 595 751 l 2
 830 751 933 844 933 1026 c 0
 933 1214 822 1287 585 1287 c 2
 378 1287 l 1
 378 751 l 1
EndSplineSet
EndChar

StartChar: uni211C
Encoding: 8476 8476 236
Width: 1457
GlyphClass: 1
Flags: HW
LayerCount: 2
Fore
SplineSet
374 -47 m 0
 336 -47 295 -40 259 -30 c 0
 223 -20 190 -14 160 -14 c 0
 136 -14 113 -20 91 -34 c 1
 57 -12 l 1
 63 4 67 25 67 45 c 0
 67 108 52 156 26 186 c 1
 55 225 l 1
 77 213 102 208 130 208 c 0
 177 208 211 221 233 243 c 1
 267 219 l 1
 253 187 245 156 245 128 c 0
 245 49 300 0 387 0 c 0
 478 0 536 55 581 148 c 0
 640 267 666 432 666 638 c 0
 666 1089 538 1310 334 1310 c 0
 190 1310 83 1202 83 1034 c 0
 83 868 180 736 342 696 c 1
 322 654 l 1
 136 707 32 854 32 1048 c 0
 32 1277 178 1467 407 1467 c 0
 571 1467 676 1370 739 1220 c 1
 830 1293 906 1342 967 1376 c 0
 1042 1419 1091 1450 1142 1484 c 1
 1166 1455 l 1
 1150 1443 1142 1425 1142 1411 c 0
 1142 1381 1196 1318 1261 1253 c 0
 1326 1188 1352 1168 1366 1168 c 0
 1380 1168 1393 1172 1411 1182 c 1
 1433 1148 l 1
 1326 1075 1212 986 1099 895 c 1
 1158 869 1186 801 1233 524 c 0
 1265 326 1283 241 1303 198 c 0
 1323 155 1344 142 1368 142 c 0
 1384 142 1415 151 1455 194 c 1
 1486 168 l 1
 1454 113 1404 66 1364 30 c 0
 1324 -6 1305 -27 1297 -45 c 1
 1257 -45 l 1
 1253 -29 1251 -26 1225 0 c 0
 1154 71 1132 140 1087 409 c 0
 1032 739 1021 799 972 799 c 0
 954 799 929 787 816 708 c 1
 814 247 631 -47 374 -47 c 0
963 1308 m 0
 931 1308 866 1273 755 1176 c 1
 793 1061 812 919 816 767 c 1
 958 852 1099 949 1216 1050 c 1
 1087 1200 l 2
 1014 1285 989 1308 963 1308 c 0
EndSplineSet
EndChar

StartChar: u1D57D
Encoding: 120189 120189 237
Width: 1775
GlyphClass: 1
Flags: HW
LayerCount: 2
Fore
SplineSet
117 -49 m 1
 71 -8 l 1
 85 30 93 67 93 99 c 0
 93 133 71 178 26 231 c 1
 67 285 l 1
 101 267 141 257 188 257 c 0
 228 257 288 278 316 310 c 1
 366 271 l 1
 344 220 334 182 334 156 c 0
 334 81 393 43 472 43 c 0
 563 43 633 85 686 174 c 0
 737 261 763 412 763 627 c 0
 763 1054 634 1324 413 1324 c 0
 261 1324 154 1204 154 1052 c 0
 154 910 288 765 470 716 c 1
 441 636 l 1
 172 711 51 879 51 1075 c 0
 51 1320 243 1512 488 1512 c 0
 652 1512 820 1427 919 1245 c 1
 986 1302 1063 1356 1152 1405 c 0
 1241 1454 1296 1488 1318 1506 c 1
 1358 1459 l 1
 1348 1449 1342 1435 1342 1421 c 0
 1342 1362 1536 1168 1581 1168 c 1
 1615 1180 l 1
 1641 1125 l 1
 1603 1099 1538 1047 1449 974 c 2
 1370 909 l 1
 1415 869 1451 775 1475 627 c 0
 1499 479 1528 371 1558 296 c 0
 1588 221 1618 184 1652 184 c 0
 1668 184 1697 205 1735 243 c 1
 1789 184 l 1
 1744 135 1690 89 1625 40 c 0
 1558 -9 1524 -37 1520 -47 c 1
 1459 -47 l 1
 1459 -43 1459 -38 1457 -34 c 0
 1455 -28 1437 -12 1405 16 c 0
 1340 75 1289 187 1249 381 c 2
 1202 599 l 2
 1192 650 1180 686 1172 708 c 0
 1164 730 1147 741 1133 741 c 0
 1117 741 1099 735 1079 719 c 2
 1020 676 l 1
 1000 275 787 -47 506 -47 c 0
 484 -47 421 -38 358 -28 c 0
 301 -18 245 -14 217 -14 c 0
 187 -14 151 -27 117 -49 c 1
1022 781 m 1
 1111 842 l 2
 1208 909 1289 969 1348 1024 c 1
 1178 1220 l 2
 1152 1250 1127 1267 1109 1267 c 0
 1093 1267 1075 1263 1059 1253 c 0
 1043 1243 1008 1215 953 1168 c 1
 993 1065 1016 937 1022 781 c 1
EndSplineSet
EndChar

StartChar: u1D411
Encoding: 119825 119825 238
Width: 1424
GlyphClass: 1
Flags: HW
LayerCount: 2
Fore
SplineSet
47 0 m 1
 47 53 l 1
 187 57 225 97 225 243 c 2
 225 1142 l 2
 225 1272 185 1314 49 1322 c 1
 49 1372 l 1
 654 1372 l 2
 1059 1372 1257 1257 1257 1008 c 0
 1257 842 1153 729 949 674 c 1
 1301 152 l 2
 1346 85 1374 53 1441 53 c 2
 1447 53 l 1
 1447 0 l 1
 1020 0 l 1
 607 640 l 1
 549 640 l 1
 549 243 l 2
 549 97 585 57 729 53 c 1
 729 0 l 1
 47 0 l 1
549 704 m 1
 613 704 l 2
 823 704 915 799 915 1012 c 0
 915 1204 836 1299 676 1299 c 0
 569 1299 549 1275 549 1162 c 2
 549 704 l 1
EndSplineSet
EndChar

StartChar: u1D479
Encoding: 119929 119929 239
Width: 1293
GlyphClass: 1
Flags: HW
LayerCount: 2
Fore
SplineSet
-101 0 m 1
 -101 47 l 1
 24 47 68 79 117 257 c 2
 346 1111 l 2
 356 1151 362 1184 362 1208 c 0
 362 1281 324 1302 221 1310 c 1
 221 1358 l 1
 763 1358 l 2
 1101 1358 1251 1263 1251 1055 c 0
 1251 885 1115 749 862 696 c 1
 1032 184 l 2
 1064 85 1113 57 1206 53 c 1
 1206 0 l 1
 802 0 l 1
 585 670 l 1
 522 670 l 1
 409 247 l 2
 397 200 391 166 391 142 c 0
 391 77 433 51 532 47 c 1
 532 0 l 1
 -101 0 l 1
595 739 m 0
 814 739 943 880 943 1097 c 0
 943 1229 882 1293 763 1293 c 0
 698 1293 686 1279 666 1202 c 2
 540 741 l 1
 558 739 577 739 595 739 c 0
EndSplineSet
EndChar

StartChar: u1D4E1
Encoding: 120033 120033 240
Width: 1752
GlyphClass: 1
Flags: HW
LayerCount: 2
Fore
SplineSet
518 -14 m 0
 291 -14 162 79 162 221 c 0
 162 328 253 409 362 409 c 0
 445 409 506 365 506 302 c 0
 506 239 458 196 407 194 c 0
 338 190 308 187 308 140 c 0
 308 91 389 40 492 40 c 0
 650 40 794 207 899 413 c 2
 1034 678 l 2
 1145 895 1348 1101 1548 1192 c 1
 1501 1206 1437 1212 1354 1212 c 0
 1073 1212 741 1117 555 945 c 0
 464 860 417 775 417 692 c 0
 417 613 474 565 555 565 c 0
 747 565 931 872 937 1028 c 0
 939 1060 956 1081 974 1081 c 0
 994 1081 1010 1068 1016 1044 c 0
 1022 1020 1026 982 1026 929 c 0
 1026 678 834 494 593 494 c 0
 441 494 350 569 350 690 c 0
 350 864 562 1075 870 1184 c 0
 1024 1239 1184 1265 1352 1265 c 0
 1475 1265 1572 1253 1641 1231 c 1
 1704 1247 1753 1255 1791 1255 c 0
 1823 1255 1840 1247 1840 1229 c 0
 1840 1217 1822 1208 1773 1200 c 2
 1739 1194 l 1
 1883 1158 1959 1058 1959 959 c 0
 1959 813 1809 682 1520 611 c 1
 1571 573 1595 520 1595 449 c 0
 1595 386 1571 293 1526 172 c 0
 1518 150 1512 129 1512 113 c 0
 1512 95 1518 85 1532 85 c 0
 1546 85 1574 113 1627 166 c 2
 1787 332 l 2
 1848 395 1902 446 1949 486 c 0
 1998 526 2034 549 2060 549 c 0
 2076 549 2093 546 2107 540 c 1
 2022 495 1810 272 1765 219 c 2
 1702 146 l 2
 1615 45 1532 -12 1449 -12 c 0
 1344 -12 1259 51 1259 154 c 0
 1259 235 1323 338 1388 431 c 0
 1420 478 1433 522 1433 565 c 0
 1433 581 1431 591 1425 597 c 0
 1409 595 1390 593 1374 593 c 0
 1344 593 1328 605 1328 629 c 0
 1328 655 1350 668 1395 668 c 0
 1413 668 1429 666 1439 660 c 0
 1449 654 1461 652 1471 652 c 0
 1576 652 1731 832 1731 986 c 0
 1731 1071 1698 1130 1633 1160 c 1
 1510 1101 1429 986 1344 753 c 0
 1259 518 1146 295 1016 176 c 0
 886 57 704 -14 518 -14 c 0
EndSplineSet
EndChar

StartChar: uni211D
Encoding: 8477 8477 241
Width: 1445
GlyphClass: 1
Flags: HW
LayerCount: 2
Fore
SplineSet
196 0 m 1
 196 1445 l 1
 721 1445 l 2
 1065 1445 1222 1306 1222 1061 c 0
 1222 883 1127 755 963 692 c 1
 1415 0 l 1
 1020 0 l 1
 634 642 l 1
 546 642 l 1
 546 0 l 1
 196 0 l 1
304 107 m 1
 439 107 l 1
 439 1338 l 1
 304 1338 l 1
 304 107 l 1
546 749 m 1
 828 749 l 1
 828 1338 l 1
 546 1338 l 1
 546 749 l 1
937 783 m 1
 1034 828 1105 899 1105 1061 c 0
 1105 1209 1046 1278 937 1314 c 1
 937 783 l 1
1075 105 m 1
 1225 105 l 1
 870 662 l 1
 832 654 785 648 747 646 c 1
 1075 105 l 1
EndSplineSet
EndChar

StartChar: Rho
Encoding: 929 929 242
Width: 1224
GlyphClass: 2
Flags: HW
AnchorPoint: "Anchor-1" 613 0 basechar 0
AnchorPoint: "Anchor-0" 642 1445 basechar 0
LayerCount: 2
Fore
SplineSet
196 0 m 1
 196 1445 l 1
 579 1445 l 2
 957 1445 1121 1289 1121 1020 c 0
 1121 781 977 563 544 563 c 2
 378 563 l 1
 378 0 l 1
 196 0 l 1
378 719 m 1
 524 719 l 2
 799 719 933 799 933 1012 c 0
 933 1198 818 1289 563 1289 c 2
 378 1289 l 1
 378 719 l 1
EndSplineSet
EndChar

StartChar: u1D445
Encoding: 119877 119877 243
Width: 1358
GlyphClass: 1
Flags: HW
LayerCount: 2
Fore
SplineSet
-101 0 m 1
 -91 40 l 1
 -81 40 l 2
 44 40 92 85 128 219 c 2
 378 1160 l 2
 390 1203 397 1239 397 1265 c 0
 397 1332 352 1354 245 1360 c 1
 255 1401 l 1
 848 1401 l 2
 1131 1401 1275 1287 1275 1097 c 0
 1275 905 1139 775 872 708 c 1
 1059 257 l 2
 1120 109 1168 40 1263 40 c 2
 1271 40 l 1
 1259 0 l 1
 945 0 l 1
 666 688 l 1
 621 688 l 2
 552 688 499 690 459 696 c 1
 344 267 l 2
 328 204 320 162 320 138 c 0
 320 63 365 38 466 38 c 2
 488 38 l 1
 476 0 l 1
 -101 0 l 1
609 753 m 0
 888 753 1044 885 1044 1095 c 0
 1044 1255 949 1334 757 1334 c 0
 654 1334 625 1315 595 1200 c 2
 476 761 l 1
 516 757 560 753 609 753 c 0
EndSplineSet
EndChar

StartChar: uni211B
Encoding: 8475 8475 244
Width: 1764
GlyphClass: 1
Flags: HW
LayerCount: 2
Fore
SplineSet
1263 -20 m 0
 1135 -20 1095 65 1095 134 c 0
 1095 185 1126 289 1166 374 c 0
 1215 475 1259 581 1259 636 c 0
 1259 674 1249 694 1243 704 c 1
 1229 700 1214 696 1184 696 c 0
 1162 696 1115 709 1115 745 c 0
 1115 781 1156 785 1174 785 c 0
 1204 785 1237 769 1267 747 c 1
 1334 761 1550 878 1550 1121 c 0
 1550 1253 1520 1331 1453 1376 c 1
 1303 1295 1231 1170 1172 1010 c 0
 1152 957 1131 899 1115 840 c 0
 1093 761 1068 680 1040 597 c 0
 1026 552 1004 492 984 447 c 0
 863 188 652 -18 310 -18 c 0
 0 -18 -8 230 -8 277 c 0
 -8 384 69 470 160 470 c 0
 257 470 287 400 287 360 c 0
 287 273 237 241 178 233 c 0
 131 227 67 239 67 174 c 0
 67 152 95 18 291 18 c 0
 402 18 486 61 553 140 c 0
 636 239 708 393 795 585 c 0
 876 765 994 972 1162 1182 c 0
 1211 1243 1273 1322 1407 1401 c 1
 1350 1421 1277 1429 1184 1429 c 0
 937 1429 704 1342 591 1275 c 0
 512 1228 221 1020 221 793 c 0
 221 682 275 629 348 629 c 0
 534 629 783 895 783 1237 c 1
 814 1237 l 1
 826 1192 840 1123 840 1048 c 0
 840 848 666 583 405 583 c 0
 265 583 182 653 182 793 c 0
 182 1026 470 1246 571 1305 c 0
 723 1394 939 1465 1184 1465 c 0
 1291 1465 1382 1449 1457 1425 c 1
 1491 1441 1527 1453 1563 1461 c 1
 1579 1427 l 1
 1557 1421 1536 1413 1516 1405 c 1
 1670 1338 1745 1222 1745 1113 c 0
 1745 941 1592 792 1299 721 c 1
 1390 652 1401 565 1401 508 c 0
 1401 447 1376 373 1350 300 c 0
 1324 229 1299 162 1299 117 c 0
 1299 81 1314 49 1342 49 c 0
 1368 49 1418 87 1463 136 c 0
 1534 215 1607 320 1617 338 c 1
 1650 320 l 1
 1644 310 1579 204 1502 119 c 0
 1435 44 1352 -20 1263 -20 c 0
EndSplineSet
EndChar

StartChar: S
Encoding: 83 83 245
Width: 1111
GlyphClass: 2
Flags: HW
AnchorPoint: "Anchor-1" 520 0 basechar 0
AnchorPoint: "Anchor-0" 577 1445 basechar 0
LayerCount: 2
Fore
SplineSet
500 -20 m 0
 338 -20 194 4 103 49 c 1
 103 223 l 1
 200 180 354 138 508 138 c 0
 723 138 834 226 834 370 c 0
 834 512 755 573 494 668 c 0
 247 757 121 872 121 1097 c 0
 121 1326 310 1465 583 1465 c 0
 741 1465 873 1433 982 1384 c 1
 925 1229 l 1
 824 1272 704 1305 579 1305 c 0
 399 1305 306 1220 306 1095 c 0
 306 949 386 891 621 804 c 0
 876 709 1016 614 1016 387 c 0
 1016 130 816 -20 500 -20 c 0
EndSplineSet
EndChar

StartChar: u1D516
Encoding: 120086 120086 246
Width: 1574
GlyphClass: 1
Flags: HW
LayerCount: 2
Fore
SplineSet
852 -47 m 0
 409 -47 93 265 93 700 c 0
 93 971 231 1218 498 1366 c 0
 632 1439 745 1475 838 1475 c 0
 878 1475 919 1465 957 1439 c 0
 989 1417 1042 1384 1095 1354 c 0
 1176 1305 1260 1263 1305 1263 c 0
 1368 1263 1415 1307 1415 1350 c 0
 1415 1368 1411 1380 1399 1388 c 0
 1389 1396 1382 1409 1382 1423 c 0
 1382 1449 1395 1463 1417 1463 c 0
 1447 1463 1463 1435 1463 1378 c 0
 1463 1287 1421 1243 1287 1178 c 0
 1220 1146 1178 1129 1160 1129 c 0
 1140 1129 1109 1146 1069 1176 c 0
 1033 1202 993 1229 955 1251 c 0
 906 1279 855 1306 806 1326 c 0
 763 1344 720 1352 680 1352 c 0
 427 1352 202 1107 202 795 c 0
 202 526 366 307 593 188 c 0
 706 127 822 99 937 99 c 0
 1220 99 1431 277 1431 518 c 0
 1431 704 1306 848 1162 848 c 0
 1115 848 1059 831 992 797 c 0
 794 696 686 646 672 646 c 0
 664 646 647 660 629 676 c 2
 504 795 l 2
 447 850 419 909 419 982 c 0
 419 1116 530 1222 666 1222 c 0
 765 1222 856 1170 911 1067 c 1
 872 1040 l 1
 832 1127 751 1176 668 1176 c 0
 557 1176 468 1095 468 982 c 0
 468 891 534 822 631 822 c 0
 706 822 828 886 937 951 c 0
 992 983 1039 998 1075 998 c 0
 1221 998 1478 791 1478 526 c 0
 1478 194 1212 -47 852 -47 c 0
EndSplineSet
EndChar

StartChar: u1D412
Encoding: 119826 119826 247
Width: 1175
GlyphClass: 1
Flags: HW
LayerCount: 2
Fore
SplineSet
130 -32 m 1
 130 476 l 1
 188 476 l 1
 253 183 383 45 593 45 c 0
 747 45 840 139 840 269 c 0
 840 358 785 429 678 482 c 2
 490 575 l 2
 255 690 150 814 150 1000 c 0
 150 1245 320 1405 557 1405 c 0
 638 1405 737 1384 850 1350 c 0
 870 1344 887 1340 903 1340 c 0
 937 1340 959 1362 965 1405 c 1
 1022 1405 l 1
 1022 961 l 1
 972 961 l 1
 915 1188 755 1340 585 1340 c 0
 447 1340 360 1259 360 1146 c 0
 360 1041 431 978 569 913 c 2
 763 822 l 2
 1010 707 1083 585 1083 401 c 0
 1083 142 887 -30 579 -30 c 0
 510 -30 443 -22 378 2 c 0
 311 26 269 36 255 36 c 0
 210 36 198 19 184 -32 c 1
 130 -32 l 1
EndSplineSet
EndChar

StartChar: u1D47A
Encoding: 119930 119930 248
Width: 1111
GlyphClass: 1
Flags: HW
LayerCount: 2
Fore
SplineSet
463 -34 m 0
 384 -34 289 -13 174 30 c 0
 152 38 131 43 115 43 c 0
 81 43 60 25 28 -22 c 1
 -26 -22 l 1
 79 435 l 1
 136 435 l 1
 136 421 l 2
 136 168 243 38 437 38 c 0
 575 38 686 159 686 293 c 0
 686 412 599 494 429 646 c 0
 259 798 210 870 210 1014 c 0
 210 1231 388 1395 625 1395 c 0
 700 1395 788 1376 891 1342 c 0
 909 1336 927 1332 941 1332 c 0
 973 1332 1004 1350 1030 1388 c 1
 1085 1388 l 1
 988 972 l 1
 929 972 l 1
 931 984 931 1002 931 1016 c 0
 931 1196 818 1324 674 1324 c 0
 559 1324 461 1230 461 1109 c 0
 461 1032 518 960 593 889 c 0
 636 849 684 805 731 765 c 0
 859 652 939 532 939 378 c 0
 939 121 765 -34 463 -34 c 0
EndSplineSet
EndChar

StartChar: u1D4E2
Encoding: 120034 120034 249
Width: 1258
GlyphClass: 1
Flags: HW
LayerCount: 2
Fore
SplineSet
423 -14 m 0
 196 -14 67 81 67 221 c 0
 67 328 154 409 265 409 c 0
 352 409 409 365 409 302 c 0
 409 239 363 198 312 194 c 0
 288 192 265 190 249 188 c 0
 233 186 213 170 213 140 c 0
 213 91 290 43 393 43 c 0
 543 43 695 184 810 482 c 1
 595 498 457 632 457 802 c 0
 457 956 579 1111 777 1198 c 0
 876 1243 986 1263 1105 1263 c 0
 1158 1263 1194 1261 1214 1257 c 0
 1232 1253 1243 1243 1243 1229 c 0
 1243 1213 1228 1202 1202 1202 c 0
 1180 1202 1159 1204 1137 1204 c 0
 858 1204 615 980 615 747 c 0
 615 617 696 538 834 534 c 1
 994 945 1309 1265 1530 1265 c 0
 1633 1265 1706 1192 1706 1097 c 0
 1706 907 1475 670 1135 532 c 1
 1014 210 719 -14 423 -14 c 0
1154 601 m 1
 1399 722 1591 987 1591 1121 c 0
 1591 1180 1567 1208 1520 1208 c 0
 1465 1208 1405 1158 1340 1057 c 0
 1275 956 1213 803 1154 601 c 1
EndSplineSet
EndChar

StartChar: u1D54A
Encoding: 120138 120138 250
Width: 1074
GlyphClass: 1
Flags: HW
LayerCount: 2
Fore
SplineSet
472 -20 m 0
 310 -20 176 2 67 49 c 1
 67 156 l 1
 184 107 320 83 474 83 c 0
 508 83 545 85 581 93 c 1
 581 660 l 1
 415 715 304 757 251 787 c 0
 144 850 85 939 85 1081 c 0
 85 1330 260 1467 551 1467 c 0
 683 1467 813 1441 945 1386 c 1
 909 1285 l 1
 777 1338 658 1364 551 1364 c 0
 515 1364 490 1362 478 1358 c 1
 478 810 l 1
 660 751 l 2
 870 682 980 583 980 381 c 0
 980 140 780 -20 472 -20 c 0
370 850 m 1
 370 1336 l 1
 253 1300 192 1215 192 1083 c 0
 192 970 253 893 370 850 c 1
688 121 m 1
 811 166 872 251 872 376 c 0
 872 504 818 572 688 623 c 1
 688 121 l 1
EndSplineSet
EndChar

StartChar: Sigma
Encoding: 931 931 251
Width: 1153
GlyphClass: 2
Flags: HW
AnchorPoint: "Anchor-1" 577 0 basechar 0
AnchorPoint: "Anchor-0" 577 1445 basechar 0
LayerCount: 2
Fore
SplineSet
73 0 m 1
 73 150 l 1
 546 755 l 1
 85 1293 l 1
 85 1445 l 1
 1046 1445 l 1
 1046 1283 l 1
 530 1283 l 2
 471 1283 336 1283 293 1285 c 1
 749 757 l 1
 273 158 l 1
 374 160 476 160 583 160 c 2
 1105 160 l 1
 1105 0 l 1
 73 0 l 1
EndSplineSet
EndChar

StartChar: u1D446
Encoding: 119878 119878 252
Width: 1111
GlyphClass: 1
Flags: HW
LayerCount: 2
Fore
SplineSet
461 -28 m 0
 376 -28 279 -8 174 30 c 0
 154 38 137 40 125 40 c 0
 85 40 59 19 45 -24 c 1
 8 -24 l 1
 77 439 l 1
 115 441 l 1
 121 176 245 32 439 32 c 0
 593 32 710 154 710 316 c 0
 710 387 678 453 623 524 c 0
 583 577 528 633 463 698 c 0
 313 850 265 948 265 1065 c 0
 265 1275 427 1431 668 1431 c 0
 733 1431 791 1425 846 1405 c 0
 903 1385 933 1376 943 1376 c 0
 977 1376 1004 1393 1020 1425 c 1
 1059 1425 l 1
 994 1014 l 1
 961 1014 l 1
 957 1247 862 1366 698 1366 c 0
 554 1366 466 1275 466 1133 c 0
 466 1052 524 965 605 876 c 0
 664 813 728 747 793 676 c 0
 868 593 907 494 907 381 c 0
 907 146 718 -28 461 -28 c 0
EndSplineSet
EndChar

StartChar: u1D4AE
Encoding: 119982 119982 253
Width: 1218
GlyphClass: 1
Flags: HW
LayerCount: 2
Fore
SplineSet
423 -14 m 0
 213 -14 89 77 89 215 c 0
 89 318 168 395 263 395 c 0
 334 395 381 353 381 296 c 0
 381 237 349 200 296 198 c 0
 245 196 180 195 180 132 c 0
 180 77 274 16 393 16 c 0
 561 16 727 170 848 488 c 1
 638 494 486 626 486 804 c 0
 486 956 599 1109 795 1198 c 0
 892 1243 1000 1263 1115 1263 c 0
 1160 1263 1188 1263 1204 1259 c 0
 1218 1257 1227 1249 1227 1239 c 0
 1227 1227 1220 1220 1206 1220 c 0
 1194 1220 1182 1225 1170 1225 c 0
 953 1225 767 1130 666 980 c 0
 615 905 589 828 589 749 c 0
 589 609 692 522 848 522 c 2
 864 522 l 1
 1030 951 1338 1265 1548 1265 c 0
 1635 1265 1698 1194 1698 1105 c 0
 1698 909 1457 672 1119 534 c 1
 998 208 706 -14 423 -14 c 0
1140 585 m 1
 1421 704 1631 977 1631 1129 c 0
 1631 1196 1605 1229 1550 1229 c 0
 1477 1229 1409 1174 1338 1071 c 0
 1267 968 1201 804 1140 585 c 1
EndSplineSet
EndChar

StartChar: T
Encoding: 84 84 254
Width: 1125
GlyphClass: 2
Flags: HW
AnchorPoint: "Anchor-1" 563 0 basechar 0
AnchorPoint: "Anchor-0" 563 1445 basechar 0
LayerCount: 2
Fore
SplineSet
472 0 m 1
 472 1285 l 1
 20 1285 l 1
 20 1445 l 1
 1103 1445 l 1
 1103 1285 l 1
 654 1285 l 1
 654 0 l 1
 472 0 l 1
EndSplineSet
EndChar

StartChar: u1D517
Encoding: 120087 120087 255
Width: 1190
GlyphClass: 1
Flags: HW
LayerCount: 2
Fore
SplineSet
830 -47 m 0
 759 -47 378 182 281 247 c 0
 232 279 196 296 170 296 c 0
 146 296 113 276 75 233 c 1
 43 255 l 1
 98 334 138 387 166 419 c 0
 192 449 217 463 237 463 c 0
 255 463 284 449 324 427 c 0
 364 405 429 393 520 393 c 0
 658 393 731 449 731 506 c 0
 731 538 705 575 652 611 c 0
 612 639 568 672 532 702 c 0
 471 753 427 807 427 864 c 0
 427 961 525 1071 721 1192 c 1
 607 1255 l 2
 492 1320 409 1352 358 1352 c 0
 226 1352 132 1251 132 1121 c 0
 132 1044 164 976 227 917 c 1
 194 884 l 1
 121 951 85 1032 85 1125 c 0
 85 1327 354 1478 492 1478 c 0
 573 1478 858 1312 988 1233 c 0
 1055 1193 1099 1172 1123 1172 c 0
 1143 1172 1174 1186 1208 1212 c 1
 1241 1186 l 1
 1182 1139 1139 1099 1113 1071 c 0
 1087 1043 1064 1028 1050 1028 c 0
 1030 1028 935 1075 765 1170 c 1
 642 1091 579 1012 579 939 c 0
 579 896 611 855 660 812 c 0
 703 776 752 736 799 704 c 0
 850 670 872 626 872 575 c 0
 872 450 753 352 518 350 c 0
 492 350 465 354 439 358 c 1
 455 348 515 311 551 289 c 0
 689 202 824 119 917 119 c 0
 988 119 1067 160 1156 237 c 1
 1182 206 l 1
 1097 117 1022 54 959 14 c 0
 896 -26 854 -47 830 -47 c 0
EndSplineSet
EndChar

StartChar: Tau
Encoding: 932 932 256
Width: 1125
GlyphClass: 2
Flags: HW
AnchorPoint: "Anchor-1" 563 0 basechar 0
AnchorPoint: "Anchor-0" 563 1445 basechar 0
LayerCount: 2
Fore
SplineSet
472 0 m 1
 472 1285 l 1
 20 1285 l 1
 20 1445 l 1
 1103 1445 l 1
 1103 1285 l 1
 654 1285 l 1
 654 0 l 1
 472 0 l 1
EndSplineSet
EndChar

StartChar: u1D413
Encoding: 119827 119827 257
Width: 1275
GlyphClass: 1
Flags: HW
LayerCount: 2
Fore
SplineSet
277 0 m 1
 277 53 l 1
 423 53 470 97 470 243 c 2
 470 1305 l 1
 449 1305 l 2
 236 1305 107 1182 87 957 c 1
 32 957 l 1
 32 1372 l 1
 1237 1372 l 1
 1237 955 l 1
 1186 955 l 1
 1164 1188 1039 1305 810 1305 c 2
 793 1305 l 1
 793 243 l 2
 793 91 834 53 988 53 c 1
 988 0 l 1
 277 0 l 1
EndSplineSet
EndChar

StartChar: u1D47B
Encoding: 119931 119931 258
Width: 1214
GlyphClass: 1
Flags: HW
LayerCount: 2
Fore
SplineSet
132 0 m 1
 132 51 l 1
 245 55 296 85 322 180 c 2
 617 1287 l 1
 585 1287 l 2
 427 1287 273 1182 192 996 c 1
 142 996 l 1
 217 1358 l 1
 1318 1358 l 1
 1259 969 l 1
 1202 969 l 1
 1188 1179 1099 1285 937 1285 c 2
 923 1285 l 1
 625 190 l 2
 621 176 617 152 617 138 c 0
 619 75 656 59 761 51 c 1
 761 0 l 1
 132 0 l 1
EndSplineSet
EndChar

StartChar: u1D4E3
Encoding: 120035 120035 259
Width: 1246
GlyphClass: 1
Flags: HW
LayerCount: 2
Fore
SplineSet
638 526 m 0
 504 526 423 604 423 719 c 0
 423 859 544 1042 783 1170 c 0
 902 1233 1032 1265 1170 1265 c 0
 1223 1265 1296 1255 1393 1233 c 0
 1490 1211 1560 1200 1603 1200 c 0
 1660 1200 1700 1211 1728 1229 c 0
 1732 1231 1741 1235 1745 1235 c 0
 1755 1235 1761 1228 1761 1216 c 0
 1761 1165 1657 1048 1538 1048 c 0
 1475 1048 1392 1068 1287 1111 c 0
 1180 1154 1095 1174 1026 1174 c 0
 759 1174 482 911 482 721 c 0
 482 650 528 601 599 601 c 0
 735 601 901 828 901 1016 c 0
 901 1034 899 1055 899 1073 c 0
 899 1091 905 1099 919 1099 c 0
 951 1099 998 996 998 897 c 0
 998 693 832 526 638 526 c 0
500 -14 m 0
 249 -14 121 75 121 221 c 0
 121 328 211 409 320 409 c 0
 407 409 463 365 463 302 c 0
 463 235 406 194 366 194 c 0
 342 194 316 192 298 184 c 0
 280 176 267 166 267 140 c 0
 267 91 342 45 457 45 c 0
 672 45 830 160 955 512 c 0
 1018 688 1097 822 1190 911 c 0
 1283 1000 1346 1044 1376 1044 c 0
 1388 1044 1395 1036 1395 1022 c 0
 1395 1010 1390 998 1380 986 c 0
 1340 943 1319 884 1299 773 c 2
 1271 617 l 2
 1208 275 955 -14 500 -14 c 0
EndSplineSet
EndChar

StartChar: u1D54B
Encoding: 120139 120139 260
Width: 1192
GlyphClass: 1
Flags: HW
LayerCount: 2
Fore
SplineSet
421 0 m 1
 421 1338 l 1
 10 1338 l 1
 10 1445 l 1
 1182 1445 l 1
 1182 1338 l 1
 771 1338 l 1
 771 0 l 1
 421 0 l 1
528 107 m 1
 664 107 l 1
 664 1338 l 1
 528 1338 l 1
 528 107 l 1
EndSplineSet
EndChar

StartChar: Theta
Encoding: 920 920 261
Width: 1580
GlyphClass: 2
Flags: HW
AnchorPoint: "Anchor-1" 793 0 basechar 0
AnchorPoint: "Anchor-0" 791 1445 basechar 0
LayerCount: 2
Fore
SplineSet
791 -20 m 0
 340 -20 123 280 123 727 c 0
 123 1170 340 1467 793 1467 c 0
 1226 1467 1457 1174 1457 725 c 0
 1457 278 1226 -20 791 -20 c 0
791 138 m 0
 1119 138 1265 361 1265 725 c 0
 1265 1089 1119 1308 793 1308 c 0
 465 1308 316 1089 316 725 c 0
 316 361 465 138 791 138 c 0
484 656 m 1
 484 814 l 1
 1095 814 l 1
 1095 656 l 1
 484 656 l 1
EndSplineSet
EndChar

StartChar: uni03F4
Encoding: 1012 1012 262
Width: 1582
GlyphClass: 2
Flags: HW
AnchorPoint: "Anchor-1" 791 0 basechar 0
AnchorPoint: "Anchor-0" 791 1445 basechar 0
LayerCount: 2
Fore
SplineSet
791 -20 m 0
 340 -20 123 280 123 727 c 0
 123 1170 340 1467 793 1467 c 0
 1226 1467 1457 1174 1457 725 c 0
 1457 278 1226 -20 791 -20 c 0
318 816 m 1
 1261 816 l 1
 1237 1124 1093 1308 793 1308 c 0
 489 1308 342 1124 318 816 c 1
791 138 m 0
 1099 138 1247 332 1263 658 c 1
 318 658 l 1
 334 332 481 138 791 138 c 0
EndSplineSet
EndChar

StartChar: u1D447
Encoding: 119879 119879 263
Width: 1265
GlyphClass: 1
Flags: HW
LayerCount: 2
Fore
SplineSet
150 0 m 1
 158 40 l 1
 174 40 l 2
 320 40 366 79 419 269 c 2
 688 1257 l 2
 692 1269 694 1283 694 1293 c 0
 694 1315 676 1328 640 1328 c 2
 585 1328 l 2
 330 1328 237 1255 178 1061 c 1
 134 1065 l 1
 223 1401 l 1
 1388 1401 l 1
 1324 1055 l 1
 1285 1055 l 1
 1287 1077 1287 1097 1287 1119 c 0
 1287 1271 1234 1328 1042 1328 c 2
 959 1328 l 2
 923 1328 909 1311 899 1275 c 2
 625 279 l 2
 607 214 597 164 597 130 c 0
 597 59 647 40 775 40 c 2
 797 40 l 1
 785 0 l 1
 150 0 l 1
EndSplineSet
EndChar

StartChar: u1D4AF
Encoding: 119983 119983 264
Width: 1246
GlyphClass: 1
Flags: HW
LayerCount: 2
Fore
SplineSet
640 534 m 0
 519 534 437 608 437 721 c 0
 437 948 795 1265 1180 1265 c 0
 1263 1265 1348 1255 1439 1231 c 0
 1532 1207 1593 1198 1621 1198 c 0
 1666 1198 1696 1204 1712 1216 c 0
 1728 1228 1741 1235 1749 1235 c 0
 1757 1235 1761 1228 1761 1220 c 0
 1761 1180 1657 1065 1554 1065 c 0
 1520 1065 1485 1071 1449 1085 c 2
 1328 1129 l 2
 1243 1159 1143 1192 1034 1192 c 0
 777 1192 474 911 474 723 c 0
 474 644 524 591 587 591 c 0
 731 591 917 828 917 1022 c 0
 917 1038 915 1057 915 1073 c 0
 915 1089 919 1097 927 1097 c 0
 935 1097 947 1080 959 1042 c 0
 971 1006 978 958 978 901 c 0
 978 697 826 534 640 534 c 0
500 -14 m 0
 261 -14 144 73 144 215 c 0
 144 318 223 395 318 395 c 0
 389 395 435 353 435 296 c 0
 435 235 399 200 350 198 c 0
 299 196 235 195 235 132 c 0
 235 77 319 18 457 18 c 0
 667 18 844 150 982 510 c 0
 1051 690 1125 826 1206 913 c 0
 1287 1002 1340 1044 1364 1044 c 0
 1374 1044 1380 1038 1380 1028 c 0
 1380 1016 1376 1008 1366 996 c 0
 1330 956 1305 852 1297 812 c 2
 1251 589 l 2
 1170 202 881 -14 500 -14 c 0
EndSplineSet
EndChar

StartChar: U
Encoding: 85 85 265
Width: 1479
GlyphClass: 2
Flags: HW
AnchorPoint: "Anchor-1" 737 0 basechar 0
AnchorPoint: "Anchor-0" 741 1445 basechar 0
LayerCount: 2
Fore
SplineSet
733 -20 m 0
 373 -20 182 192 182 514 c 2
 182 1445 l 1
 364 1445 l 1
 364 508 l 2
 364 273 490 138 743 138 c 0
 1004 138 1115 291 1115 510 c 2
 1115 1445 l 1
 1295 1445 l 1
 1295 510 l 2
 1295 210 1116 -20 733 -20 c 0
EndSplineSet
EndChar

StartChar: u1D518
Encoding: 120088 120088 266
Width: 1200
GlyphClass: 1
Flags: HW
LayerCount: 2
Fore
SplineSet
376 -47 m 1
 376 -40 l 2
 376 -26 372 -16 364 -8 c 0
 346 8 179 115 134 115 c 1
 134 160 l 1
 181 178 188 227 188 318 c 2
 188 1190 l 2
 188 1241 168 1267 128 1267 c 0
 104 1267 81 1263 59 1251 c 1
 36 1285 l 1
 139 1366 194 1427 200 1467 c 1
 239 1467 l 1
 241 1451 253 1439 273 1429 c 0
 318 1407 346 1379 346 1334 c 2
 346 253 l 2
 346 241 348 229 360 221 c 2
 506 107 l 2
 518 97 530 91 542 91 c 0
 564 91 668 152 852 273 c 1
 852 1164 l 2
 852 1239 830 1273 759 1285 c 1
 759 1332 l 1
 840 1344 891 1388 913 1467 c 1
 951 1467 l 1
 973 1388 1026 1344 1107 1332 c 1
 1107 1285 l 1
 1036 1273 1012 1239 1012 1164 c 2
 1012 247 l 2
 1012 180 1031 148 1067 148 c 0
 1091 148 1122 164 1158 196 c 1
 1186 164 l 1
 1115 109 1047 40 980 -47 c 1
 937 -47 l 1
 939 -22 l 2
 939 -14 931 -4 919 4 c 0
 874 34 852 77 852 136 c 2
 852 221 l 1
 753 150 619 69 449 -22 c 0
 429 -34 419 -43 419 -47 c 1
 376 -47 l 1
EndSplineSet
EndChar

StartChar: u1D414
Encoding: 119828 119828 267
Width: 1483
GlyphClass: 1
Flags: HW
LayerCount: 2
Fore
SplineSet
747 -38 m 0
 375 -38 221 126 221 468 c 2
 221 1142 l 2
 221 1272 179 1314 45 1322 c 1
 45 1372 l 1
 725 1372 l 1
 725 1322 l 1
 573 1310 544 1288 544 1142 c 2
 544 421 l 2
 544 184 632 67 828 67 c 0
 1065 67 1182 205 1182 480 c 2
 1182 1140 l 2
 1182 1272 1144 1310 990 1322 c 1
 990 1372 l 1
 1429 1372 l 1
 1429 1322 l 1
 1306 1306 1273 1261 1273 1140 c 2
 1273 546 l 2
 1273 127 1105 -38 747 -38 c 0
EndSplineSet
EndChar

StartChar: u1D47C
Encoding: 119932 119932 268
Width: 1439
GlyphClass: 1
Flags: HW
LayerCount: 2
Fore
SplineSet
583 -34 m 0
 292 -34 130 109 130 326 c 0
 130 373 142 443 168 538 c 2
 332 1137 l 2
 340 1167 346 1194 346 1214 c 0
 346 1289 305 1308 200 1314 c 1
 200 1358 l 1
 824 1358 l 1
 824 1312 l 1
 696 1312 661 1279 621 1133 c 2
 437 459 l 2
 419 394 411 341 411 296 c 0
 411 173 506 83 648 83 c 0
 850 83 970 194 1083 585 c 2
 1192 963 l 2
 1222 1070 1237 1143 1237 1186 c 0
 1237 1261 1182 1302 1075 1310 c 1
 1075 1358 l 1
 1492 1358 l 1
 1492 1308 l 1
 1449 1302 1414 1283 1388 1253 c 0
 1362 1223 1335 1155 1305 1050 c 2
 1137 482 l 2
 1022 93 868 -34 583 -34 c 0
EndSplineSet
EndChar

StartChar: u1D4E4
Encoding: 120036 120036 269
Width: 1819
GlyphClass: 1
Flags: HW
LayerCount: 2
Fore
SplineSet
953 -16 m 0
 828 -16 757 56 757 188 c 0
 757 277 801 381 880 494 c 0
 925 557 969 617 1012 674 c 0
 1052 729 1087 779 1117 828 c 0
 1172 919 1210 996 1210 1059 c 0
 1210 1154 1139 1206 1044 1206 c 0
 886 1206 662 1066 502 870 c 0
 421 771 381 686 381 615 c 0
 381 532 441 478 500 478 c 0
 650 478 842 814 844 980 c 0
 844 1008 838 1035 838 1063 c 0
 838 1075 844 1081 856 1081 c 0
 874 1081 897 1061 915 1018 c 0
 933 975 943 923 943 854 c 0
 943 611 751 409 524 409 c 0
 388 409 320 486 320 607 c 0
 320 868 774 1265 1059 1265 c 0
 1267 1265 1407 1147 1407 969 c 0
 1407 801 1253 585 1075 338 c 0
 986 215 941 132 941 87 c 0
 941 55 958 38 990 38 c 0
 1085 38 1195 142 1316 346 c 0
 1437 550 1601 830 1801 1186 c 1
 2097 1216 l 1
 1629 413 l 2
 1574 320 1536 249 1510 200 c 0
 1484 151 1469 113 1469 85 c 0
 1469 67 1478 57 1496 57 c 0
 1522 57 1564 81 1623 132 c 0
 1738 231 1897 375 2004 474 c 0
 2059 525 2099 549 2127 549 c 0
 2143 549 2160 546 2174 540 c 1
 2127 514 2083 476 2038 429 c 0
 1947 334 1607 -14 1445 -14 c 0
 1342 -14 1277 47 1277 144 c 0
 1277 162 1281 182 1289 206 c 1
 1174 60 1081 -16 953 -16 c 0
EndSplineSet
EndChar

StartChar: u1D54C
Encoding: 120140 120140 270
Width: 1323
GlyphClass: 1
Flags: HW
LayerCount: 2
Fore
SplineSet
654 -20 m 0
 280 -20 142 105 142 512 c 2
 142 1445 l 1
 492 1445 l 1
 492 99 l 1
 532 87 587 83 656 83 c 0
 966 83 1075 206 1075 506 c 2
 1075 1445 l 1
 1182 1445 l 1
 1182 512 l 2
 1182 144 1028 -20 654 -20 c 0
385 130 m 1
 385 1338 l 1
 249 1338 l 1
 249 506 l 2
 249 296 296 154 385 130 c 1
EndSplineSet
EndChar

StartChar: u1D448
Encoding: 119880 119880 271
Width: 1479
GlyphClass: 1
Flags: HW
LayerCount: 2
Fore
SplineSet
603 -30 m 0
 328 -30 156 115 156 340 c 0
 156 387 168 457 192 546 c 2
 358 1168 l 2
 370 1213 376 1245 376 1265 c 0
 376 1338 329 1356 204 1362 c 1
 215 1401 l 1
 806 1401 l 1
 797 1362 l 1
 777 1362 l 2
 647 1362 597 1304 557 1150 c 2
 407 581 l 2
 375 462 358 379 358 330 c 0
 358 164 466 69 650 69 c 0
 806 69 927 132 1000 239 c 0
 1036 292 1075 392 1115 546 c 2
 1255 1069 l 2
 1275 1142 1285 1201 1285 1241 c 0
 1285 1336 1246 1358 1123 1362 c 1
 1131 1401 l 1
 1603 1401 l 1
 1597 1362 l 1
 1569 1362 l 2
 1490 1362 1441 1334 1409 1267 c 0
 1393 1235 1370 1170 1346 1075 c 2
 1192 492 l 2
 1091 109 927 -30 603 -30 c 0
EndSplineSet
EndChar

StartChar: Upsilon
Encoding: 933 933 272
Width: 1145
GlyphClass: 2
Flags: HW
AnchorPoint: "Anchor-1" 573 0 basechar 0
AnchorPoint: "Anchor-0" 573 1445 basechar 0
LayerCount: 2
Fore
SplineSet
482 0 m 1
 482 553 l 1
 0 1445 l 1
 198 1445 l 1
 573 735 l 1
 949 1445 l 1
 1146 1445 l 1
 664 561 l 1
 664 0 l 1
 482 0 l 1
EndSplineSet
EndChar

StartChar: u1D4B0
Encoding: 119984 119984 273
Width: 1793
GlyphClass: 1
Flags: HW
LayerCount: 2
Fore
SplineSet
941 -16 m 0
 830 -16 769 52 769 180 c 0
 769 259 801 340 854 431 c 0
 913 530 994 639 1093 771 c 0
 1186 896 1231 994 1231 1065 c 0
 1231 1168 1161 1227 1050 1227 c 0
 797 1227 374 856 374 615 c 0
 374 522 421 466 498 466 c 0
 613 466 735 587 802 759 c 0
 834 844 852 899 854 986 c 0
 854 1010 848 1035 848 1059 c 0
 848 1073 852 1079 860 1079 c 0
 874 1079 887 1058 901 1018 c 0
 915 978 921 925 921 858 c 0
 921 607 726 415 522 415 c 0
 405 415 334 488 334 607 c 0
 334 797 561 1055 771 1176 c 0
 874 1235 972 1265 1065 1265 c 0
 1245 1265 1372 1138 1372 976 c 0
 1372 848 1301 709 1135 476 c 0
 1050 359 989 267 953 206 c 0
 915 143 899 95 899 67 c 0
 899 29 913 18 953 18 c 0
 1093 18 1302 267 1587 769 c 2
 1824 1186 l 1
 2067 1212 l 1
 1603 413 l 2
 1492 219 1435 96 1435 45 c 0
 1435 33 1445 26 1467 26 c 0
 1546 26 1727 203 1927 401 c 0
 1965 437 1994 464 2020 486 c 0
 2067 524 2101 544 2121 544 c 2
 2143 540 l 1
 2088 512 2034 470 1975 403 c 0
 1860 275 1597 -14 1439 -14 c 0
 1352 -14 1297 43 1297 136 c 0
 1297 168 1321 243 1372 358 c 1
 1267 210 1184 112 1123 61 c 0
 1060 10 1002 -16 941 -16 c 0
EndSplineSet
EndChar

StartChar: V
Encoding: 86 86 274
Width: 1214
GlyphClass: 2
Flags: HW
AnchorPoint: "Anchor-1" 605 0 basechar 0
AnchorPoint: "Anchor-0" 613 1445 basechar 0
LayerCount: 2
Fore
SplineSet
516 0 m 1
 0 1445 l 1
 190 1445 l 1
 516 518 l 2
 559 399 587 297 607 202 c 1
 625 297 655 401 698 522 c 2
 1022 1445 l 1
 1214 1445 l 1
 698 0 l 1
 516 0 l 1
EndSplineSet
EndChar

StartChar: u1D519
Encoding: 120089 120089 275
Width: 1639
GlyphClass: 1
Flags: HW
LayerCount: 2
Fore
SplineSet
937 -47 m 0
 901 -47 861 -26 816 12 c 0
 727 89 644 156 555 217 c 0
 510 247 467 261 427 261 c 0
 393 261 338 249 265 223 c 1
 247 261 l 1
 346 295 421 322 476 344 c 0
 529 366 563 372 581 372 c 0
 595 372 611 368 625 364 c 1
 736 451 802 621 802 840 c 0
 802 1129 664 1310 449 1310 c 0
 259 1310 123 1163 123 969 c 0
 123 791 242 660 461 617 c 1
 449 571 l 1
 200 628 75 771 75 1008 c 0
 75 1271 253 1467 494 1467 c 0
 646 1467 765 1401 850 1269 c 1
 923 1401 1034 1467 1184 1467 c 0
 1403 1467 1520 1369 1530 1071 c 0
 1530 1053 1538 1042 1554 1042 c 2
 1561 1042 l 1
 1561 1002 l 1
 1369 968 1271 921 1271 852 c 0
 1271 816 1301 767 1346 714 c 0
 1380 674 1426 628 1473 583 c 0
 1528 532 1550 468 1550 423 c 0
 1550 269 1431 109 1243 20 c 0
 1148 -25 1046 -47 937 -47 c 0
1117 45 m 0
 1265 45 1425 170 1425 300 c 0
 1425 393 1352 474 1263 557 c 0
 1176 638 1109 721 1109 820 c 0
 1109 903 1190 950 1273 976 c 0
 1316 990 1360 1002 1386 1008 c 1
 1372 1032 1364 1065 1362 1103 c 2
 1360 1158 l 2
 1354 1322 1260 1409 1137 1409 c 0
 1026 1409 939 1346 876 1218 c 1
 923 1113 947 1008 947 903 c 0
 947 684 856 498 676 344 c 1
 741 301 820 243 913 164 c 0
 1006 85 1074 45 1117 45 c 0
EndSplineSet
EndChar

StartChar: u1D415
Encoding: 119829 119829 276
Width: 1289
GlyphClass: 1
Flags: HW
LayerCount: 2
Fore
SplineSet
640 -38 m 1
 134 1148 l 2
 91 1245 58 1308 -43 1322 c 1
 -43 1372 l 1
 636 1372 l 1
 636 1322 l 1
 513 1322 459 1300 459 1235 c 0
 459 1217 468 1185 486 1140 c 2
 779 431 l 1
 1048 1137 l 2
 1062 1175 1069 1207 1069 1233 c 0
 1069 1300 1018 1318 901 1322 c 1
 901 1372 l 1
 1332 1372 l 1
 1332 1322 l 1
 1249 1322 1205 1290 1152 1154 c 2
 692 -38 l 1
 640 -38 l 1
EndSplineSet
EndChar

StartChar: u1D47D
Encoding: 119933 119933 277
Width: 1202
GlyphClass: 1
Flags: HW
LayerCount: 2
Fore
SplineSet
202 -32 m 1
 255 1109 l 2
 261 1237 198 1302 85 1310 c 1
 85 1358 l 1
 692 1358 l 1
 692 1305 l 1
 597 1301 556 1280 544 1233 c 0
 538 1211 532 1166 528 1101 c 2
 494 370 l 1
 1065 1079 l 2
 1116 1142 1150 1184 1150 1241 c 0
 1150 1284 1107 1306 1024 1308 c 1
 1024 1358 l 1
 1443 1358 l 1
 1443 1303 l 1
 1435 1303 l 2
 1352 1303 1304 1247 1227 1152 c 2
 265 -32 l 1
 202 -32 l 1
EndSplineSet
EndChar

StartChar: u1D4E5
Encoding: 120037 120037 278
Width: 1208
GlyphClass: 1
Flags: HW
LayerCount: 2
Fore
SplineSet
587 -14 m 0
 575 -14 559 -4 559 0 c 0
 608 109 638 225 650 344 c 0
 674 581 765 759 915 949 c 1
 783 854 686 806 623 806 c 0
 552 806 518 836 518 897 c 0
 518 927 537 965 569 1010 c 0
 601 1055 617 1079 617 1087 c 0
 617 1099 611 1105 599 1105 c 0
 581 1105 502 1056 397 947 c 2
 346 895 l 2
 287 832 253 799 237 799 c 0
 223 799 215 806 215 822 c 0
 215 862 506 1160 638 1160 c 0
 719 1160 767 1115 767 1044 c 0
 767 987 735 943 686 878 c 1
 816 941 944 1029 1069 1144 c 0
 1148 1217 1196 1251 1210 1251 c 0
 1226 1251 1237 1245 1237 1231 c 0
 1237 1223 1233 1212 1229 1204 c 0
 1223 1192 1214 1178 1202 1160 c 0
 1129 1053 1083 939 1034 775 c 2
 955 506 l 2
 923 397 844 269 727 121 c 1
 956 271 1146 530 1324 842 c 0
 1413 998 1485 1109 1550 1172 c 0
 1613 1233 1658 1265 1686 1265 c 0
 1712 1265 1724 1259 1724 1247 c 1
 1710 1233 1698 1220 1686 1208 c 0
 1668 1192 1651 1178 1635 1164 c 0
 1564 1103 1469 971 1360 777 c 0
 1141 388 953 213 775 83 c 0
 686 18 623 -14 587 -14 c 0
EndSplineSet
EndChar

StartChar: u1D54D
Encoding: 120141 120141 279
Width: 1331
GlyphClass: 1
Flags: HW
LayerCount: 2
Fore
SplineSet
518 0 m 1
 0 1445 l 1
 374 1445 l 1
 814 202 l 1
 1218 1443 l 1
 1332 1443 l 1
 862 0 l 1
 518 0 l 1
595 107 m 1
 739 107 l 1
 298 1338 l 1
 156 1338 l 1
 595 107 l 1
EndSplineSet
EndChar

StartChar: u1D449
Encoding: 119881 119881 280
Width: 1315
GlyphClass: 1
Flags: HW
LayerCount: 2
Fore
SplineSet
241 -30 m 1
 289 1190 l 2
 293 1315 251 1360 134 1360 c 2
 113 1360 l 1
 121 1401 l 1
 682 1401 l 1
 672 1364 l 1
 656 1364 l 2
 526 1364 494 1322 488 1166 c 2
 449 287 l 1
 1158 1129 l 2
 1225 1210 1259 1265 1259 1295 c 0
 1259 1321 1249 1340 1225 1348 c 0
 1203 1356 1166 1360 1117 1360 c 1
 1125 1401 l 1
 1556 1401 l 1
 1542 1360 l 1
 1538 1360 l 2
 1463 1360 1396 1290 1285 1158 c 2
 285 -30 l 1
 241 -30 l 1
EndSplineSet
EndChar

StartChar: u1D4B1
Encoding: 119985 119985 281
Width: 1208
GlyphClass: 1
Flags: HW
LayerCount: 2
Fore
SplineSet
589 -14 m 0
 575 -14 567 -8 567 0 c 0
 567 8 571 16 581 28 c 0
 630 89 666 174 680 285 c 2
 694 395 l 2
 724 636 793 763 1034 1061 c 1
 931 980 848 923 783 880 c 0
 718 837 665 818 625 818 c 0
 566 818 538 844 538 901 c 0
 538 944 565 990 593 1024 c 2
 631 1073 l 2
 643 1087 648 1099 648 1107 c 0
 648 1117 639 1123 623 1123 c 0
 615 1123 595 1115 563 1099 c 0
 496 1065 340 921 300 858 c 0
 280 828 261 812 247 812 c 0
 237 812 231 816 231 824 c 0
 231 867 525 1158 640 1158 c 0
 705 1158 743 1117 743 1050 c 0
 743 1016 732 983 712 955 c 0
 692 927 666 888 642 852 c 1
 796 899 1119 1163 1166 1214 c 0
 1188 1238 1208 1251 1222 1251 c 0
 1230 1251 1235 1245 1235 1235 c 0
 1235 1227 1230 1216 1220 1206 c 0
 1161 1139 1107 1053 1087 976 c 2
 1030 767 l 2
 943 449 836 263 660 69 c 1
 842 162 1006 311 1164 538 c 0
 1243 651 1320 773 1393 903 c 0
 1466 1033 1526 1123 1585 1180 c 0
 1642 1237 1678 1265 1698 1265 c 0
 1710 1265 1716 1263 1716 1257 c 0
 1716 1249 1710 1243 1698 1233 c 0
 1690 1227 1657 1202 1619 1168 c 0
 1579 1134 1516 1041 1429 891 c 0
 1255 591 1202 510 1093 385 c 0
 984 257 871 150 733 57 c 0
 664 10 615 -14 589 -14 c 0
EndSplineSet
EndChar

StartChar: W
Encoding: 87 87 282
Width: 1882
GlyphClass: 2
Flags: HW
AnchorPoint: "Anchor-1" 927 0 basechar 0
AnchorPoint: "Anchor-0" 941 1445 basechar 0
LayerCount: 2
Fore
SplineSet
407 0 m 1
 24 1445 l 1
 215 1445 l 1
 439 563 l 2
 471 438 494 320 508 219 c 1
 522 324 551 454 585 573 c 2
 840 1445 l 1
 1028 1445 l 1
 1293 567 l 2
 1331 442 1358 312 1372 219 c 1
 1384 318 1411 437 1443 565 c 2
 1666 1445 l 1
 1856 1445 l 1
 1471 0 l 1
 1287 0 l 1
 1006 947 l 2
 972 1062 939 1197 933 1233 c 1
 929 1197 900 1064 864 941 c 2
 591 0 l 1
 407 0 l 1
EndSplineSet
EndChar

